<ttFont>
    <TTGlyph name="A" xMin="-1" yMin="0" xMax="644" yMax="730">
      <contour>
        <pt x="77" y="0" on="1"/>
        <pt x="-1" y="0" on="1"/>
        <pt x="-1" y="52" on="1"/>
        <pt x="47" y="59" on="1"/>
        <pt x="268" y="730" on="1"/>
        <pt x="374" y="730" on="1"/>
        <pt x="596" y="59" on="1"/>
        <pt x="644" y="52" on="1"/>
        <pt x="644" y="0" on="1"/>
        <pt x="566" y="0" on="1"/>
        <pt x="539" y="0" on="0"/>
        <pt x="530" y="26" on="1"/>
        <pt x="465" y="224" on="1"/>
        <pt x="178" y="224" on="1"/>
        <pt x="113" y="26" on="1"/>
        <pt x="104" y="0" on="0"/>
      </contour>
      <contour>
        <pt x="324" y="655" on="1"/>
        <pt x="319" y="655" on="1"/>
        <pt x="198" y="286" on="1"/>
        <pt x="445" y="286" on="1"/>
      </contour>
    </TTGlyph>
    <TTGlyph name="AE" xMin="-1" yMin="0" xMax="859" yMax="730">
      <contour>
        <pt x="818" y="730" on="1"/>
        <pt x="849" y="730" on="0"/>
        <pt x="849" y="699" on="1"/>
        <pt x="849" y="566" on="1"/>
        <pt x="797" y="566" on="1"/>
        <pt x="789" y="675" on="1"/>
        <pt x="519" y="675" on="1"/>
        <pt x="519" y="366" on="1"/>
        <pt x="803" y="366" on="1"/>
        <pt x="803" y="311" on="1"/>
        <pt x="519" y="311" on="1"/>
        <pt x="519" y="54" on="1"/>
        <pt x="799" y="54" on="1"/>
        <pt x="807" y="160" on="1"/>
        <pt x="859" y="160" on="1"/>
        <pt x="859" y="31" on="1"/>
        <pt x="859" y="0" on="0"/>
        <pt x="828" y="0" on="1"/>
        <pt x="377" y="0" on="1"/>
        <pt x="377" y="52" on="1"/>
        <pt x="439" y="59" on="1"/>
        <pt x="439" y="311" on="1"/>
        <pt x="205" y="311" on="1"/>
        <pt x="113" y="26" on="1"/>
        <pt x="104" y="0" on="0"/>
        <pt x="77" y="0" on="1"/>
        <pt x="-1" y="0" on="1"/>
        <pt x="-1" y="52" on="1"/>
        <pt x="47" y="59" on="1"/>
        <pt x="268" y="730" on="1"/>
      </contour>
      <contour>
        <pt x="439" y="675" on="1"/>
        <pt x="324" y="675" on="1"/>
        <pt x="223" y="366" on="1"/>
        <pt x="439" y="366" on="1"/>
      </contour>
    </TTGlyph>
    <TTGlyph name="Aacute" xMin="-1" yMin="0" xMax="644" yMax="967">
      <contour>
        <pt x="77" y="0" on="1"/>
        <pt x="-1" y="0" on="1"/>
        <pt x="-1" y="52" on="1"/>
        <pt x="47" y="59" on="1"/>
        <pt x="268" y="730" on="1"/>
        <pt x="374" y="730" on="1"/>
        <pt x="596" y="59" on="1"/>
        <pt x="644" y="52" on="1"/>
        <pt x="644" y="0" on="1"/>
        <pt x="566" y="0" on="1"/>
        <pt x="539" y="0" on="0"/>
        <pt x="530" y="26" on="1"/>
        <pt x="465" y="224" on="1"/>
        <pt x="178" y="224" on="1"/>
        <pt x="113" y="26" on="1"/>
        <pt x="104" y="0" on="0"/>
      </contour>
      <contour>
        <pt x="324" y="655" on="1"/>
        <pt x="319" y="655" on="1"/>
        <pt x="198" y="286" on="1"/>
        <pt x="445" y="286" on="1"/>
      </contour>
      <contour>
        <pt x="436" y="900" on="1"/>
        <pt x="234" y="795" on="1"/>
        <pt x="206" y="841" on="1"/>
        <pt x="398" y="967" on="1"/>
      </contour>
    </TTGlyph>
    <TTGlyph name="Acircumflex" xMin="-1" yMin="0" xMax="644" yMax="968">
      <contour>
        <pt x="77" y="0" on="1"/>
        <pt x="-1" y="0" on="1"/>
        <pt x="-1" y="52" on="1"/>
        <pt x="47" y="59" on="1"/>
        <pt x="268" y="730" on="1"/>
        <pt x="374" y="730" on="1"/>
        <pt x="596" y="59" on="1"/>
        <pt x="644" y="52" on="1"/>
        <pt x="644" y="0" on="1"/>
        <pt x="566" y="0" on="1"/>
        <pt x="539" y="0" on="0"/>
        <pt x="530" y="26" on="1"/>
        <pt x="465" y="224" on="1"/>
        <pt x="178" y="224" on="1"/>
        <pt x="113" y="26" on="1"/>
        <pt x="104" y="0" on="0"/>
      </contour>
      <contour>
        <pt x="324" y="655" on="1"/>
        <pt x="319" y="655" on="1"/>
        <pt x="198" y="286" on="1"/>
        <pt x="445" y="286" on="1"/>
      </contour>
      <contour>
        <pt x="465" y="825" on="1"/>
        <pt x="433" y="792" on="1"/>
        <pt x="321" y="890" on="1"/>
        <pt x="210" y="792" on="1"/>
        <pt x="178" y="825" on="1"/>
        <pt x="300" y="968" on="1"/>
        <pt x="342" y="968" on="1"/>
      </contour>
    </TTGlyph>
    <TTGlyph name="Adieresis" xMin="-1" yMin="0" xMax="644" yMax="924">
      <contour>
        <pt x="77" y="0" on="1"/>
        <pt x="-1" y="0" on="1"/>
        <pt x="-1" y="52" on="1"/>
        <pt x="47" y="59" on="1"/>
        <pt x="268" y="730" on="1"/>
        <pt x="374" y="730" on="1"/>
        <pt x="596" y="59" on="1"/>
        <pt x="644" y="52" on="1"/>
        <pt x="644" y="0" on="1"/>
        <pt x="566" y="0" on="1"/>
        <pt x="539" y="0" on="0"/>
        <pt x="530" y="26" on="1"/>
        <pt x="465" y="224" on="1"/>
        <pt x="178" y="224" on="1"/>
        <pt x="113" y="26" on="1"/>
        <pt x="104" y="0" on="0"/>
      </contour>
      <contour>
        <pt x="324" y="655" on="1"/>
        <pt x="319" y="655" on="1"/>
        <pt x="198" y="286" on="1"/>
        <pt x="445" y="286" on="1"/>
      </contour>
      <contour>
        <pt x="168" y="854" on="0"/>
        <pt x="168" y="894" on="0"/>
        <pt x="198" y="924" on="0"/>
        <pt x="238" y="924" on="0"/>
        <pt x="268" y="894" on="0"/>
        <pt x="268" y="854" on="0"/>
        <pt x="238" y="824" on="0"/>
        <pt x="198" y="824" on="0"/>
      </contour>
      <contour>
        <pt x="373" y="854" on="0"/>
        <pt x="373" y="894" on="0"/>
        <pt x="403" y="924" on="0"/>
        <pt x="443" y="924" on="0"/>
        <pt x="473" y="894" on="0"/>
        <pt x="473" y="854" on="0"/>
        <pt x="443" y="824" on="0"/>
        <pt x="403" y="824" on="0"/>
      </contour>
    </TTGlyph>
    <TTGlyph name="Agrave" xMin="-1" yMin="0" xMax="644" yMax="967">
      <contour>
        <pt x="77" y="0" on="1"/>
        <pt x="-1" y="0" on="1"/>
        <pt x="-1" y="52" on="1"/>
        <pt x="47" y="59" on="1"/>
        <pt x="268" y="730" on="1"/>
        <pt x="374" y="730" on="1"/>
        <pt x="596" y="59" on="1"/>
        <pt x="644" y="52" on="1"/>
        <pt x="644" y="0" on="1"/>
        <pt x="566" y="0" on="1"/>
        <pt x="539" y="0" on="0"/>
        <pt x="530" y="26" on="1"/>
        <pt x="465" y="224" on="1"/>
        <pt x="178" y="224" on="1"/>
        <pt x="113" y="26" on="1"/>
        <pt x="104" y="0" on="0"/>
      </contour>
      <contour>
        <pt x="324" y="655" on="1"/>
        <pt x="319" y="655" on="1"/>
        <pt x="198" y="286" on="1"/>
        <pt x="445" y="286" on="1"/>
      </contour>
      <contour>
        <pt x="409" y="795" on="1"/>
        <pt x="206" y="900" on="1"/>
        <pt x="245" y="967" on="1"/>
        <pt x="436" y="841" on="1"/>
      </contour>
    </TTGlyph>
    <TTGlyph name="Aring" xMin="-1" yMin="0" xMax="644" yMax="991">
      <contour>
        <pt x="77" y="0" on="1"/>
        <pt x="-1" y="0" on="1"/>
        <pt x="-1" y="52" on="1"/>
        <pt x="47" y="59" on="1"/>
        <pt x="268" y="730" on="1"/>
        <pt x="374" y="730" on="1"/>
        <pt x="596" y="59" on="1"/>
        <pt x="644" y="52" on="1"/>
        <pt x="644" y="0" on="1"/>
        <pt x="566" y="0" on="1"/>
        <pt x="539" y="0" on="0"/>
        <pt x="530" y="26" on="1"/>
        <pt x="465" y="224" on="1"/>
        <pt x="178" y="224" on="1"/>
        <pt x="113" y="26" on="1"/>
        <pt x="104" y="0" on="0"/>
      </contour>
      <contour>
        <pt x="324" y="655" on="1"/>
        <pt x="319" y="655" on="1"/>
        <pt x="198" y="286" on="1"/>
        <pt x="445" y="286" on="1"/>
      </contour>
      <contour>
        <pt x="210" y="932" on="0"/>
        <pt x="267" y="991" on="0"/>
        <pt x="370" y="991" on="0"/>
        <pt x="433" y="928" on="0"/>
        <pt x="433" y="834" on="0"/>
        <pt x="374" y="776" on="0"/>
        <pt x="271" y="776" on="0"/>
        <pt x="210" y="838" on="0"/>
      </contour>
      <contour>
        <pt x="373" y="909" on="0"/>
        <pt x="343" y="945" on="0"/>
        <pt x="295" y="945" on="0"/>
        <pt x="268" y="911" on="0"/>
        <pt x="268" y="858" on="0"/>
        <pt x="297" y="821" on="0"/>
        <pt x="346" y="821" on="0"/>
        <pt x="373" y="855" on="0"/>
      </contour>
    </TTGlyph>
    <TTGlyph name="Atilde" xMin="-1" yMin="0" xMax="644" yMax="944">
      <contour>
        <pt x="77" y="0" on="1"/>
        <pt x="-1" y="0" on="1"/>
        <pt x="-1" y="52" on="1"/>
        <pt x="47" y="59" on="1"/>
        <pt x="268" y="730" on="1"/>
        <pt x="374" y="730" on="1"/>
        <pt x="596" y="59" on="1"/>
        <pt x="644" y="52" on="1"/>
        <pt x="644" y="0" on="1"/>
        <pt x="566" y="0" on="1"/>
        <pt x="539" y="0" on="0"/>
        <pt x="530" y="26" on="1"/>
        <pt x="465" y="224" on="1"/>
        <pt x="178" y="224" on="1"/>
        <pt x="113" y="26" on="1"/>
        <pt x="104" y="0" on="0"/>
      </contour>
      <contour>
        <pt x="324" y="655" on="1"/>
        <pt x="319" y="655" on="1"/>
        <pt x="198" y="286" on="1"/>
        <pt x="445" y="286" on="1"/>
      </contour>
      <contour>
        <pt x="392" y="834" on="1"/>
        <pt x="367" y="834" on="0"/>
        <pt x="272" y="870" on="0"/>
        <pt x="258" y="870" on="1"/>
        <pt x="223" y="870" on="0"/>
        <pt x="211" y="827" on="1"/>
        <pt x="164" y="841" on="1"/>
        <pt x="190" y="936" on="0"/>
        <pt x="250" y="936" on="1"/>
        <pt x="274" y="936" on="0"/>
        <pt x="371" y="900" on="0"/>
        <pt x="385" y="900" on="1"/>
        <pt x="418" y="900" on="0"/>
        <pt x="431" y="944" on="1"/>
        <pt x="478" y="929" on="1"/>
        <pt x="454" y="834" on="0"/>
      </contour>
    </TTGlyph>
    <TTGlyph name="B" xMin="73" yMin="0" xMax="596" yMax="730">
      <contour>
        <pt x="73" y="730" on="1"/>
        <pt x="335" y="730" on="1"/>
        <pt x="444" y="730" on="0"/>
        <pt x="564" y="627" on="0"/>
        <pt x="564" y="539" on="1"/>
        <pt x="564" y="475" on="0"/>
        <pt x="498" y="387" on="0"/>
        <pt x="438" y="375" on="1"/>
        <pt x="512" y="365" on="0"/>
        <pt x="596" y="270" on="0"/>
        <pt x="596" y="200" on="1"/>
        <pt x="596" y="0" on="0"/>
        <pt x="370" y="0" on="1"/>
        <pt x="73" y="0" on="1"/>
        <pt x="73" y="52" on="1"/>
        <pt x="136" y="59" on="1"/>
        <pt x="136" y="670" on="1"/>
        <pt x="73" y="678" on="1"/>
      </contour>
      <contour>
        <pt x="216" y="675" on="1"/>
        <pt x="216" y="55" on="1"/>
        <pt x="368" y="55" on="1"/>
        <pt x="517" y="55" on="0"/>
        <pt x="517" y="200" on="1"/>
        <pt x="517" y="269" on="0"/>
        <pt x="429" y="345" on="0"/>
        <pt x="348" y="345" on="1"/>
        <pt x="279" y="345" on="1"/>
        <pt x="279" y="400" on="1"/>
        <pt x="348" y="400" on="1"/>
        <pt x="485" y="400" on="0"/>
        <pt x="485" y="539" on="1"/>
        <pt x="485" y="601" on="0"/>
        <pt x="406" y="675" on="0"/>
        <pt x="330" y="675" on="1"/>
      </contour>
    </TTGlyph>
    <TTGlyph name="C" xMin="61" yMin="-15" xMax="588" yMax="744">
      <contour>
        <pt x="340" y="683" on="1"/>
        <pt x="280" y="683" on="0"/>
        <pt x="196" y="624" on="0"/>
        <pt x="176" y="574" on="1"/>
        <pt x="141" y="483" on="0"/>
        <pt x="141" y="377" on="1"/>
        <pt x="141" y="266" on="0"/>
        <pt x="176" y="166" on="1"/>
        <pt x="196" y="112" on="0"/>
        <pt x="280" y="46" on="0"/>
        <pt x="340" y="46" on="1"/>
        <pt x="483" y="46" on="0"/>
        <pt x="519" y="245" on="1"/>
        <pt x="588" y="229" on="1"/>
        <pt x="535" y="-15" on="0"/>
        <pt x="339" y="-15" on="1"/>
        <pt x="274" y="-15" on="0"/>
        <pt x="173" y="36" on="0"/>
        <pt x="113" y="114" on="0"/>
        <pt x="94" y="168" on="1"/>
        <pt x="61" y="260" on="0"/>
        <pt x="61" y="374" on="1"/>
        <pt x="61" y="480" on="0"/>
        <pt x="94" y="569" on="1"/>
        <pt x="113" y="620" on="0"/>
        <pt x="173" y="695" on="0"/>
        <pt x="275" y="744" on="0"/>
        <pt x="340" y="744" on="1"/>
        <pt x="449" y="744" on="0"/>
        <pt x="563" y="687" on="1"/>
        <pt x="537" y="627" on="1"/>
        <pt x="436" y="683" on="0"/>
      </contour>
    </TTGlyph>
    <TTGlyph name="C.002" xMin="32" yMin="358" xMax="320" yMax="767">
      <contour>
        <pt x="186" y="730" on="1"/>
        <pt x="129" y="730" on="0"/>
        <pt x="82" y="634" on="0"/>
        <pt x="82" y="569" on="1"/>
        <pt x="82" y="509" on="0"/>
        <pt x="101" y="456" on="1"/>
        <pt x="111" y="428" on="0"/>
        <pt x="154" y="395" on="0"/>
        <pt x="184" y="395" on="1"/>
        <pt x="260" y="395" on="0"/>
        <pt x="276" y="501" on="1"/>
        <pt x="320" y="491" on="1"/>
        <pt x="291" y="358" on="0"/>
        <pt x="184" y="358" on="1"/>
        <pt x="128" y="358" on="0"/>
        <pt x="56" y="426" on="0"/>
        <pt x="32" y="514" on="0"/>
        <pt x="32" y="604" on="0"/>
        <pt x="47" y="670" on="0"/>
        <pt x="80" y="731" on="0"/>
        <pt x="143" y="767" on="0"/>
        <pt x="251" y="767" on="0"/>
        <pt x="307" y="736" on="1"/>
        <pt x="291" y="700" on="1"/>
        <pt x="229" y="730" on="0"/>
      </contour>
    </TTGlyph>
    <TTGlyph name="Ccedilla" xMin="61" yMin="-241" xMax="588" yMax="744">
      <contour>
        <pt x="340" y="683" on="1"/>
        <pt x="280" y="683" on="0"/>
        <pt x="196" y="624" on="0"/>
        <pt x="176" y="574" on="1"/>
        <pt x="141" y="483" on="0"/>
        <pt x="141" y="377" on="1"/>
        <pt x="141" y="266" on="0"/>
        <pt x="176" y="166" on="1"/>
        <pt x="196" y="112" on="0"/>
        <pt x="280" y="46" on="0"/>
        <pt x="340" y="46" on="1"/>
        <pt x="483" y="46" on="0"/>
        <pt x="519" y="245" on="1"/>
        <pt x="588" y="229" on="1"/>
        <pt x="535" y="-15" on="0"/>
        <pt x="339" y="-15" on="1"/>
        <pt x="334" y="-15" on="1"/>
        <pt x="325" y="-57" on="1"/>
        <pt x="381" y="-66" on="0"/>
        <pt x="439" y="-105" on="0"/>
        <pt x="439" y="-191" on="0"/>
        <pt x="382" y="-241" on="0"/>
        <pt x="292" y="-241" on="0"/>
        <pt x="241" y="-189" on="0"/>
        <pt x="241" y="-146" on="1"/>
        <pt x="293" y="-146" on="1"/>
        <pt x="292" y="-166" on="0"/>
        <pt x="316" y="-194" on="0"/>
        <pt x="361" y="-194" on="0"/>
        <pt x="389" y="-166" on="0"/>
        <pt x="389" y="-143" on="1"/>
        <pt x="389" y="-102" on="0"/>
        <pt x="336" y="-92" on="1"/>
        <pt x="287" y="-82" on="1"/>
        <pt x="303" y="-13" on="1"/>
        <pt x="233" y="-5" on="0"/>
        <pt x="133" y="74" on="0"/>
        <pt x="108" y="133" on="1"/>
        <pt x="61" y="244" on="0"/>
        <pt x="61" y="374" on="1"/>
        <pt x="61" y="480" on="0"/>
        <pt x="94" y="569" on="1"/>
        <pt x="113" y="620" on="0"/>
        <pt x="173" y="695" on="0"/>
        <pt x="275" y="744" on="0"/>
        <pt x="340" y="744" on="1"/>
        <pt x="449" y="744" on="0"/>
        <pt x="563" y="687" on="1"/>
        <pt x="537" y="627" on="1"/>
        <pt x="436" y="683" on="0"/>
      </contour>
    </TTGlyph>
    <TTGlyph name="D" xMin="73" yMin="0" xMax="654" yMax="730">
      <contour>
        <pt x="73" y="730" on="1"/>
        <pt x="347" y="730" on="1"/>
        <pt x="496" y="730" on="0"/>
        <pt x="654" y="543" on="0"/>
        <pt x="654" y="187" on="0"/>
        <pt x="496" y="0" on="0"/>
        <pt x="347" y="0" on="1"/>
        <pt x="73" y="0" on="1"/>
        <pt x="73" y="52" on="1"/>
        <pt x="135" y="59" on="1"/>
        <pt x="135" y="670" on="1"/>
        <pt x="73" y="678" on="1"/>
      </contour>
      <contour>
        <pt x="215" y="675" on="1"/>
        <pt x="215" y="55" on="1"/>
        <pt x="351" y="55" on="1"/>
        <pt x="460" y="55" on="0"/>
        <pt x="575" y="215" on="0"/>
        <pt x="575" y="515" on="0"/>
        <pt x="460" y="675" on="0"/>
        <pt x="351" y="675" on="1"/>
      </contour>
    </TTGlyph>
    <TTGlyph name="Delta" xMin="27" yMin="0" xMax="614" yMax="730">
      <contour>
        <pt x="27" y="0" on="1"/>
        <pt x="268" y="730" on="1"/>
        <pt x="374" y="730" on="1"/>
        <pt x="614" y="0" on="1"/>
      </contour>
      <contour>
        <pt x="319" y="655" on="1"/>
        <pt x="124" y="62" on="1"/>
        <pt x="517" y="62" on="1"/>
        <pt x="324" y="655" on="1"/>
      </contour>
    </TTGlyph>
    <TTGlyph name="E" xMin="73" yMin="0" xMax="554" yMax="730">
      <contour>
        <pt x="73" y="730" on="1"/>
        <pt x="514" y="730" on="1"/>
        <pt x="544" y="730" on="0"/>
        <pt x="544" y="699" on="1"/>
        <pt x="544" y="566" on="1"/>
        <pt x="492" y="566" on="1"/>
        <pt x="485" y="675" on="1"/>
        <pt x="215" y="675" on="1"/>
        <pt x="215" y="398" on="1"/>
        <pt x="499" y="398" on="1"/>
        <pt x="499" y="343" on="1"/>
        <pt x="215" y="343" on="1"/>
        <pt x="215" y="54" on="1"/>
        <pt x="494" y="54" on="1"/>
        <pt x="502" y="160" on="1"/>
        <pt x="554" y="160" on="1"/>
        <pt x="554" y="31" on="1"/>
        <pt x="554" y="0" on="0"/>
        <pt x="523" y="0" on="1"/>
        <pt x="73" y="0" on="1"/>
        <pt x="73" y="52" on="1"/>
        <pt x="135" y="59" on="1"/>
        <pt x="135" y="670" on="1"/>
        <pt x="73" y="678" on="1"/>
      </contour>
    </TTGlyph>
    <TTGlyph name="Eacute" xMin="73" yMin="0" xMax="554" yMax="967">
      <contour>
        <pt x="73" y="730" on="1"/>
        <pt x="514" y="730" on="1"/>
        <pt x="544" y="730" on="0"/>
        <pt x="544" y="699" on="1"/>
        <pt x="544" y="566" on="1"/>
        <pt x="492" y="566" on="1"/>
        <pt x="485" y="675" on="1"/>
        <pt x="215" y="675" on="1"/>
        <pt x="215" y="398" on="1"/>
        <pt x="499" y="398" on="1"/>
        <pt x="499" y="343" on="1"/>
        <pt x="215" y="343" on="1"/>
        <pt x="215" y="54" on="1"/>
        <pt x="494" y="54" on="1"/>
        <pt x="502" y="160" on="1"/>
        <pt x="554" y="160" on="1"/>
        <pt x="554" y="31" on="1"/>
        <pt x="554" y="0" on="0"/>
        <pt x="523" y="0" on="1"/>
        <pt x="73" y="0" on="1"/>
        <pt x="73" y="52" on="1"/>
        <pt x="135" y="59" on="1"/>
        <pt x="135" y="670" on="1"/>
        <pt x="73" y="678" on="1"/>
      </contour>
      <contour>
        <pt x="459" y="900" on="1"/>
        <pt x="257" y="795" on="1"/>
        <pt x="229" y="841" on="1"/>
        <pt x="421" y="967" on="1"/>
      </contour>
    </TTGlyph>
    <TTGlyph name="Ecircumflex" xMin="73" yMin="0" xMax="554" yMax="968">
      <contour>
        <pt x="73" y="730" on="1"/>
        <pt x="514" y="730" on="1"/>
        <pt x="544" y="730" on="0"/>
        <pt x="544" y="699" on="1"/>
        <pt x="544" y="566" on="1"/>
        <pt x="492" y="566" on="1"/>
        <pt x="485" y="675" on="1"/>
        <pt x="215" y="675" on="1"/>
        <pt x="215" y="398" on="1"/>
        <pt x="499" y="398" on="1"/>
        <pt x="499" y="343" on="1"/>
        <pt x="215" y="343" on="1"/>
        <pt x="215" y="54" on="1"/>
        <pt x="494" y="54" on="1"/>
        <pt x="502" y="160" on="1"/>
        <pt x="554" y="160" on="1"/>
        <pt x="554" y="31" on="1"/>
        <pt x="554" y="0" on="0"/>
        <pt x="523" y="0" on="1"/>
        <pt x="73" y="0" on="1"/>
        <pt x="73" y="52" on="1"/>
        <pt x="135" y="59" on="1"/>
        <pt x="135" y="670" on="1"/>
        <pt x="73" y="678" on="1"/>
      </contour>
      <contour>
        <pt x="478" y="825" on="1"/>
        <pt x="446" y="792" on="1"/>
        <pt x="334" y="890" on="1"/>
        <pt x="223" y="792" on="1"/>
        <pt x="191" y="825" on="1"/>
        <pt x="313" y="968" on="1"/>
        <pt x="355" y="968" on="1"/>
      </contour>
    </TTGlyph>
    <TTGlyph name="Edieresis" xMin="73" yMin="0" xMax="554" yMax="924">
      <contour>
        <pt x="73" y="730" on="1"/>
        <pt x="514" y="730" on="1"/>
        <pt x="544" y="730" on="0"/>
        <pt x="544" y="699" on="1"/>
        <pt x="544" y="566" on="1"/>
        <pt x="492" y="566" on="1"/>
        <pt x="485" y="675" on="1"/>
        <pt x="215" y="675" on="1"/>
        <pt x="215" y="398" on="1"/>
        <pt x="499" y="398" on="1"/>
        <pt x="499" y="343" on="1"/>
        <pt x="215" y="343" on="1"/>
        <pt x="215" y="54" on="1"/>
        <pt x="494" y="54" on="1"/>
        <pt x="502" y="160" on="1"/>
        <pt x="554" y="160" on="1"/>
        <pt x="554" y="31" on="1"/>
        <pt x="554" y="0" on="0"/>
        <pt x="523" y="0" on="1"/>
        <pt x="73" y="0" on="1"/>
        <pt x="73" y="52" on="1"/>
        <pt x="135" y="59" on="1"/>
        <pt x="135" y="670" on="1"/>
        <pt x="73" y="678" on="1"/>
      </contour>
      <contour>
        <pt x="172" y="854" on="0"/>
        <pt x="172" y="894" on="0"/>
        <pt x="202" y="924" on="0"/>
        <pt x="242" y="924" on="0"/>
        <pt x="272" y="894" on="0"/>
        <pt x="272" y="854" on="0"/>
        <pt x="242" y="824" on="0"/>
        <pt x="202" y="824" on="0"/>
      </contour>
      <contour>
        <pt x="377" y="854" on="0"/>
        <pt x="377" y="894" on="0"/>
        <pt x="407" y="924" on="0"/>
        <pt x="447" y="924" on="0"/>
        <pt x="477" y="894" on="0"/>
        <pt x="477" y="854" on="0"/>
        <pt x="447" y="824" on="0"/>
        <pt x="407" y="824" on="0"/>
      </contour>
    </TTGlyph>
    <TTGlyph name="Egrave" xMin="73" yMin="0" xMax="554" yMax="967">
      <contour>
        <pt x="73" y="730" on="1"/>
        <pt x="514" y="730" on="1"/>
        <pt x="544" y="730" on="0"/>
        <pt x="544" y="699" on="1"/>
        <pt x="544" y="566" on="1"/>
        <pt x="492" y="566" on="1"/>
        <pt x="485" y="675" on="1"/>
        <pt x="215" y="675" on="1"/>
        <pt x="215" y="398" on="1"/>
        <pt x="499" y="398" on="1"/>
        <pt x="499" y="343" on="1"/>
        <pt x="215" y="343" on="1"/>
        <pt x="215" y="54" on="1"/>
        <pt x="494" y="54" on="1"/>
        <pt x="502" y="160" on="1"/>
        <pt x="554" y="160" on="1"/>
        <pt x="554" y="31" on="1"/>
        <pt x="554" y="0" on="0"/>
        <pt x="523" y="0" on="1"/>
        <pt x="73" y="0" on="1"/>
        <pt x="73" y="52" on="1"/>
        <pt x="135" y="59" on="1"/>
        <pt x="135" y="670" on="1"/>
        <pt x="73" y="678" on="1"/>
      </contour>
      <contour>
        <pt x="395" y="795" on="1"/>
        <pt x="192" y="900" on="1"/>
        <pt x="231" y="967" on="1"/>
        <pt x="422" y="841" on="1"/>
      </contour>
    </TTGlyph>
    <TTGlyph name="Eth" xMin="40" yMin="0" xMax="654" yMax="730">
      <contour>
        <pt x="73" y="730" on="1"/>
        <pt x="347" y="730" on="1"/>
        <pt x="496" y="730" on="0"/>
        <pt x="654" y="543" on="0"/>
        <pt x="654" y="187" on="0"/>
        <pt x="496" y="0" on="0"/>
        <pt x="347" y="0" on="1"/>
        <pt x="73" y="0" on="1"/>
        <pt x="73" y="52" on="1"/>
        <pt x="135" y="59" on="1"/>
        <pt x="135" y="337" on="1"/>
        <pt x="40" y="337" on="1"/>
        <pt x="40" y="392" on="1"/>
        <pt x="135" y="392" on="1"/>
        <pt x="135" y="670" on="1"/>
        <pt x="73" y="678" on="1"/>
      </contour>
      <contour>
        <pt x="385" y="337" on="1"/>
        <pt x="215" y="337" on="1"/>
        <pt x="215" y="55" on="1"/>
        <pt x="351" y="55" on="1"/>
        <pt x="460" y="55" on="0"/>
        <pt x="575" y="215" on="0"/>
        <pt x="575" y="515" on="0"/>
        <pt x="460" y="675" on="0"/>
        <pt x="351" y="675" on="1"/>
        <pt x="215" y="675" on="1"/>
        <pt x="215" y="392" on="1"/>
        <pt x="385" y="392" on="1"/>
      </contour>
    </TTGlyph>
    <TTGlyph name="Euro" xMin="-1" yMin="-15" xMax="573" yMax="744">
      <contour>
        <pt x="340" y="46" on="1"/>
        <pt x="460" y="46" on="0"/>
        <pt x="506" y="191" on="1"/>
        <pt x="573" y="173" on="1"/>
        <pt x="511" y="-15" on="0"/>
        <pt x="339" y="-15" on="1"/>
        <pt x="274" y="-15" on="0"/>
        <pt x="174" y="33" on="0"/>
        <pt x="143" y="75" on="1"/>
        <pt x="84" y="155" on="0"/>
        <pt x="68" y="269" on="1"/>
        <pt x="-1" y="269" on="1"/>
        <pt x="11" y="315" on="1"/>
        <pt x="63" y="315" on="1"/>
        <pt x="61" y="335" on="0"/>
        <pt x="61" y="401" on="0"/>
        <pt x="62" y="416" on="1"/>
        <pt x="11" y="416" on="1"/>
        <pt x="24" y="462" on="1"/>
        <pt x="67" y="462" on="1"/>
        <pt x="96" y="673" on="0"/>
        <pt x="242" y="728" on="1"/>
        <pt x="286" y="744" on="0"/>
        <pt x="340" y="744" on="1"/>
        <pt x="449" y="744" on="0"/>
        <pt x="563" y="687" on="1"/>
        <pt x="537" y="627" on="1"/>
        <pt x="436" y="683" on="0"/>
        <pt x="340" y="683" on="1"/>
        <pt x="176" y="683" on="0"/>
        <pt x="146" y="462" on="1"/>
        <pt x="447" y="462" on="1"/>
        <pt x="434" y="416" on="1"/>
        <pt x="142" y="416" on="1"/>
        <pt x="141" y="402" on="0"/>
        <pt x="141" y="337" on="0"/>
        <pt x="143" y="315" on="1"/>
        <pt x="434" y="315" on="1"/>
        <pt x="422" y="269" on="1"/>
        <pt x="149" y="269" on="1"/>
        <pt x="184" y="46" on="0"/>
      </contour>
    </TTGlyph>
    <TTGlyph name="F" xMin="73" yMin="0" xMax="528" yMax="730">
      <contour>
        <pt x="297" y="0" on="1"/>
        <pt x="73" y="0" on="1"/>
        <pt x="73" y="52" on="1"/>
        <pt x="135" y="59" on="1"/>
        <pt x="135" y="670" on="1"/>
        <pt x="73" y="678" on="1"/>
        <pt x="73" y="730" on="1"/>
        <pt x="497" y="730" on="1"/>
        <pt x="528" y="730" on="0"/>
        <pt x="528" y="699" on="1"/>
        <pt x="528" y="563" on="1"/>
        <pt x="475" y="563" on="1"/>
        <pt x="468" y="675" on="1"/>
        <pt x="215" y="675" on="1"/>
        <pt x="215" y="388" on="1"/>
        <pt x="482" y="388" on="1"/>
        <pt x="482" y="333" on="1"/>
        <pt x="215" y="333" on="1"/>
        <pt x="215" y="59" on="1"/>
        <pt x="297" y="51" on="1"/>
      </contour>
    </TTGlyph>
    <TTGlyph name="G" xMin="61" yMin="-14" xMax="590" yMax="744">
      <contour>
        <pt x="335" y="-14" on="1"/>
        <pt x="276" y="-14" on="0"/>
        <pt x="172" y="37" on="0"/>
        <pt x="112" y="114" on="0"/>
        <pt x="93" y="168" on="1"/>
        <pt x="61" y="259" on="0"/>
        <pt x="61" y="374" on="1"/>
        <pt x="61" y="481" on="0"/>
        <pt x="94" y="569" on="1"/>
        <pt x="114" y="620" on="0"/>
        <pt x="176" y="695" on="0"/>
        <pt x="281" y="744" on="0"/>
        <pt x="349" y="744" on="1"/>
        <pt x="459" y="744" on="0"/>
        <pt x="580" y="687" on="1"/>
        <pt x="553" y="627" on="1"/>
        <pt x="450" y="683" on="0"/>
        <pt x="349" y="683" on="1"/>
        <pt x="286" y="683" on="0"/>
        <pt x="198" y="624" on="0"/>
        <pt x="178" y="574" on="1"/>
        <pt x="141" y="485" on="0"/>
        <pt x="141" y="377" on="1"/>
        <pt x="141" y="214" on="0"/>
        <pt x="195" y="127" on="1"/>
        <pt x="216" y="93" on="0"/>
        <pt x="293" y="47" on="0"/>
        <pt x="344" y="47" on="1"/>
        <pt x="417" y="47" on="0"/>
        <pt x="514" y="134" on="0"/>
        <pt x="514" y="227" on="1"/>
        <pt x="514" y="311" on="1"/>
        <pt x="382" y="318" on="1"/>
        <pt x="382" y="376" on="1"/>
        <pt x="554" y="376" on="1"/>
        <pt x="590" y="376" on="0"/>
        <pt x="590" y="346" on="1"/>
        <pt x="590" y="224" on="1"/>
        <pt x="590" y="91" on="0"/>
        <pt x="514" y="36" on="1"/>
        <pt x="445" y="-14" on="0"/>
      </contour>
    </TTGlyph>
    <TTGlyph name="H" xMin="73" yMin="0" xMax="701" yMax="730">
      <contour>
        <pt x="701" y="0" on="1"/>
        <pt x="590" y="0" on="1"/>
        <pt x="559" y="0" on="0"/>
        <pt x="559" y="31" on="1"/>
        <pt x="559" y="334" on="1"/>
        <pt x="215" y="334" on="1"/>
        <pt x="215" y="31" on="1"/>
        <pt x="215" y="0" on="0"/>
        <pt x="184" y="0" on="1"/>
        <pt x="73" y="0" on="1"/>
        <pt x="73" y="52" on="1"/>
        <pt x="135" y="60" on="1"/>
        <pt x="135" y="670" on="1"/>
        <pt x="73" y="678" on="1"/>
        <pt x="73" y="730" on="1"/>
        <pt x="184" y="730" on="1"/>
        <pt x="215" y="730" on="0"/>
        <pt x="215" y="699" on="1"/>
        <pt x="215" y="396" on="1"/>
        <pt x="559" y="396" on="1"/>
        <pt x="559" y="699" on="1"/>
        <pt x="559" y="730" on="0"/>
        <pt x="590" y="730" on="1"/>
        <pt x="701" y="730" on="1"/>
        <pt x="701" y="678" on="1"/>
        <pt x="639" y="672" on="1"/>
        <pt x="639" y="60" on="1"/>
        <pt x="701" y="52" on="1"/>
      </contour>
    </TTGlyph>
    <TTGlyph name="I" xMin="73" yMin="0" xMax="277" yMax="730">
      <contour>
        <pt x="277" y="0" on="1"/>
        <pt x="73" y="0" on="1"/>
        <pt x="73" y="52" on="1"/>
        <pt x="135" y="59" on="1"/>
        <pt x="135" y="670" on="1"/>
        <pt x="73" y="678" on="1"/>
        <pt x="73" y="730" on="1"/>
        <pt x="277" y="730" on="1"/>
        <pt x="277" y="678" on="1"/>
        <pt x="215" y="670" on="1"/>
        <pt x="215" y="59" on="1"/>
        <pt x="277" y="52" on="1"/>
      </contour>
    </TTGlyph>
    <TTGlyph name="Iacute" xMin="73" yMin="0" xMax="307" yMax="967">
      <contour>
        <pt x="277" y="0" on="1"/>
        <pt x="73" y="0" on="1"/>
        <pt x="73" y="52" on="1"/>
        <pt x="135" y="59" on="1"/>
        <pt x="135" y="670" on="1"/>
        <pt x="73" y="678" on="1"/>
        <pt x="73" y="730" on="1"/>
        <pt x="277" y="730" on="1"/>
        <pt x="277" y="678" on="1"/>
        <pt x="215" y="670" on="1"/>
        <pt x="215" y="59" on="1"/>
        <pt x="277" y="52" on="1"/>
      </contour>
      <contour>
        <pt x="307" y="900" on="1"/>
        <pt x="105" y="795" on="1"/>
        <pt x="77" y="841" on="1"/>
        <pt x="269" y="967" on="1"/>
      </contour>
    </TTGlyph>
    <TTGlyph name="Icircumflex" xMin="46" yMin="0" xMax="333" yMax="968">
      <contour>
        <pt x="277" y="0" on="1"/>
        <pt x="73" y="0" on="1"/>
        <pt x="73" y="52" on="1"/>
        <pt x="135" y="59" on="1"/>
        <pt x="135" y="670" on="1"/>
        <pt x="73" y="678" on="1"/>
        <pt x="73" y="730" on="1"/>
        <pt x="277" y="730" on="1"/>
        <pt x="277" y="678" on="1"/>
        <pt x="215" y="670" on="1"/>
        <pt x="215" y="59" on="1"/>
        <pt x="277" y="52" on="1"/>
      </contour>
      <contour>
        <pt x="333" y="825" on="1"/>
        <pt x="301" y="792" on="1"/>
        <pt x="189" y="890" on="1"/>
        <pt x="78" y="792" on="1"/>
        <pt x="46" y="825" on="1"/>
        <pt x="168" y="968" on="1"/>
        <pt x="210" y="968" on="1"/>
      </contour>
    </TTGlyph>
    <TTGlyph name="Idieresis" xMin="22" yMin="0" xMax="327" yMax="924">
      <contour>
        <pt x="277" y="0" on="1"/>
        <pt x="73" y="0" on="1"/>
        <pt x="73" y="52" on="1"/>
        <pt x="135" y="59" on="1"/>
        <pt x="135" y="670" on="1"/>
        <pt x="73" y="678" on="1"/>
        <pt x="73" y="730" on="1"/>
        <pt x="277" y="730" on="1"/>
        <pt x="277" y="678" on="1"/>
        <pt x="215" y="670" on="1"/>
        <pt x="215" y="59" on="1"/>
        <pt x="277" y="52" on="1"/>
      </contour>
      <contour>
        <pt x="22" y="854" on="0"/>
        <pt x="22" y="894" on="0"/>
        <pt x="52" y="924" on="0"/>
        <pt x="92" y="924" on="0"/>
        <pt x="122" y="894" on="0"/>
        <pt x="122" y="854" on="0"/>
        <pt x="92" y="824" on="0"/>
        <pt x="52" y="824" on="0"/>
      </contour>
      <contour>
        <pt x="227" y="854" on="0"/>
        <pt x="227" y="894" on="0"/>
        <pt x="257" y="924" on="0"/>
        <pt x="297" y="924" on="0"/>
        <pt x="327" y="894" on="0"/>
        <pt x="327" y="854" on="0"/>
        <pt x="297" y="824" on="0"/>
        <pt x="257" y="824" on="0"/>
      </contour>
    </TTGlyph>
    <TTGlyph name="Igrave" xMin="73" yMin="0" xMax="306" yMax="967">
      <contour>
        <pt x="277" y="0" on="1"/>
        <pt x="73" y="0" on="1"/>
        <pt x="73" y="52" on="1"/>
        <pt x="135" y="59" on="1"/>
        <pt x="135" y="670" on="1"/>
        <pt x="73" y="678" on="1"/>
        <pt x="73" y="730" on="1"/>
        <pt x="277" y="730" on="1"/>
        <pt x="277" y="678" on="1"/>
        <pt x="215" y="670" on="1"/>
        <pt x="215" y="59" on="1"/>
        <pt x="277" y="52" on="1"/>
      </contour>
      <contour>
        <pt x="279" y="795" on="1"/>
        <pt x="76" y="900" on="1"/>
        <pt x="115" y="967" on="1"/>
        <pt x="306" y="841" on="1"/>
      </contour>
    </TTGlyph>
    <TTGlyph name="J" xMin="19" yMin="-14" xMax="411" yMax="730">
      <contour>
        <pt x="411" y="699" on="1"/>
        <pt x="411" y="204" on="1"/>
        <pt x="411" y="-14" on="0"/>
        <pt x="214" y="-14" on="1"/>
        <pt x="19" y="-14" on="0"/>
        <pt x="19" y="204" on="1"/>
        <pt x="19" y="234" on="1"/>
        <pt x="91" y="234" on="1"/>
        <pt x="91" y="207" on="1"/>
        <pt x="91" y="47" on="0"/>
        <pt x="213" y="47" on="1"/>
        <pt x="332" y="47" on="0"/>
        <pt x="332" y="207" on="1"/>
        <pt x="332" y="672" on="1"/>
        <pt x="237" y="680" on="1"/>
        <pt x="237" y="730" on="1"/>
        <pt x="378" y="730" on="1"/>
        <pt x="411" y="730" on="0"/>
      </contour>
    </TTGlyph>
    <TTGlyph name="K" xMin="73" yMin="0" xMax="626" yMax="730">
      <contour>
        <pt x="626" y="0" on="1"/>
        <pt x="542" y="0" on="1"/>
        <pt x="518" y="0" on="0"/>
        <pt x="505" y="20" on="1"/>
        <pt x="294" y="343" on="1"/>
        <pt x="215" y="343" on="1"/>
        <pt x="215" y="31" on="1"/>
        <pt x="215" y="0" on="0"/>
        <pt x="184" y="0" on="1"/>
        <pt x="73" y="0" on="1"/>
        <pt x="73" y="51" on="1"/>
        <pt x="135" y="57" on="1"/>
        <pt x="135" y="671" on="1"/>
        <pt x="73" y="678" on="1"/>
        <pt x="73" y="730" on="1"/>
        <pt x="184" y="730" on="1"/>
        <pt x="215" y="730" on="0"/>
        <pt x="215" y="699" on="1"/>
        <pt x="215" y="396" on="1"/>
        <pt x="298" y="396" on="1"/>
        <pt x="496" y="709" on="1"/>
        <pt x="510" y="730" on="0"/>
        <pt x="534" y="730" on="1"/>
        <pt x="617" y="730" on="1"/>
        <pt x="617" y="678" on="1"/>
        <pt x="562" y="671" on="1"/>
        <pt x="365" y="368" on="1"/>
        <pt x="571" y="59" on="1"/>
        <pt x="626" y="51" on="1"/>
      </contour>
    </TTGlyph>
    <TTGlyph name="L" xMin="73" yMin="0" xMax="504" yMax="730">
      <contour>
        <pt x="215" y="54" on="1"/>
        <pt x="444" y="54" on="1"/>
        <pt x="452" y="170" on="1"/>
        <pt x="504" y="170" on="1"/>
        <pt x="504" y="31" on="1"/>
        <pt x="504" y="0" on="0"/>
        <pt x="473" y="0" on="1"/>
        <pt x="73" y="0" on="1"/>
        <pt x="73" y="52" on="1"/>
        <pt x="135" y="59" on="1"/>
        <pt x="135" y="670" on="1"/>
        <pt x="73" y="678" on="1"/>
        <pt x="73" y="730" on="1"/>
        <pt x="297" y="730" on="1"/>
        <pt x="297" y="678" on="1"/>
        <pt x="215" y="670" on="1"/>
      </contour>
    </TTGlyph>
    <TTGlyph name="Lslash" xMin="50" yMin="0" xMax="504" yMax="730">
      <contour>
        <pt x="215" y="54" on="1"/>
        <pt x="444" y="54" on="1"/>
        <pt x="452" y="170" on="1"/>
        <pt x="504" y="170" on="1"/>
        <pt x="504" y="31" on="1"/>
        <pt x="504" y="0" on="0"/>
        <pt x="473" y="0" on="1"/>
        <pt x="73" y="0" on="1"/>
        <pt x="73" y="52" on="1"/>
        <pt x="135" y="59" on="1"/>
        <pt x="135" y="335" on="1"/>
        <pt x="50" y="301" on="1"/>
        <pt x="50" y="357" on="1"/>
        <pt x="135" y="391" on="1"/>
        <pt x="135" y="670" on="1"/>
        <pt x="73" y="678" on="1"/>
        <pt x="73" y="730" on="1"/>
        <pt x="297" y="730" on="1"/>
        <pt x="297" y="678" on="1"/>
        <pt x="215" y="670" on="1"/>
        <pt x="215" y="423" on="1"/>
        <pt x="302" y="458" on="1"/>
        <pt x="302" y="402" on="1"/>
        <pt x="215" y="367" on="1"/>
      </contour>
    </TTGlyph>
    <TTGlyph name="M" xMin="76" yMin="0" xMax="911" yMax="730">
      <contour>
        <pt x="911" y="0" on="1"/>
        <pt x="797" y="0" on="1"/>
        <pt x="767" y="0" on="0"/>
        <pt x="765" y="29" on="1"/>
        <pt x="727" y="621" on="1"/>
        <pt x="524" y="103" on="1"/>
        <pt x="451" y="103" on="1"/>
        <pt x="259" y="621" on="1"/>
        <pt x="222" y="29" on="1"/>
        <pt x="220" y="0" on="0"/>
        <pt x="190" y="0" on="1"/>
        <pt x="76" y="0" on="1"/>
        <pt x="76" y="52" on="1"/>
        <pt x="144" y="59" on="1"/>
        <pt x="180" y="670" on="1"/>
        <pt x="124" y="678" on="1"/>
        <pt x="124" y="730" on="1"/>
        <pt x="271" y="730" on="1"/>
        <pt x="297" y="730" on="0"/>
        <pt x="306" y="705" on="1"/>
        <pt x="487" y="199" on="1"/>
        <pt x="680" y="705" on="1"/>
        <pt x="689" y="730" on="0"/>
        <pt x="715" y="730" on="1"/>
        <pt x="862" y="730" on="1"/>
        <pt x="862" y="678" on="1"/>
        <pt x="806" y="670" on="1"/>
        <pt x="843" y="59" on="1"/>
        <pt x="911" y="52" on="1"/>
      </contour>
    </TTGlyph>
    <TTGlyph name="N" xMin="73" yMin="0" xMax="730" yMax="730">
      <contour>
        <pt x="668" y="0" on="1"/>
        <pt x="602" y="0" on="1"/>
        <pt x="576" y="0" on="0"/>
        <pt x="565" y="20" on="1"/>
        <pt x="215" y="603" on="1"/>
        <pt x="215" y="31" on="1"/>
        <pt x="215" y="0" on="0"/>
        <pt x="184" y="0" on="1"/>
        <pt x="73" y="0" on="1"/>
        <pt x="73" y="52" on="1"/>
        <pt x="135" y="59" on="1"/>
        <pt x="135" y="670" on="1"/>
        <pt x="73" y="678" on="1"/>
        <pt x="73" y="730" on="1"/>
        <pt x="201" y="730" on="1"/>
        <pt x="225" y="730" on="0"/>
        <pt x="238" y="710" on="1"/>
        <pt x="588" y="126" on="1"/>
        <pt x="588" y="699" on="1"/>
        <pt x="588" y="730" on="0"/>
        <pt x="618" y="730" on="1"/>
        <pt x="730" y="730" on="1"/>
        <pt x="730" y="678" on="1"/>
        <pt x="668" y="670" on="1"/>
      </contour>
    </TTGlyph>
    <TTGlyph name="Ntilde" xMin="73" yMin="0" xMax="730" yMax="944">
      <contour>
        <pt x="668" y="0" on="1"/>
        <pt x="602" y="0" on="1"/>
        <pt x="576" y="0" on="0"/>
        <pt x="565" y="20" on="1"/>
        <pt x="215" y="603" on="1"/>
        <pt x="215" y="31" on="1"/>
        <pt x="215" y="0" on="0"/>
        <pt x="184" y="0" on="1"/>
        <pt x="73" y="0" on="1"/>
        <pt x="73" y="52" on="1"/>
        <pt x="135" y="59" on="1"/>
        <pt x="135" y="670" on="1"/>
        <pt x="73" y="678" on="1"/>
        <pt x="73" y="730" on="1"/>
        <pt x="201" y="730" on="1"/>
        <pt x="225" y="730" on="0"/>
        <pt x="238" y="710" on="1"/>
        <pt x="588" y="126" on="1"/>
        <pt x="588" y="699" on="1"/>
        <pt x="588" y="730" on="0"/>
        <pt x="618" y="730" on="1"/>
        <pt x="730" y="730" on="1"/>
        <pt x="730" y="678" on="1"/>
        <pt x="668" y="670" on="1"/>
      </contour>
      <contour>
        <pt x="477" y="834" on="1"/>
        <pt x="452" y="834" on="0"/>
        <pt x="357" y="870" on="0"/>
        <pt x="343" y="870" on="1"/>
        <pt x="308" y="870" on="0"/>
        <pt x="296" y="827" on="1"/>
        <pt x="249" y="841" on="1"/>
        <pt x="275" y="936" on="0"/>
        <pt x="335" y="936" on="1"/>
        <pt x="359" y="936" on="0"/>
        <pt x="456" y="900" on="0"/>
        <pt x="470" y="900" on="1"/>
        <pt x="503" y="900" on="0"/>
        <pt x="516" y="944" on="1"/>
        <pt x="563" y="929" on="1"/>
        <pt x="539" y="834" on="0"/>
      </contour>
    </TTGlyph>
    <TTGlyph name="O" xMin="62" yMin="-14" xMax="646" yMax="744">
      <contour>
        <pt x="62" y="547" on="0"/>
        <pt x="217" y="744" on="0"/>
        <pt x="490" y="744" on="0"/>
        <pt x="646" y="547" on="0"/>
        <pt x="646" y="183" on="0"/>
        <pt x="490" y="-14" on="0"/>
        <pt x="217" y="-14" on="0"/>
        <pt x="62" y="183" on="0"/>
      </contour>
      <contour>
        <pt x="566" y="518" on="0"/>
        <pt x="453" y="683" on="0"/>
        <pt x="254" y="683" on="0"/>
        <pt x="141" y="518" on="0"/>
        <pt x="141" y="212" on="0"/>
        <pt x="254" y="47" on="0"/>
        <pt x="453" y="47" on="0"/>
        <pt x="566" y="212" on="0"/>
      </contour>
    </TTGlyph>
    <TTGlyph name="OE" xMin="62" yMin="-14" xMax="891" yMax="744">
      <contour>
        <pt x="835" y="343" on="1"/>
        <pt x="646" y="343" on="1"/>
        <pt x="640" y="148" on="0"/>
        <pt x="541" y="54" on="1"/>
        <pt x="831" y="54" on="1"/>
        <pt x="839" y="160" on="1"/>
        <pt x="891" y="160" on="1"/>
        <pt x="891" y="31" on="1"/>
        <pt x="891" y="0" on="0"/>
        <pt x="860" y="0" on="1"/>
        <pt x="447" y="0" on="1"/>
        <pt x="402" y="-14" on="0"/>
        <pt x="353" y="-14" on="1"/>
        <pt x="217" y="-14" on="0"/>
        <pt x="62" y="183" on="0"/>
        <pt x="62" y="547" on="0"/>
        <pt x="217" y="744" on="0"/>
        <pt x="353" y="744" on="1"/>
        <pt x="402" y="744" on="0"/>
        <pt x="447" y="730" on="1"/>
        <pt x="850" y="730" on="1"/>
        <pt x="881" y="730" on="0"/>
        <pt x="881" y="699" on="1"/>
        <pt x="881" y="566" on="1"/>
        <pt x="829" y="566" on="1"/>
        <pt x="821" y="675" on="1"/>
        <pt x="541" y="675" on="1"/>
        <pt x="636" y="586" on="0"/>
        <pt x="645" y="398" on="1"/>
        <pt x="835" y="398" on="1"/>
      </contour>
      <contour>
        <pt x="566" y="518" on="0"/>
        <pt x="453" y="683" on="0"/>
        <pt x="254" y="683" on="0"/>
        <pt x="141" y="518" on="0"/>
        <pt x="141" y="212" on="0"/>
        <pt x="254" y="47" on="0"/>
        <pt x="353" y="47" on="1"/>
        <pt x="411" y="47" on="0"/>
        <pt x="497" y="104" on="0"/>
        <pt x="520" y="152" on="1"/>
        <pt x="566" y="243" on="0"/>
        <pt x="566" y="365" on="1"/>
      </contour>
    </TTGlyph>
    <TTGlyph name="Oacute" xMin="62" yMin="-14" xMax="646" yMax="967">
      <contour>
        <pt x="62" y="547" on="0"/>
        <pt x="217" y="744" on="0"/>
        <pt x="490" y="744" on="0"/>
        <pt x="646" y="547" on="0"/>
        <pt x="646" y="183" on="0"/>
        <pt x="490" y="-14" on="0"/>
        <pt x="217" y="-14" on="0"/>
        <pt x="62" y="183" on="0"/>
      </contour>
      <contour>
        <pt x="566" y="518" on="0"/>
        <pt x="453" y="683" on="0"/>
        <pt x="254" y="683" on="0"/>
        <pt x="141" y="518" on="0"/>
        <pt x="141" y="212" on="0"/>
        <pt x="254" y="47" on="0"/>
        <pt x="453" y="47" on="0"/>
        <pt x="566" y="212" on="0"/>
      </contour>
      <contour>
        <pt x="479" y="900" on="1"/>
        <pt x="277" y="795" on="1"/>
        <pt x="249" y="841" on="1"/>
        <pt x="441" y="967" on="1"/>
      </contour>
    </TTGlyph>
    <TTGlyph name="Ocircumflex" xMin="62" yMin="-14" xMax="646" yMax="968">
      <contour>
        <pt x="62" y="547" on="0"/>
        <pt x="217" y="744" on="0"/>
        <pt x="490" y="744" on="0"/>
        <pt x="646" y="547" on="0"/>
        <pt x="646" y="183" on="0"/>
        <pt x="490" y="-14" on="0"/>
        <pt x="217" y="-14" on="0"/>
        <pt x="62" y="183" on="0"/>
      </contour>
      <contour>
        <pt x="566" y="518" on="0"/>
        <pt x="453" y="683" on="0"/>
        <pt x="254" y="683" on="0"/>
        <pt x="141" y="518" on="0"/>
        <pt x="141" y="212" on="0"/>
        <pt x="254" y="47" on="0"/>
        <pt x="453" y="47" on="0"/>
        <pt x="566" y="212" on="0"/>
      </contour>
      <contour>
        <pt x="505" y="825" on="1"/>
        <pt x="473" y="792" on="1"/>
        <pt x="361" y="890" on="1"/>
        <pt x="250" y="792" on="1"/>
        <pt x="218" y="825" on="1"/>
        <pt x="340" y="968" on="1"/>
        <pt x="382" y="968" on="1"/>
      </contour>
    </TTGlyph>
    <TTGlyph name="Odieresis" xMin="62" yMin="-14" xMax="646" yMax="924">
      <contour>
        <pt x="62" y="547" on="0"/>
        <pt x="217" y="744" on="0"/>
        <pt x="490" y="744" on="0"/>
        <pt x="646" y="547" on="0"/>
        <pt x="646" y="183" on="0"/>
        <pt x="490" y="-14" on="0"/>
        <pt x="217" y="-14" on="0"/>
        <pt x="62" y="183" on="0"/>
      </contour>
      <contour>
        <pt x="566" y="518" on="0"/>
        <pt x="453" y="683" on="0"/>
        <pt x="254" y="683" on="0"/>
        <pt x="141" y="518" on="0"/>
        <pt x="141" y="212" on="0"/>
        <pt x="254" y="47" on="0"/>
        <pt x="453" y="47" on="0"/>
        <pt x="566" y="212" on="0"/>
      </contour>
      <contour>
        <pt x="202" y="854" on="0"/>
        <pt x="202" y="894" on="0"/>
        <pt x="232" y="924" on="0"/>
        <pt x="272" y="924" on="0"/>
        <pt x="302" y="894" on="0"/>
        <pt x="302" y="854" on="0"/>
        <pt x="272" y="824" on="0"/>
        <pt x="232" y="824" on="0"/>
      </contour>
      <contour>
        <pt x="407" y="854" on="0"/>
        <pt x="407" y="894" on="0"/>
        <pt x="437" y="924" on="0"/>
        <pt x="477" y="924" on="0"/>
        <pt x="507" y="894" on="0"/>
        <pt x="507" y="854" on="0"/>
        <pt x="477" y="824" on="0"/>
        <pt x="437" y="824" on="0"/>
      </contour>
    </TTGlyph>
    <TTGlyph name="Ograve" xMin="62" yMin="-14" xMax="646" yMax="967">
      <contour>
        <pt x="62" y="547" on="0"/>
        <pt x="217" y="744" on="0"/>
        <pt x="490" y="744" on="0"/>
        <pt x="646" y="547" on="0"/>
        <pt x="646" y="183" on="0"/>
        <pt x="490" y="-14" on="0"/>
        <pt x="217" y="-14" on="0"/>
        <pt x="62" y="183" on="0"/>
      </contour>
      <contour>
        <pt x="566" y="518" on="0"/>
        <pt x="453" y="683" on="0"/>
        <pt x="254" y="683" on="0"/>
        <pt x="141" y="518" on="0"/>
        <pt x="141" y="212" on="0"/>
        <pt x="254" y="47" on="0"/>
        <pt x="453" y="47" on="0"/>
        <pt x="566" y="212" on="0"/>
      </contour>
      <contour>
        <pt x="451" y="795" on="1"/>
        <pt x="248" y="900" on="1"/>
        <pt x="287" y="967" on="1"/>
        <pt x="478" y="841" on="1"/>
      </contour>
    </TTGlyph>
    <TTGlyph name="Omega" xMin="69" yMin="0" xMax="737" yMax="744">
      <contour>
        <pt x="656" y="547" on="0"/>
        <pt x="526" y="682" on="0"/>
        <pt x="279" y="682" on="0"/>
        <pt x="149" y="547" on="0"/>
        <pt x="149" y="419" on="1"/>
        <pt x="149" y="341" on="0"/>
        <pt x="233" y="204" on="0"/>
        <pt x="299" y="175" on="1"/>
        <pt x="299" y="0" on="1"/>
        <pt x="86" y="0" on="1"/>
        <pt x="86" y="52" on="1"/>
        <pt x="234" y="60" on="1"/>
        <pt x="234" y="141" on="1"/>
        <pt x="162" y="181" on="0"/>
        <pt x="69" y="333" on="0"/>
        <pt x="69" y="426" on="1"/>
        <pt x="69" y="576" on="0"/>
        <pt x="244" y="744" on="0"/>
        <pt x="562" y="744" on="0"/>
        <pt x="737" y="575" on="0"/>
        <pt x="737" y="426" on="1"/>
        <pt x="737" y="333" on="0"/>
        <pt x="643" y="182" on="0"/>
        <pt x="571" y="141" on="1"/>
        <pt x="571" y="60" on="1"/>
        <pt x="720" y="52" on="1"/>
        <pt x="720" y="0" on="1"/>
        <pt x="506" y="0" on="1"/>
        <pt x="506" y="175" on="1"/>
        <pt x="573" y="204" on="0"/>
        <pt x="656" y="341" on="0"/>
        <pt x="656" y="419" on="1"/>
      </contour>
    </TTGlyph>
    <TTGlyph name="Oslash" xMin="62" yMin="-76" xMax="646" yMax="805">
      <contour>
        <pt x="62" y="365" on="1"/>
        <pt x="62" y="547" on="0"/>
        <pt x="217" y="744" on="0"/>
        <pt x="353" y="744" on="1"/>
        <pt x="388" y="744" on="0"/>
        <pt x="425" y="736" on="1"/>
        <pt x="444" y="805" on="1"/>
        <pt x="506" y="805" on="1"/>
        <pt x="482" y="716" on="1"/>
        <pt x="560" y="677" on="0"/>
        <pt x="646" y="498" on="0"/>
        <pt x="646" y="365" on="1"/>
        <pt x="646" y="183" on="0"/>
        <pt x="490" y="-14" on="0"/>
        <pt x="353" y="-14" on="1"/>
        <pt x="322" y="-14" on="0"/>
        <pt x="285" y="-7" on="1"/>
        <pt x="266" y="-76" on="1"/>
        <pt x="204" y="-76" on="1"/>
        <pt x="228" y="12" on="1"/>
        <pt x="148" y="50" on="0"/>
        <pt x="62" y="230" on="0"/>
      </contour>
      <contour>
        <pt x="353" y="683" on="1"/>
        <pt x="254" y="683" on="0"/>
        <pt x="141" y="518" on="0"/>
        <pt x="141" y="365" on="1"/>
        <pt x="141" y="154" on="0"/>
        <pt x="246" y="79" on="1"/>
        <pt x="408" y="675" on="1"/>
        <pt x="381" y="683" on="0"/>
      </contour>
      <contour>
        <pt x="566" y="365" on="1"/>
        <pt x="566" y="574" on="0"/>
        <pt x="463" y="648" on="1"/>
        <pt x="301" y="53" on="1"/>
        <pt x="325" y="47" on="0"/>
        <pt x="353" y="47" on="1"/>
        <pt x="453" y="47" on="0"/>
        <pt x="566" y="212" on="0"/>
      </contour>
    </TTGlyph>
    <TTGlyph name="Otilde" xMin="62" yMin="-14" xMax="646" yMax="944">
      <contour>
        <pt x="62" y="547" on="0"/>
        <pt x="217" y="744" on="0"/>
        <pt x="490" y="744" on="0"/>
        <pt x="646" y="547" on="0"/>
        <pt x="646" y="183" on="0"/>
        <pt x="490" y="-14" on="0"/>
        <pt x="217" y="-14" on="0"/>
        <pt x="62" y="183" on="0"/>
      </contour>
      <contour>
        <pt x="566" y="518" on="0"/>
        <pt x="453" y="683" on="0"/>
        <pt x="254" y="683" on="0"/>
        <pt x="141" y="518" on="0"/>
        <pt x="141" y="212" on="0"/>
        <pt x="254" y="47" on="0"/>
        <pt x="453" y="47" on="0"/>
        <pt x="566" y="212" on="0"/>
      </contour>
      <contour>
        <pt x="432" y="834" on="1"/>
        <pt x="407" y="834" on="0"/>
        <pt x="312" y="870" on="0"/>
        <pt x="298" y="870" on="1"/>
        <pt x="263" y="870" on="0"/>
        <pt x="251" y="827" on="1"/>
        <pt x="204" y="841" on="1"/>
        <pt x="230" y="936" on="0"/>
        <pt x="290" y="936" on="1"/>
        <pt x="314" y="936" on="0"/>
        <pt x="411" y="900" on="0"/>
        <pt x="425" y="900" on="1"/>
        <pt x="458" y="900" on="0"/>
        <pt x="471" y="944" on="1"/>
        <pt x="518" y="929" on="1"/>
        <pt x="494" y="834" on="0"/>
      </contour>
    </TTGlyph>
    <TTGlyph name="P" xMin="73" yMin="0" xMax="571" yMax="730">
      <contour>
        <pt x="278" y="337" on="1"/>
        <pt x="337" y="337" on="1"/>
        <pt x="493" y="337" on="0"/>
        <pt x="493" y="675" on="0"/>
        <pt x="337" y="675" on="1"/>
        <pt x="215" y="675" on="1"/>
        <pt x="215" y="59" on="1"/>
        <pt x="302" y="51" on="1"/>
        <pt x="302" y="0" on="1"/>
        <pt x="73" y="0" on="1"/>
        <pt x="73" y="52" on="1"/>
        <pt x="135" y="59" on="1"/>
        <pt x="135" y="670" on="1"/>
        <pt x="73" y="678" on="1"/>
        <pt x="73" y="730" on="1"/>
        <pt x="337" y="730" on="1"/>
        <pt x="452" y="730" on="0"/>
        <pt x="571" y="616" on="0"/>
        <pt x="571" y="393" on="0"/>
        <pt x="453" y="274" on="0"/>
        <pt x="337" y="274" on="1"/>
        <pt x="278" y="274" on="1"/>
      </contour>
    </TTGlyph>
    <TTGlyph name="Q" xMin="62" yMin="-194" xMax="646" yMax="744">
      <contour>
        <pt x="62" y="547" on="0"/>
        <pt x="217" y="744" on="0"/>
        <pt x="490" y="744" on="0"/>
        <pt x="646" y="547" on="0"/>
        <pt x="646" y="203" on="0"/>
        <pt x="521" y="10" on="0"/>
        <pt x="409" y="-9" on="1"/>
        <pt x="502" y="-194" on="1"/>
        <pt x="424" y="-194" on="1"/>
        <pt x="335" y="-13" on="1"/>
        <pt x="207" y="-7" on="0"/>
        <pt x="62" y="189" on="0"/>
      </contour>
      <contour>
        <pt x="566" y="518" on="0"/>
        <pt x="453" y="683" on="0"/>
        <pt x="254" y="683" on="0"/>
        <pt x="141" y="518" on="0"/>
        <pt x="141" y="212" on="0"/>
        <pt x="254" y="47" on="0"/>
        <pt x="453" y="47" on="0"/>
        <pt x="566" y="212" on="0"/>
      </contour>
    </TTGlyph>
    <TTGlyph name="R" xMin="73" yMin="0" xMax="642" yMax="730">
      <contour>
        <pt x="273" y="357" on="1"/>
        <pt x="332" y="357" on="1"/>
        <pt x="410" y="357" on="0"/>
        <pt x="488" y="438" on="0"/>
        <pt x="488" y="591" on="0"/>
        <pt x="410" y="675" on="0"/>
        <pt x="332" y="675" on="1"/>
        <pt x="215" y="675" on="1"/>
        <pt x="215" y="59" on="1"/>
        <pt x="302" y="52" on="1"/>
        <pt x="302" y="0" on="1"/>
        <pt x="73" y="0" on="1"/>
        <pt x="73" y="52" on="1"/>
        <pt x="135" y="59" on="1"/>
        <pt x="135" y="670" on="1"/>
        <pt x="73" y="678" on="1"/>
        <pt x="73" y="730" on="1"/>
        <pt x="332" y="730" on="1"/>
        <pt x="446" y="730" on="0"/>
        <pt x="566" y="618" on="0"/>
        <pt x="566" y="514" on="1"/>
        <pt x="566" y="355" on="0"/>
        <pt x="429" y="314" on="1"/>
        <pt x="479" y="291" on="0"/>
        <pt x="501" y="239" on="1"/>
        <pt x="579" y="59" on="1"/>
        <pt x="642" y="52" on="1"/>
        <pt x="642" y="0" on="1"/>
        <pt x="545" y="0" on="1"/>
        <pt x="519" y="0" on="0"/>
        <pt x="509" y="23" on="1"/>
        <pt x="422" y="228" on="1"/>
        <pt x="403" y="273" on="0"/>
        <pt x="352" y="302" on="0"/>
        <pt x="295" y="302" on="1"/>
        <pt x="273" y="302" on="1"/>
      </contour>
    </TTGlyph>
    <TTGlyph name="R.001" xMin="40" yMin="366" xMax="327" yMax="760">
      <contour>
        <pt x="163" y="527" on="1"/>
        <pt x="151" y="527" on="1"/>
        <pt x="151" y="562" on="1"/>
        <pt x="181" y="562" on="1"/>
        <pt x="261" y="562" on="0"/>
        <pt x="261" y="643" on="1"/>
        <pt x="261" y="683" on="0"/>
        <pt x="220" y="726" on="0"/>
        <pt x="181" y="726" on="1"/>
        <pt x="121" y="726" on="1"/>
        <pt x="121" y="399" on="1"/>
        <pt x="166" y="399" on="1"/>
        <pt x="166" y="366" on="1"/>
        <pt x="40" y="366" on="1"/>
        <pt x="40" y="400" on="1"/>
        <pt x="71" y="400" on="1"/>
        <pt x="71" y="726" on="1"/>
        <pt x="40" y="726" on="1"/>
        <pt x="40" y="760" on="1"/>
        <pt x="181" y="760" on="1"/>
        <pt x="243" y="760" on="0"/>
        <pt x="309" y="700" on="0"/>
        <pt x="309" y="643" on="1"/>
        <pt x="309" y="557" on="0"/>
        <pt x="237" y="536" on="1"/>
        <pt x="264" y="522" on="0"/>
        <pt x="275" y="495" on="1"/>
        <pt x="327" y="366" on="1"/>
        <pt x="273" y="366" on="1"/>
        <pt x="225" y="491" on="1"/>
        <pt x="216" y="513" on="0"/>
        <pt x="191" y="527" on="0"/>
      </contour>
    </TTGlyph>
    <TTGlyph name="S" xMin="38" yMin="-14" xMax="507" yMax="744">
      <contour>
        <pt x="461" y="635" on="1"/>
        <pt x="365" y="683" on="0"/>
        <pt x="217" y="683" on="0"/>
        <pt x="140" y="618" on="0"/>
        <pt x="140" y="507" on="0"/>
        <pt x="216" y="435" on="0"/>
        <pt x="324" y="390" on="0"/>
        <pt x="431" y="340" on="0"/>
        <pt x="507" y="247" on="0"/>
        <pt x="507" y="180" on="1"/>
        <pt x="507" y="89" on="0"/>
        <pt x="381" y="-14" on="0"/>
        <pt x="183" y="-14" on="0"/>
        <pt x="59" y="93" on="0"/>
        <pt x="38" y="189" on="1"/>
        <pt x="108" y="206" on="1"/>
        <pt x="149" y="47" on="0"/>
        <pt x="276" y="47" on="1"/>
        <pt x="348" y="47" on="0"/>
        <pt x="427" y="117" on="0"/>
        <pt x="427" y="180" on="1"/>
        <pt x="427" y="250" on="0"/>
        <pt x="354" y="292" on="1"/>
        <pt x="322" y="310" on="0"/>
        <pt x="244" y="343" on="0"/>
        <pt x="165" y="382" on="0"/>
        <pt x="100" y="430" on="0"/>
        <pt x="60" y="508" on="0"/>
        <pt x="60" y="559" on="1"/>
        <pt x="60" y="647" on="0"/>
        <pt x="183" y="744" on="0"/>
        <pt x="378" y="744" on="0"/>
        <pt x="486" y="695" on="1"/>
      </contour>
    </TTGlyph>
    <TTGlyph name="Scaron" xMin="55" yMin="-14" xMax="524" yMax="978">
      <contour>
        <pt x="478" y="635" on="1"/>
        <pt x="382" y="683" on="0"/>
        <pt x="234" y="683" on="0"/>
        <pt x="157" y="618" on="0"/>
        <pt x="157" y="507" on="0"/>
        <pt x="233" y="435" on="0"/>
        <pt x="341" y="390" on="0"/>
        <pt x="448" y="340" on="0"/>
        <pt x="524" y="247" on="0"/>
        <pt x="524" y="180" on="1"/>
        <pt x="524" y="89" on="0"/>
        <pt x="398" y="-14" on="0"/>
        <pt x="200" y="-14" on="0"/>
        <pt x="76" y="93" on="0"/>
        <pt x="55" y="189" on="1"/>
        <pt x="125" y="206" on="1"/>
        <pt x="166" y="47" on="0"/>
        <pt x="293" y="47" on="1"/>
        <pt x="365" y="47" on="0"/>
        <pt x="444" y="117" on="0"/>
        <pt x="444" y="180" on="1"/>
        <pt x="444" y="250" on="0"/>
        <pt x="372" y="292" on="1"/>
        <pt x="339" y="310" on="0"/>
        <pt x="261" y="343" on="0"/>
        <pt x="182" y="382" on="0"/>
        <pt x="117" y="430" on="0"/>
        <pt x="77" y="508" on="0"/>
        <pt x="77" y="559" on="1"/>
        <pt x="77" y="647" on="0"/>
        <pt x="200" y="744" on="0"/>
        <pt x="395" y="744" on="0"/>
        <pt x="503" y="695" on="1"/>
      </contour>
      <contour>
        <pt x="410" y="978" on="1"/>
        <pt x="442" y="945" on="1"/>
        <pt x="319" y="802" on="1"/>
        <pt x="277" y="802" on="1"/>
        <pt x="155" y="945" on="1"/>
        <pt x="187" y="978" on="1"/>
        <pt x="298" y="880" on="1"/>
      </contour>
    </TTGlyph>
    <TTGlyph name="T" xMin="19" yMin="0" xMax="539" yMax="730">
      <contour>
        <pt x="50" y="730" on="1"/>
        <pt x="508" y="730" on="1"/>
        <pt x="539" y="730" on="0"/>
        <pt x="539" y="699" on="1"/>
        <pt x="539" y="563" on="1"/>
        <pt x="487" y="563" on="1"/>
        <pt x="479" y="675" on="1"/>
        <pt x="319" y="675" on="1"/>
        <pt x="319" y="59" on="1"/>
        <pt x="409" y="52" on="1"/>
        <pt x="409" y="0" on="1"/>
        <pt x="149" y="0" on="1"/>
        <pt x="149" y="52" on="1"/>
        <pt x="239" y="59" on="1"/>
        <pt x="239" y="675" on="1"/>
        <pt x="79" y="675" on="1"/>
        <pt x="71" y="563" on="1"/>
        <pt x="19" y="563" on="1"/>
        <pt x="19" y="699" on="1"/>
        <pt x="19" y="730" on="0"/>
      </contour>
    </TTGlyph>
    <TTGlyph name="Thorn" xMin="73" yMin="0" xMax="563" yMax="730">
      <contour>
        <pt x="216" y="574" on="1"/>
        <pt x="328" y="574" on="1"/>
        <pt x="442" y="574" on="0"/>
        <pt x="563" y="466" on="0"/>
        <pt x="563" y="267" on="0"/>
        <pt x="444" y="161" on="0"/>
        <pt x="328" y="161" on="1"/>
        <pt x="279" y="161" on="1"/>
        <pt x="279" y="215" on="1"/>
        <pt x="328" y="215" on="1"/>
        <pt x="484" y="215" on="0"/>
        <pt x="484" y="366" on="1"/>
        <pt x="484" y="520" on="0"/>
        <pt x="328" y="520" on="1"/>
        <pt x="216" y="520" on="1"/>
        <pt x="216" y="59" on="1"/>
        <pt x="279" y="51" on="1"/>
        <pt x="279" y="0" on="1"/>
        <pt x="73" y="0" on="1"/>
        <pt x="73" y="52" on="1"/>
        <pt x="136" y="59" on="1"/>
        <pt x="136" y="670" on="1"/>
        <pt x="74" y="678" on="1"/>
        <pt x="74" y="730" on="1"/>
        <pt x="278" y="730" on="1"/>
        <pt x="278" y="678" on="1"/>
        <pt x="216" y="670" on="1"/>
      </contour>
    </TTGlyph>
    <TTGlyph name="U" xMin="53" yMin="-14" xMax="697" yMax="730">
      <contour>
        <pt x="635" y="266" on="1"/>
        <pt x="635" y="101" on="0"/>
        <pt x="554" y="40" on="1"/>
        <pt x="485" y="-14" on="0"/>
        <pt x="374" y="-14" on="1"/>
        <pt x="267" y="-14" on="0"/>
        <pt x="196" y="40" on="1"/>
        <pt x="115" y="101" on="0"/>
        <pt x="115" y="266" on="1"/>
        <pt x="115" y="670" on="1"/>
        <pt x="53" y="678" on="1"/>
        <pt x="53" y="730" on="1"/>
        <pt x="162" y="730" on="1"/>
        <pt x="195" y="730" on="0"/>
        <pt x="195" y="699" on="1"/>
        <pt x="195" y="269" on="1"/>
        <pt x="195" y="49" on="0"/>
        <pt x="374" y="49" on="1"/>
        <pt x="555" y="49" on="0"/>
        <pt x="555" y="269" on="1"/>
        <pt x="555" y="699" on="1"/>
        <pt x="555" y="730" on="0"/>
        <pt x="588" y="730" on="1"/>
        <pt x="697" y="730" on="1"/>
        <pt x="697" y="678" on="1"/>
        <pt x="635" y="670" on="1"/>
      </contour>
    </TTGlyph>
    <TTGlyph name="Uacute" xMin="53" yMin="-14" xMax="697" yMax="967">
      <contour>
        <pt x="635" y="266" on="1"/>
        <pt x="635" y="101" on="0"/>
        <pt x="554" y="40" on="1"/>
        <pt x="485" y="-14" on="0"/>
        <pt x="374" y="-14" on="1"/>
        <pt x="267" y="-14" on="0"/>
        <pt x="196" y="40" on="1"/>
        <pt x="115" y="101" on="0"/>
        <pt x="115" y="266" on="1"/>
        <pt x="115" y="670" on="1"/>
        <pt x="53" y="678" on="1"/>
        <pt x="53" y="730" on="1"/>
        <pt x="162" y="730" on="1"/>
        <pt x="195" y="730" on="0"/>
        <pt x="195" y="699" on="1"/>
        <pt x="195" y="269" on="1"/>
        <pt x="195" y="49" on="0"/>
        <pt x="374" y="49" on="1"/>
        <pt x="555" y="49" on="0"/>
        <pt x="555" y="269" on="1"/>
        <pt x="555" y="699" on="1"/>
        <pt x="555" y="730" on="0"/>
        <pt x="588" y="730" on="1"/>
        <pt x="697" y="730" on="1"/>
        <pt x="697" y="678" on="1"/>
        <pt x="635" y="670" on="1"/>
      </contour>
      <contour>
        <pt x="510" y="900" on="1"/>
        <pt x="308" y="795" on="1"/>
        <pt x="280" y="841" on="1"/>
        <pt x="472" y="967" on="1"/>
      </contour>
    </TTGlyph>
    <TTGlyph name="Ucircumflex" xMin="53" yMin="-14" xMax="697" yMax="968">
      <contour>
        <pt x="635" y="266" on="1"/>
        <pt x="635" y="101" on="0"/>
        <pt x="554" y="40" on="1"/>
        <pt x="485" y="-14" on="0"/>
        <pt x="374" y="-14" on="1"/>
        <pt x="267" y="-14" on="0"/>
        <pt x="196" y="40" on="1"/>
        <pt x="115" y="101" on="0"/>
        <pt x="115" y="266" on="1"/>
        <pt x="115" y="670" on="1"/>
        <pt x="53" y="678" on="1"/>
        <pt x="53" y="730" on="1"/>
        <pt x="162" y="730" on="1"/>
        <pt x="195" y="730" on="0"/>
        <pt x="195" y="699" on="1"/>
        <pt x="195" y="269" on="1"/>
        <pt x="195" y="49" on="0"/>
        <pt x="374" y="49" on="1"/>
        <pt x="555" y="49" on="0"/>
        <pt x="555" y="269" on="1"/>
        <pt x="555" y="699" on="1"/>
        <pt x="555" y="730" on="0"/>
        <pt x="588" y="730" on="1"/>
        <pt x="697" y="730" on="1"/>
        <pt x="697" y="678" on="1"/>
        <pt x="635" y="670" on="1"/>
      </contour>
      <contour>
        <pt x="516" y="825" on="1"/>
        <pt x="484" y="792" on="1"/>
        <pt x="372" y="890" on="1"/>
        <pt x="261" y="792" on="1"/>
        <pt x="229" y="825" on="1"/>
        <pt x="351" y="968" on="1"/>
        <pt x="393" y="968" on="1"/>
      </contour>
    </TTGlyph>
    <TTGlyph name="Udieresis" xMin="53" yMin="-14" xMax="697" yMax="924">
      <contour>
        <pt x="635" y="266" on="1"/>
        <pt x="635" y="101" on="0"/>
        <pt x="554" y="40" on="1"/>
        <pt x="485" y="-14" on="0"/>
        <pt x="374" y="-14" on="1"/>
        <pt x="267" y="-14" on="0"/>
        <pt x="196" y="40" on="1"/>
        <pt x="115" y="101" on="0"/>
        <pt x="115" y="266" on="1"/>
        <pt x="115" y="670" on="1"/>
        <pt x="53" y="678" on="1"/>
        <pt x="53" y="730" on="1"/>
        <pt x="162" y="730" on="1"/>
        <pt x="195" y="730" on="0"/>
        <pt x="195" y="699" on="1"/>
        <pt x="195" y="269" on="1"/>
        <pt x="195" y="49" on="0"/>
        <pt x="374" y="49" on="1"/>
        <pt x="555" y="49" on="0"/>
        <pt x="555" y="269" on="1"/>
        <pt x="555" y="699" on="1"/>
        <pt x="555" y="730" on="0"/>
        <pt x="588" y="730" on="1"/>
        <pt x="697" y="730" on="1"/>
        <pt x="697" y="678" on="1"/>
        <pt x="635" y="670" on="1"/>
      </contour>
      <contour>
        <pt x="222" y="854" on="0"/>
        <pt x="222" y="894" on="0"/>
        <pt x="252" y="924" on="0"/>
        <pt x="292" y="924" on="0"/>
        <pt x="322" y="894" on="0"/>
        <pt x="322" y="854" on="0"/>
        <pt x="292" y="824" on="0"/>
        <pt x="252" y="824" on="0"/>
      </contour>
      <contour>
        <pt x="427" y="854" on="0"/>
        <pt x="427" y="894" on="0"/>
        <pt x="457" y="924" on="0"/>
        <pt x="497" y="924" on="0"/>
        <pt x="527" y="894" on="0"/>
        <pt x="527" y="854" on="0"/>
        <pt x="497" y="824" on="0"/>
        <pt x="457" y="824" on="0"/>
      </contour>
    </TTGlyph>
    <TTGlyph name="Ugrave" xMin="53" yMin="-14" xMax="697" yMax="967">
      <contour>
        <pt x="635" y="266" on="1"/>
        <pt x="635" y="101" on="0"/>
        <pt x="554" y="40" on="1"/>
        <pt x="485" y="-14" on="0"/>
        <pt x="374" y="-14" on="1"/>
        <pt x="267" y="-14" on="0"/>
        <pt x="196" y="40" on="1"/>
        <pt x="115" y="101" on="0"/>
        <pt x="115" y="266" on="1"/>
        <pt x="115" y="670" on="1"/>
        <pt x="53" y="678" on="1"/>
        <pt x="53" y="730" on="1"/>
        <pt x="162" y="730" on="1"/>
        <pt x="195" y="730" on="0"/>
        <pt x="195" y="699" on="1"/>
        <pt x="195" y="269" on="1"/>
        <pt x="195" y="49" on="0"/>
        <pt x="374" y="49" on="1"/>
        <pt x="555" y="49" on="0"/>
        <pt x="555" y="269" on="1"/>
        <pt x="555" y="699" on="1"/>
        <pt x="555" y="730" on="0"/>
        <pt x="588" y="730" on="1"/>
        <pt x="697" y="730" on="1"/>
        <pt x="697" y="678" on="1"/>
        <pt x="635" y="670" on="1"/>
      </contour>
      <contour>
        <pt x="462" y="795" on="1"/>
        <pt x="259" y="900" on="1"/>
        <pt x="298" y="967" on="1"/>
        <pt x="489" y="841" on="1"/>
      </contour>
    </TTGlyph>
    <TTGlyph name="V" xMin="-3" yMin="0" xMax="620" yMax="730">
      <contour>
        <pt x="536" y="730" on="1"/>
        <pt x="620" y="730" on="1"/>
        <pt x="620" y="678" on="1"/>
        <pt x="573" y="670" on="1"/>
        <pt x="360" y="0" on="1"/>
        <pt x="256" y="0" on="1"/>
        <pt x="43" y="670" on="1"/>
        <pt x="-3" y="678" on="1"/>
        <pt x="-3" y="730" on="1"/>
        <pt x="81" y="730" on="1"/>
        <pt x="107" y="730" on="0"/>
        <pt x="115" y="704" on="1"/>
        <pt x="306" y="81" on="1"/>
        <pt x="310" y="81" on="1"/>
        <pt x="502" y="704" on="1"/>
        <pt x="510" y="730" on="0"/>
      </contour>
    </TTGlyph>
    <TTGlyph name="W" xMin="-3" yMin="0" xMax="897" yMax="730">
      <contour>
        <pt x="814" y="730" on="1"/>
        <pt x="897" y="730" on="1"/>
        <pt x="897" y="678" on="1"/>
        <pt x="851" y="670" on="1"/>
        <pt x="705" y="0" on="1"/>
        <pt x="605" y="0" on="1"/>
        <pt x="447" y="663" on="1"/>
        <pt x="289" y="0" on="1"/>
        <pt x="189" y="0" on="1"/>
        <pt x="43" y="670" on="1"/>
        <pt x="-3" y="678" on="1"/>
        <pt x="-3" y="730" on="1"/>
        <pt x="81" y="730" on="1"/>
        <pt x="109" y="730" on="0"/>
        <pt x="115" y="704" on="1"/>
        <pt x="238" y="87" on="1"/>
        <pt x="243" y="87" on="1"/>
        <pt x="393" y="704" on="1"/>
        <pt x="399" y="730" on="0"/>
        <pt x="427" y="730" on="1"/>
        <pt x="467" y="730" on="1"/>
        <pt x="495" y="730" on="0"/>
        <pt x="501" y="704" on="1"/>
        <pt x="652" y="87" on="1"/>
        <pt x="656" y="87" on="1"/>
        <pt x="779" y="704" on="1"/>
        <pt x="785" y="730" on="0"/>
      </contour>
    </TTGlyph>
    <TTGlyph name="X" xMin="33" yMin="0" xMax="640" yMax="730">
      <contour>
        <pt x="537" y="730" on="1"/>
        <pt x="623" y="730" on="1"/>
        <pt x="623" y="679" on="1"/>
        <pt x="564" y="671" on="1"/>
        <pt x="384" y="378" on="1"/>
        <pt x="581" y="59" on="1"/>
        <pt x="640" y="52" on="1"/>
        <pt x="640" y="0" on="1"/>
        <pt x="548" y="0" on="1"/>
        <pt x="524" y="0" on="0"/>
        <pt x="511" y="20" on="1"/>
        <pt x="332" y="309" on="1"/>
        <pt x="157" y="21" on="1"/>
        <pt x="144" y="0" on="0"/>
        <pt x="120" y="0" on="1"/>
        <pt x="33" y="0" on="1"/>
        <pt x="33" y="52" on="1"/>
        <pt x="93" y="59" on="1"/>
        <pt x="289" y="379" on="1"/>
        <pt x="109" y="671" on="1"/>
        <pt x="50" y="679" on="1"/>
        <pt x="50" y="730" on="1"/>
        <pt x="142" y="730" on="1"/>
        <pt x="166" y="730" on="0"/>
        <pt x="179" y="709" on="1"/>
        <pt x="341" y="447" on="1"/>
        <pt x="501" y="709" on="1"/>
        <pt x="514" y="730" on="0"/>
      </contour>
    </TTGlyph>
    <TTGlyph name="Y" xMin="-3" yMin="0" xMax="550" yMax="730">
      <contour>
        <pt x="405" y="0" on="1"/>
        <pt x="145" y="0" on="1"/>
        <pt x="145" y="52" on="1"/>
        <pt x="235" y="59" on="1"/>
        <pt x="235" y="259" on="1"/>
        <pt x="52" y="670" on="1"/>
        <pt x="-3" y="678" on="1"/>
        <pt x="-3" y="730" on="1"/>
        <pt x="89" y="730" on="1"/>
        <pt x="116" y="730" on="0"/>
        <pt x="126" y="707" on="1"/>
        <pt x="275" y="347" on="1"/>
        <pt x="422" y="707" on="1"/>
        <pt x="432" y="730" on="0"/>
        <pt x="459" y="730" on="1"/>
        <pt x="550" y="730" on="1"/>
        <pt x="550" y="678" on="1"/>
        <pt x="495" y="670" on="1"/>
        <pt x="315" y="262" on="1"/>
        <pt x="315" y="59" on="1"/>
        <pt x="405" y="52" on="1"/>
      </contour>
    </TTGlyph>
    <TTGlyph name="Yacute" xMin="-3" yMin="0" xMax="550" yMax="967">
      <contour>
        <pt x="405" y="0" on="1"/>
        <pt x="145" y="0" on="1"/>
        <pt x="145" y="52" on="1"/>
        <pt x="235" y="59" on="1"/>
        <pt x="235" y="259" on="1"/>
        <pt x="52" y="670" on="1"/>
        <pt x="-3" y="678" on="1"/>
        <pt x="-3" y="730" on="1"/>
        <pt x="89" y="730" on="1"/>
        <pt x="116" y="730" on="0"/>
        <pt x="126" y="707" on="1"/>
        <pt x="275" y="347" on="1"/>
        <pt x="422" y="707" on="1"/>
        <pt x="432" y="730" on="0"/>
        <pt x="459" y="730" on="1"/>
        <pt x="550" y="730" on="1"/>
        <pt x="550" y="678" on="1"/>
        <pt x="495" y="670" on="1"/>
        <pt x="315" y="262" on="1"/>
        <pt x="315" y="59" on="1"/>
        <pt x="405" y="52" on="1"/>
      </contour>
      <contour>
        <pt x="409" y="900" on="1"/>
        <pt x="207" y="795" on="1"/>
        <pt x="179" y="841" on="1"/>
        <pt x="371" y="967" on="1"/>
      </contour>
    </TTGlyph>
    <TTGlyph name="Ydieresis" xMin="-3" yMin="0" xMax="550" yMax="924">
      <contour>
        <pt x="405" y="0" on="1"/>
        <pt x="145" y="0" on="1"/>
        <pt x="145" y="52" on="1"/>
        <pt x="235" y="59" on="1"/>
        <pt x="235" y="259" on="1"/>
        <pt x="52" y="670" on="1"/>
        <pt x="-3" y="678" on="1"/>
        <pt x="-3" y="730" on="1"/>
        <pt x="89" y="730" on="1"/>
        <pt x="116" y="730" on="0"/>
        <pt x="126" y="707" on="1"/>
        <pt x="275" y="347" on="1"/>
        <pt x="422" y="707" on="1"/>
        <pt x="432" y="730" on="0"/>
        <pt x="459" y="730" on="1"/>
        <pt x="550" y="730" on="1"/>
        <pt x="550" y="678" on="1"/>
        <pt x="495" y="670" on="1"/>
        <pt x="315" y="262" on="1"/>
        <pt x="315" y="59" on="1"/>
        <pt x="405" y="52" on="1"/>
      </contour>
      <contour>
        <pt x="122" y="854" on="0"/>
        <pt x="122" y="894" on="0"/>
        <pt x="152" y="924" on="0"/>
        <pt x="192" y="924" on="0"/>
        <pt x="222" y="894" on="0"/>
        <pt x="222" y="854" on="0"/>
        <pt x="192" y="824" on="0"/>
        <pt x="152" y="824" on="0"/>
      </contour>
      <contour>
        <pt x="327" y="854" on="0"/>
        <pt x="327" y="894" on="0"/>
        <pt x="357" y="924" on="0"/>
        <pt x="397" y="924" on="0"/>
        <pt x="427" y="894" on="0"/>
        <pt x="427" y="854" on="0"/>
        <pt x="397" y="824" on="0"/>
        <pt x="357" y="824" on="0"/>
      </contour>
    </TTGlyph>
    <TTGlyph name="Z" xMin="57" yMin="0" xMax="544" yMax="730">
      <contour>
        <pt x="544" y="167" on="1"/>
        <pt x="544" y="31" on="1"/>
        <pt x="544" y="0" on="0"/>
        <pt x="513" y="0" on="1"/>
        <pt x="57" y="0" on="1"/>
        <pt x="57" y="48" on="1"/>
        <pt x="455" y="675" on="1"/>
        <pt x="137" y="675" on="1"/>
        <pt x="129" y="563" on="1"/>
        <pt x="77" y="563" on="1"/>
        <pt x="77" y="699" on="1"/>
        <pt x="77" y="730" on="0"/>
        <pt x="108" y="730" on="1"/>
        <pt x="544" y="730" on="1"/>
        <pt x="544" y="682" on="1"/>
        <pt x="146" y="55" on="1"/>
        <pt x="484" y="55" on="1"/>
        <pt x="491" y="167" on="1"/>
      </contour>
    </TTGlyph>
    <TTGlyph name="Zcaron" xMin="57" yMin="0" xMax="544" yMax="978">
      <contour>
        <pt x="544" y="167" on="1"/>
        <pt x="544" y="31" on="1"/>
        <pt x="544" y="0" on="0"/>
        <pt x="513" y="0" on="1"/>
        <pt x="57" y="0" on="1"/>
        <pt x="57" y="48" on="1"/>
        <pt x="455" y="675" on="1"/>
        <pt x="137" y="675" on="1"/>
        <pt x="129" y="563" on="1"/>
        <pt x="77" y="563" on="1"/>
        <pt x="77" y="699" on="1"/>
        <pt x="77" y="730" on="0"/>
        <pt x="108" y="730" on="1"/>
        <pt x="544" y="730" on="1"/>
        <pt x="544" y="682" on="1"/>
        <pt x="146" y="55" on="1"/>
        <pt x="484" y="55" on="1"/>
        <pt x="491" y="167" on="1"/>
      </contour>
      <contour>
        <pt x="432" y="978" on="1"/>
        <pt x="464" y="945" on="1"/>
        <pt x="341" y="802" on="1"/>
        <pt x="299" y="802" on="1"/>
        <pt x="177" y="945" on="1"/>
        <pt x="209" y="978" on="1"/>
        <pt x="320" y="880" on="1"/>
      </contour>
    </TTGlyph>
    <TTGlyph name="a" xMin="52" yMin="-14" xMax="574" yMax="586">
      <contour>
        <pt x="403" y="99" on="1"/>
        <pt x="403" y="113" on="1"/>
        <pt x="338" y="-14" on="0"/>
        <pt x="199" y="-14" on="1"/>
        <pt x="132" y="-14" on="0"/>
        <pt x="52" y="68" on="0"/>
        <pt x="52" y="139" on="1"/>
        <pt x="52" y="236" on="0"/>
        <pt x="212" y="334" on="0"/>
        <pt x="403" y="334" on="1"/>
        <pt x="403" y="376" on="1"/>
        <pt x="403" y="462" on="0"/>
        <pt x="341" y="526" on="0"/>
        <pt x="202" y="526" on="0"/>
        <pt x="116" y="478" on="1"/>
        <pt x="90" y="538" on="1"/>
        <pt x="193" y="586" on="0"/>
        <pt x="286" y="586" on="1"/>
        <pt x="431" y="586" on="0"/>
        <pt x="467" y="484" on="1"/>
        <pt x="482" y="442" on="0"/>
        <pt x="482" y="382" on="1"/>
        <pt x="482" y="108" on="1"/>
        <pt x="482" y="53" on="0"/>
        <pt x="524" y="53" on="1"/>
        <pt x="538" y="53" on="0"/>
        <pt x="565" y="59" on="1"/>
        <pt x="574" y="-1" on="1"/>
        <pt x="535" y="-14" on="0"/>
        <pt x="498" y="-14" on="1"/>
        <pt x="403" y="-14" on="0"/>
      </contour>
      <contour>
        <pt x="403" y="283" on="1"/>
        <pt x="127" y="283" on="0"/>
        <pt x="127" y="145" on="1"/>
        <pt x="127" y="99" on="0"/>
        <pt x="178" y="48" on="0"/>
        <pt x="224" y="48" on="1"/>
        <pt x="296" y="48" on="0"/>
        <pt x="400" y="164" on="0"/>
        <pt x="403" y="271" on="1"/>
      </contour>
    </TTGlyph>
    <TTGlyph name="aacute" xMin="52" yMin="-14" xMax="574" yMax="809">
      <contour>
        <pt x="403" y="99" on="1"/>
        <pt x="403" y="113" on="1"/>
        <pt x="338" y="-14" on="0"/>
        <pt x="199" y="-14" on="1"/>
        <pt x="132" y="-14" on="0"/>
        <pt x="52" y="68" on="0"/>
        <pt x="52" y="139" on="1"/>
        <pt x="52" y="236" on="0"/>
        <pt x="212" y="334" on="0"/>
        <pt x="403" y="334" on="1"/>
        <pt x="403" y="376" on="1"/>
        <pt x="403" y="462" on="0"/>
        <pt x="341" y="526" on="0"/>
        <pt x="202" y="526" on="0"/>
        <pt x="116" y="478" on="1"/>
        <pt x="90" y="538" on="1"/>
        <pt x="193" y="586" on="0"/>
        <pt x="286" y="586" on="1"/>
        <pt x="431" y="586" on="0"/>
        <pt x="467" y="484" on="1"/>
        <pt x="482" y="442" on="0"/>
        <pt x="482" y="382" on="1"/>
        <pt x="482" y="108" on="1"/>
        <pt x="482" y="53" on="0"/>
        <pt x="524" y="53" on="1"/>
        <pt x="538" y="53" on="0"/>
        <pt x="565" y="59" on="1"/>
        <pt x="574" y="-1" on="1"/>
        <pt x="535" y="-14" on="0"/>
        <pt x="498" y="-14" on="1"/>
        <pt x="403" y="-14" on="0"/>
      </contour>
      <contour>
        <pt x="403" y="283" on="1"/>
        <pt x="127" y="283" on="0"/>
        <pt x="127" y="145" on="1"/>
        <pt x="127" y="99" on="0"/>
        <pt x="178" y="48" on="0"/>
        <pt x="224" y="48" on="1"/>
        <pt x="296" y="48" on="0"/>
        <pt x="400" y="164" on="0"/>
        <pt x="403" y="271" on="1"/>
      </contour>
      <contour>
        <pt x="413" y="742" on="1"/>
        <pt x="211" y="637" on="1"/>
        <pt x="183" y="683" on="1"/>
        <pt x="375" y="809" on="1"/>
      </contour>
    </TTGlyph>
    <TTGlyph name="acircumflex" xMin="52" yMin="-14" xMax="574" yMax="810">
      <contour>
        <pt x="403" y="99" on="1"/>
        <pt x="403" y="113" on="1"/>
        <pt x="338" y="-14" on="0"/>
        <pt x="199" y="-14" on="1"/>
        <pt x="132" y="-14" on="0"/>
        <pt x="52" y="68" on="0"/>
        <pt x="52" y="139" on="1"/>
        <pt x="52" y="236" on="0"/>
        <pt x="212" y="334" on="0"/>
        <pt x="403" y="334" on="1"/>
        <pt x="403" y="376" on="1"/>
        <pt x="403" y="462" on="0"/>
        <pt x="341" y="526" on="0"/>
        <pt x="202" y="526" on="0"/>
        <pt x="116" y="478" on="1"/>
        <pt x="90" y="538" on="1"/>
        <pt x="193" y="586" on="0"/>
        <pt x="286" y="586" on="1"/>
        <pt x="431" y="586" on="0"/>
        <pt x="467" y="484" on="1"/>
        <pt x="482" y="442" on="0"/>
        <pt x="482" y="382" on="1"/>
        <pt x="482" y="108" on="1"/>
        <pt x="482" y="53" on="0"/>
        <pt x="524" y="53" on="1"/>
        <pt x="538" y="53" on="0"/>
        <pt x="565" y="59" on="1"/>
        <pt x="574" y="-1" on="1"/>
        <pt x="535" y="-14" on="0"/>
        <pt x="498" y="-14" on="1"/>
        <pt x="403" y="-14" on="0"/>
      </contour>
      <contour>
        <pt x="403" y="283" on="1"/>
        <pt x="127" y="283" on="0"/>
        <pt x="127" y="145" on="1"/>
        <pt x="127" y="99" on="0"/>
        <pt x="178" y="48" on="0"/>
        <pt x="224" y="48" on="1"/>
        <pt x="296" y="48" on="0"/>
        <pt x="400" y="164" on="0"/>
        <pt x="403" y="271" on="1"/>
      </contour>
      <contour>
        <pt x="434" y="667" on="1"/>
        <pt x="402" y="634" on="1"/>
        <pt x="290" y="732" on="1"/>
        <pt x="179" y="634" on="1"/>
        <pt x="147" y="667" on="1"/>
        <pt x="269" y="810" on="1"/>
        <pt x="311" y="810" on="1"/>
      </contour>
    </TTGlyph>
    <TTGlyph name="acute" xMin="50" yMin="637" xMax="280" yMax="809">
      <contour>
        <pt x="280" y="742" on="1"/>
        <pt x="78" y="637" on="1"/>
        <pt x="50" y="683" on="1"/>
        <pt x="242" y="809" on="1"/>
      </contour>
    </TTGlyph>
    <TTGlyph name="adieresis" xMin="52" yMin="-14" xMax="574" yMax="766">
      <contour>
        <pt x="403" y="99" on="1"/>
        <pt x="403" y="113" on="1"/>
        <pt x="338" y="-14" on="0"/>
        <pt x="199" y="-14" on="1"/>
        <pt x="132" y="-14" on="0"/>
        <pt x="52" y="68" on="0"/>
        <pt x="52" y="139" on="1"/>
        <pt x="52" y="236" on="0"/>
        <pt x="212" y="334" on="0"/>
        <pt x="403" y="334" on="1"/>
        <pt x="403" y="376" on="1"/>
        <pt x="403" y="462" on="0"/>
        <pt x="341" y="526" on="0"/>
        <pt x="202" y="526" on="0"/>
        <pt x="116" y="478" on="1"/>
        <pt x="90" y="538" on="1"/>
        <pt x="193" y="586" on="0"/>
        <pt x="286" y="586" on="1"/>
        <pt x="431" y="586" on="0"/>
        <pt x="467" y="484" on="1"/>
        <pt x="482" y="442" on="0"/>
        <pt x="482" y="382" on="1"/>
        <pt x="482" y="108" on="1"/>
        <pt x="482" y="53" on="0"/>
        <pt x="524" y="53" on="1"/>
        <pt x="538" y="53" on="0"/>
        <pt x="565" y="59" on="1"/>
        <pt x="574" y="-1" on="1"/>
        <pt x="535" y="-14" on="0"/>
        <pt x="498" y="-14" on="1"/>
        <pt x="403" y="-14" on="0"/>
      </contour>
      <contour>
        <pt x="403" y="283" on="1"/>
        <pt x="127" y="283" on="0"/>
        <pt x="127" y="145" on="1"/>
        <pt x="127" y="99" on="0"/>
        <pt x="178" y="48" on="0"/>
        <pt x="224" y="48" on="1"/>
        <pt x="296" y="48" on="0"/>
        <pt x="400" y="164" on="0"/>
        <pt x="403" y="271" on="1"/>
      </contour>
      <contour>
        <pt x="145" y="696" on="0"/>
        <pt x="145" y="736" on="0"/>
        <pt x="175" y="766" on="0"/>
        <pt x="215" y="766" on="0"/>
        <pt x="245" y="736" on="0"/>
        <pt x="245" y="696" on="0"/>
        <pt x="215" y="666" on="0"/>
        <pt x="175" y="666" on="0"/>
      </contour>
      <contour>
        <pt x="350" y="696" on="0"/>
        <pt x="350" y="736" on="0"/>
        <pt x="380" y="766" on="0"/>
        <pt x="420" y="766" on="0"/>
        <pt x="450" y="736" on="0"/>
        <pt x="450" y="696" on="0"/>
        <pt x="420" y="666" on="0"/>
        <pt x="380" y="666" on="0"/>
      </contour>
    </TTGlyph>
    <TTGlyph name="ae" xMin="52" yMin="-14" xMax="876" yMax="586">
      <contour>
        <pt x="876" y="269" on="1"/>
        <pt x="482" y="269" on="1"/>
        <pt x="482" y="158" on="0"/>
        <pt x="538" y="96" on="1"/>
        <pt x="582" y="47" on="0"/>
        <pt x="735" y="47" on="0"/>
        <pt x="823" y="92" on="1"/>
        <pt x="848" y="34" on="1"/>
        <pt x="747" y="-14" on="0"/>
        <pt x="657" y="-14" on="1"/>
        <pt x="490" y="-14" on="0"/>
        <pt x="429" y="138" on="1"/>
        <pt x="402" y="58" on="0"/>
        <pt x="284" y="-14" on="0"/>
        <pt x="137" y="-14" on="0"/>
        <pt x="52" y="65" on="0"/>
        <pt x="52" y="136" on="1"/>
        <pt x="52" y="230" on="0"/>
        <pt x="201" y="325" on="0"/>
        <pt x="381" y="325" on="1"/>
        <pt x="403" y="325" on="1"/>
        <pt x="403" y="376" on="1"/>
        <pt x="403" y="462" on="0"/>
        <pt x="341" y="526" on="0"/>
        <pt x="202" y="526" on="0"/>
        <pt x="116" y="478" on="1"/>
        <pt x="90" y="538" on="1"/>
        <pt x="193" y="586" on="0"/>
        <pt x="286" y="586" on="1"/>
        <pt x="420" y="586" on="0"/>
        <pt x="461" y="496" on="1"/>
        <pt x="525" y="586" on="0"/>
        <pt x="648" y="586" on="1"/>
        <pt x="755" y="586" on="0"/>
        <pt x="876" y="440" on="0"/>
        <pt x="876" y="318" on="1"/>
      </contour>
      <contour>
        <pt x="797" y="416" on="0"/>
        <pt x="717" y="525" on="0"/>
        <pt x="567" y="525" on="0"/>
        <pt x="491" y="411" on="0"/>
        <pt x="484" y="325" on="1"/>
        <pt x="797" y="325" on="1"/>
      </contour>
      <contour>
        <pt x="403" y="268" on="1"/>
        <pt x="263" y="268" on="0"/>
        <pt x="127" y="213" on="0"/>
        <pt x="127" y="141" on="1"/>
        <pt x="127" y="97" on="0"/>
        <pt x="181" y="48" on="0"/>
        <pt x="230" y="48" on="1"/>
        <pt x="304" y="48" on="0"/>
        <pt x="403" y="157" on="0"/>
      </contour>
    </TTGlyph>
    <TTGlyph name="agrave" xMin="52" yMin="-14" xMax="574" yMax="809">
      <contour>
        <pt x="403" y="99" on="1"/>
        <pt x="403" y="113" on="1"/>
        <pt x="338" y="-14" on="0"/>
        <pt x="199" y="-14" on="1"/>
        <pt x="132" y="-14" on="0"/>
        <pt x="52" y="68" on="0"/>
        <pt x="52" y="139" on="1"/>
        <pt x="52" y="236" on="0"/>
        <pt x="212" y="334" on="0"/>
        <pt x="403" y="334" on="1"/>
        <pt x="403" y="376" on="1"/>
        <pt x="403" y="462" on="0"/>
        <pt x="341" y="526" on="0"/>
        <pt x="202" y="526" on="0"/>
        <pt x="116" y="478" on="1"/>
        <pt x="90" y="538" on="1"/>
        <pt x="193" y="586" on="0"/>
        <pt x="286" y="586" on="1"/>
        <pt x="431" y="586" on="0"/>
        <pt x="467" y="484" on="1"/>
        <pt x="482" y="442" on="0"/>
        <pt x="482" y="382" on="1"/>
        <pt x="482" y="108" on="1"/>
        <pt x="482" y="53" on="0"/>
        <pt x="524" y="53" on="1"/>
        <pt x="538" y="53" on="0"/>
        <pt x="565" y="59" on="1"/>
        <pt x="574" y="-1" on="1"/>
        <pt x="535" y="-14" on="0"/>
        <pt x="498" y="-14" on="1"/>
        <pt x="403" y="-14" on="0"/>
      </contour>
      <contour>
        <pt x="403" y="283" on="1"/>
        <pt x="127" y="283" on="0"/>
        <pt x="127" y="145" on="1"/>
        <pt x="127" y="99" on="0"/>
        <pt x="178" y="48" on="0"/>
        <pt x="224" y="48" on="1"/>
        <pt x="296" y="48" on="0"/>
        <pt x="400" y="164" on="0"/>
        <pt x="403" y="271" on="1"/>
      </contour>
      <contour>
        <pt x="385" y="637" on="1"/>
        <pt x="182" y="742" on="1"/>
        <pt x="221" y="809" on="1"/>
        <pt x="412" y="683" on="1"/>
      </contour>
    </TTGlyph>
    <TTGlyph name="ampersand" xMin="76" yMin="-14" xMax="646" yMax="744">
      <contour>
        <pt x="514" y="627" on="1"/>
        <pt x="415" y="683" on="0"/>
        <pt x="253" y="683" on="0"/>
        <pt x="172" y="609" on="0"/>
        <pt x="172" y="470" on="0"/>
        <pt x="276" y="396" on="0"/>
        <pt x="349" y="396" on="1"/>
        <pt x="646" y="396" on="1"/>
        <pt x="643" y="343" on="1"/>
        <pt x="537" y="343" on="1"/>
        <pt x="537" y="219" on="1"/>
        <pt x="537" y="113" on="0"/>
        <pt x="416" y="-14" on="0"/>
        <pt x="199" y="-14" on="0"/>
        <pt x="76" y="96" on="0"/>
        <pt x="76" y="197" on="1"/>
        <pt x="76" y="258" on="0"/>
        <pt x="148" y="357" on="0"/>
        <pt x="217" y="374" on="1"/>
        <pt x="156" y="395" on="0"/>
        <pt x="93" y="486" on="0"/>
        <pt x="93" y="542" on="1"/>
        <pt x="93" y="639" on="0"/>
        <pt x="215" y="744" on="0"/>
        <pt x="430" y="744" on="0"/>
        <pt x="540" y="687" on="1"/>
      </contour>
      <contour>
        <pt x="465" y="219" on="1"/>
        <pt x="465" y="343" on="1"/>
        <pt x="348" y="343" on="1"/>
        <pt x="155" y="343" on="0"/>
        <pt x="155" y="195" on="1"/>
        <pt x="155" y="125" on="0"/>
        <pt x="236" y="46" on="0"/>
        <pt x="383" y="46" on="0"/>
        <pt x="465" y="142" on="0"/>
      </contour>
    </TTGlyph>
    <TTGlyph name="apple" xMin="100" yMin="-114" xMax="823" yMax="608">
      <contour>
        <pt x="589" y="-89" on="1"/>
        <pt x="566" y="-88" on="1"/>
        <pt x="552" y="-88" on="0"/>
        <pt x="517" y="-112" on="0"/>
        <pt x="508" y="-112" on="1"/>
        <pt x="462" y="-102" on="1"/>
        <pt x="454" y="-102" on="0"/>
        <pt x="423" y="-114" on="0"/>
        <pt x="406" y="-114" on="0"/>
        <pt x="374" y="-89" on="0"/>
        <pt x="361" y="-89" on="1"/>
        <pt x="337" y="-91" on="1"/>
        <pt x="322" y="-91" on="0"/>
        <pt x="304" y="-74" on="1"/>
        <pt x="286" y="-55" on="1"/>
        <pt x="274" y="-49" on="0"/>
        <pt x="248" y="-47" on="0"/>
        <pt x="230" y="-36" on="0"/>
        <pt x="216" y="-1" on="0"/>
        <pt x="205" y="8" on="0"/>
        <pt x="177" y="19" on="0"/>
        <pt x="171" y="28" on="1"/>
        <pt x="166" y="37" on="0"/>
        <pt x="162" y="66" on="0"/>
        <pt x="154" y="79" on="0"/>
        <pt x="144" y="86" on="1"/>
        <pt x="122" y="104" on="0"/>
        <pt x="122" y="124" on="1"/>
        <pt x="125" y="149" on="1"/>
        <pt x="125" y="158" on="0"/>
        <pt x="100" y="193" on="0"/>
        <pt x="100" y="211" on="0"/>
        <pt x="112" y="240" on="0"/>
        <pt x="112" y="257" on="0"/>
        <pt x="100" y="283" on="0"/>
        <pt x="100" y="301" on="0"/>
        <pt x="125" y="342" on="0"/>
        <pt x="125" y="351" on="1"/>
        <pt x="124" y="376" on="1"/>
        <pt x="124" y="391" on="0"/>
        <pt x="157" y="420" on="0"/>
        <pt x="162" y="430" on="0"/>
        <pt x="166" y="462" on="0"/>
        <pt x="174" y="474" on="0"/>
        <pt x="205" y="486" on="0"/>
        <pt x="215" y="496" on="0"/>
        <pt x="229" y="527" on="0"/>
        <pt x="242" y="538" on="0"/>
        <pt x="280" y="546" on="0"/>
        <pt x="291" y="552" on="0"/>
        <pt x="321" y="586" on="0"/>
        <pt x="335" y="587" on="1"/>
        <pt x="361" y="585" on="1"/>
        <pt x="374" y="585" on="0"/>
        <pt x="405" y="608" on="0"/>
        <pt x="416" y="608" on="1"/>
        <pt x="460" y="596" on="1"/>
        <pt x="505" y="608" on="1"/>
        <pt x="518" y="608" on="0"/>
        <pt x="550" y="583" on="0"/>
        <pt x="562" y="583" on="1"/>
        <pt x="590" y="586" on="1"/>
        <pt x="606" y="586" on="0"/>
        <pt x="632" y="553" on="0"/>
        <pt x="645" y="546" on="0"/>
        <pt x="675" y="540" on="0"/>
        <pt x="690" y="530" on="0"/>
        <pt x="700" y="502" on="0"/>
        <pt x="711" y="492" on="0"/>
        <pt x="751" y="471" on="0"/>
        <pt x="760" y="455" on="0"/>
        <pt x="761" y="423" on="0"/>
        <pt x="766" y="414" on="0"/>
        <pt x="800" y="385" on="0"/>
        <pt x="800" y="369" on="1"/>
        <pt x="799" y="344" on="1"/>
        <pt x="799" y="331" on="0"/>
        <pt x="823" y="294" on="0"/>
        <pt x="823" y="276" on="0"/>
        <pt x="812" y="250" on="0"/>
        <pt x="812" y="236" on="0"/>
        <pt x="823" y="207" on="0"/>
        <pt x="822" y="191" on="0"/>
        <pt x="798" y="166" on="0"/>
        <pt x="798" y="152" on="1"/>
        <pt x="800" y="120" on="1"/>
        <pt x="800" y="104" on="0"/>
        <pt x="768" y="78" on="0"/>
        <pt x="763" y="68" on="0"/>
        <pt x="754" y="30" on="0"/>
        <pt x="743" y="17" on="0"/>
        <pt x="718" y="6" on="0"/>
        <pt x="708" y="-4" on="0"/>
        <pt x="690" y="-37" on="0"/>
        <pt x="676" y="-47" on="0"/>
        <pt x="641" y="-56" on="0"/>
        <pt x="631" y="-62" on="0"/>
        <pt x="604" y="-89" on="0"/>
      </contour>
      <contour>
        <pt x="462" y="-6" on="1"/>
        <pt x="495" y="-13" on="1"/>
        <pt x="501" y="-13" on="0"/>
        <pt x="512" y="-6" on="1"/>
        <pt x="527" y="4" on="0"/>
        <pt x="539" y="4" on="1"/>
        <pt x="554" y="3" on="1"/>
        <pt x="566" y="3" on="0"/>
        <pt x="584" y="23" on="0"/>
        <pt x="591" y="27" on="0"/>
        <pt x="617" y="34" on="0"/>
        <pt x="628" y="42" on="0"/>
        <pt x="641" y="65" on="0"/>
        <pt x="648" y="72" on="0"/>
        <pt x="666" y="80" on="0"/>
        <pt x="674" y="89" on="0"/>
        <pt x="680" y="117" on="0"/>
        <pt x="685" y="125" on="0"/>
        <pt x="707" y="143" on="0"/>
        <pt x="707" y="157" on="1"/>
        <pt x="706" y="177" on="1"/>
        <pt x="706" y="188" on="0"/>
        <pt x="723" y="207" on="0"/>
        <pt x="724" y="213" on="1"/>
        <pt x="716" y="245" on="1"/>
        <pt x="724" y="273" on="1"/>
        <pt x="724" y="281" on="0"/>
        <pt x="706" y="309" on="0"/>
        <pt x="706" y="318" on="1"/>
        <pt x="707" y="335" on="1"/>
        <pt x="707" y="347" on="0"/>
        <pt x="683" y="367" on="0"/>
        <pt x="679" y="375" on="0"/>
        <pt x="678" y="398" on="0"/>
        <pt x="672" y="409" on="0"/>
        <pt x="643" y="424" on="0"/>
        <pt x="635" y="432" on="0"/>
        <pt x="627" y="452" on="0"/>
        <pt x="617" y="460" on="0"/>
        <pt x="595" y="464" on="0"/>
        <pt x="585" y="469" on="0"/>
        <pt x="567" y="493" on="0"/>
        <pt x="555" y="493" on="1"/>
        <pt x="535" y="491" on="1"/>
        <pt x="526" y="491" on="0"/>
        <pt x="504" y="509" on="0"/>
        <pt x="494" y="509" on="1"/>
        <pt x="461" y="500" on="1"/>
        <pt x="429" y="509" on="1"/>
        <pt x="421" y="509" on="0"/>
        <pt x="397" y="492" on="0"/>
        <pt x="387" y="492" on="1"/>
        <pt x="370" y="493" on="1"/>
        <pt x="359" y="493" on="0"/>
        <pt x="338" y="468" on="0"/>
        <pt x="329" y="463" on="0"/>
        <pt x="303" y="458" on="0"/>
        <pt x="293" y="450" on="0"/>
        <pt x="283" y="428" on="0"/>
        <pt x="275" y="420" on="0"/>
        <pt x="254" y="412" on="0"/>
        <pt x="250" y="407" on="1"/>
        <pt x="248" y="403" on="0"/>
        <pt x="244" y="380" on="0"/>
        <pt x="240" y="372" on="0"/>
        <pt x="216" y="351" on="0"/>
        <pt x="216" y="340" on="1"/>
        <pt x="217" y="324" on="1"/>
        <pt x="217" y="316" on="0"/>
        <pt x="200" y="286" on="0"/>
        <pt x="200" y="278" on="1"/>
        <pt x="208" y="248" on="1"/>
        <pt x="200" y="215" on="1"/>
        <pt x="200" y="207" on="0"/>
        <pt x="217" y="182" on="0"/>
        <pt x="217" y="174" on="1"/>
        <pt x="215" y="158" on="1"/>
        <pt x="215" y="147" on="0"/>
        <pt x="240" y="124" on="0"/>
        <pt x="244" y="116" on="0"/>
        <pt x="247" y="95" on="0"/>
        <pt x="255" y="82" on="0"/>
        <pt x="275" y="74" on="0"/>
        <pt x="283" y="67" on="0"/>
        <pt x="294" y="41" on="0"/>
        <pt x="306" y="33" on="0"/>
        <pt x="325" y="33" on="0"/>
        <pt x="337" y="27" on="0"/>
        <pt x="360" y="2" on="0"/>
        <pt x="371" y="2" on="1"/>
        <pt x="386" y="3" on="1"/>
        <pt x="396" y="3" on="0"/>
        <pt x="420" y="-14" on="0"/>
        <pt x="426" y="-15" on="1"/>
      </contour>
      <contour>
        <pt x="392" y="417" on="0"/>
        <pt x="532" y="417" on="0"/>
        <pt x="632" y="318" on="0"/>
        <pt x="632" y="176" on="0"/>
        <pt x="532" y="77" on="0"/>
        <pt x="392" y="77" on="0"/>
        <pt x="292" y="176" on="0"/>
        <pt x="292" y="318" on="0"/>
      </contour>
      <contour>
        <pt x="557" y="360" on="1"/>
        <pt x="366" y="360" on="1"/>
        <pt x="366" y="292" on="1"/>
        <pt x="420" y="292" on="1"/>
        <pt x="420" y="117" on="1"/>
        <pt x="505" y="117" on="1"/>
        <pt x="505" y="292" on="1"/>
        <pt x="557" y="292" on="1"/>
      </contour>
    </TTGlyph>
    <TTGlyph name="approxequal" xMin="95" yMin="214" xMax="489" yMax="512">
      <contour>
        <pt x="95" y="493" on="1"/>
        <pt x="129" y="469" on="0"/>
        <pt x="215" y="469" on="0"/>
        <pt x="368" y="512" on="0"/>
        <pt x="452" y="512" on="0"/>
        <pt x="489" y="493" on="1"/>
        <pt x="489" y="429" on="1"/>
        <pt x="451" y="450" on="0"/>
        <pt x="368" y="450" on="0"/>
        <pt x="215" y="407" on="0"/>
        <pt x="132" y="407" on="0"/>
        <pt x="95" y="429" on="1"/>
      </contour>
      <contour>
        <pt x="95" y="301" on="1"/>
        <pt x="129" y="277" on="0"/>
        <pt x="215" y="277" on="0"/>
        <pt x="368" y="320" on="0"/>
        <pt x="452" y="320" on="0"/>
        <pt x="489" y="301" on="1"/>
        <pt x="489" y="236" on="1"/>
        <pt x="451" y="257" on="0"/>
        <pt x="368" y="257" on="0"/>
        <pt x="215" y="214" on="0"/>
        <pt x="132" y="214" on="0"/>
        <pt x="95" y="236" on="1"/>
      </contour>
    </TTGlyph>
    <TTGlyph name="aring" xMin="52" yMin="-14" xMax="574" yMax="833">
      <contour>
        <pt x="403" y="99" on="1"/>
        <pt x="403" y="113" on="1"/>
        <pt x="338" y="-14" on="0"/>
        <pt x="199" y="-14" on="1"/>
        <pt x="132" y="-14" on="0"/>
        <pt x="52" y="68" on="0"/>
        <pt x="52" y="139" on="1"/>
        <pt x="52" y="236" on="0"/>
        <pt x="212" y="334" on="0"/>
        <pt x="403" y="334" on="1"/>
        <pt x="403" y="376" on="1"/>
        <pt x="403" y="462" on="0"/>
        <pt x="341" y="526" on="0"/>
        <pt x="202" y="526" on="0"/>
        <pt x="116" y="478" on="1"/>
        <pt x="90" y="538" on="1"/>
        <pt x="193" y="586" on="0"/>
        <pt x="286" y="586" on="1"/>
        <pt x="431" y="586" on="0"/>
        <pt x="467" y="484" on="1"/>
        <pt x="482" y="442" on="0"/>
        <pt x="482" y="382" on="1"/>
        <pt x="482" y="108" on="1"/>
        <pt x="482" y="53" on="0"/>
        <pt x="524" y="53" on="1"/>
        <pt x="538" y="53" on="0"/>
        <pt x="565" y="59" on="1"/>
        <pt x="574" y="-1" on="1"/>
        <pt x="535" y="-14" on="0"/>
        <pt x="498" y="-14" on="1"/>
        <pt x="403" y="-14" on="0"/>
      </contour>
      <contour>
        <pt x="403" y="283" on="1"/>
        <pt x="127" y="283" on="0"/>
        <pt x="127" y="145" on="1"/>
        <pt x="127" y="99" on="0"/>
        <pt x="178" y="48" on="0"/>
        <pt x="224" y="48" on="1"/>
        <pt x="296" y="48" on="0"/>
        <pt x="400" y="164" on="0"/>
        <pt x="403" y="271" on="1"/>
      </contour>
      <contour>
        <pt x="187" y="774" on="0"/>
        <pt x="244" y="833" on="0"/>
        <pt x="347" y="833" on="0"/>
        <pt x="410" y="770" on="0"/>
        <pt x="410" y="676" on="0"/>
        <pt x="351" y="618" on="0"/>
        <pt x="248" y="618" on="0"/>
        <pt x="187" y="680" on="0"/>
      </contour>
      <contour>
        <pt x="350" y="751" on="0"/>
        <pt x="320" y="787" on="0"/>
        <pt x="272" y="787" on="0"/>
        <pt x="245" y="753" on="0"/>
        <pt x="245" y="700" on="0"/>
        <pt x="274" y="663" on="0"/>
        <pt x="323" y="663" on="0"/>
        <pt x="350" y="697" on="0"/>
      </contour>
    </TTGlyph>
    <TTGlyph name="asciicircum" xMin="103" yMin="316" xMax="482" yMax="618">
      <contour>
        <pt x="482" y="316" on="1"/>
        <pt x="410" y="316" on="1"/>
        <pt x="292" y="561" on="1"/>
        <pt x="174" y="316" on="1"/>
        <pt x="103" y="316" on="1"/>
        <pt x="251" y="618" on="1"/>
        <pt x="333" y="618" on="1"/>
      </contour>
    </TTGlyph>
    <TTGlyph name="asciitilde" xMin="95" yMin="311" xMax="489" yMax="416">
      <contour>
        <pt x="95" y="397" on="1"/>
        <pt x="129" y="373" on="0"/>
        <pt x="215" y="373" on="0"/>
        <pt x="368" y="416" on="0"/>
        <pt x="452" y="416" on="0"/>
        <pt x="489" y="397" on="1"/>
        <pt x="489" y="333" on="1"/>
        <pt x="451" y="354" on="0"/>
        <pt x="368" y="354" on="0"/>
        <pt x="215" y="311" on="0"/>
        <pt x="132" y="311" on="0"/>
        <pt x="95" y="333" on="1"/>
      </contour>
    </TTGlyph>
    <TTGlyph name="asterisk" xMin="48" yMin="351" xMax="490" yMax="769">
      <contour>
        <pt x="308" y="769" on="1"/>
        <pt x="294" y="584" on="1"/>
        <pt x="466" y="654" on="1"/>
        <pt x="490" y="581" on="1"/>
        <pt x="308" y="536" on="1"/>
        <pt x="427" y="399" on="1"/>
        <pt x="364" y="351" on="1"/>
        <pt x="268" y="504" on="1"/>
        <pt x="174" y="351" on="1"/>
        <pt x="111" y="396" on="1"/>
        <pt x="229" y="536" on="1"/>
        <pt x="48" y="581" on="1"/>
        <pt x="72" y="654" on="1"/>
        <pt x="244" y="584" on="1"/>
        <pt x="230" y="769" on="1"/>
      </contour>
    </TTGlyph>
    <TTGlyph name="at" xMin="85" yMin="-92" xMax="984" yMax="799">
      <contour>
        <pt x="984" y="379" on="1"/>
        <pt x="984" y="251" on="0"/>
        <pt x="912" y="171" on="1"/>
        <pt x="887" y="144" on="0"/>
        <pt x="811" y="110" on="0"/>
        <pt x="764" y="110" on="1"/>
        <pt x="661" y="110" on="0"/>
        <pt x="629" y="206" on="1"/>
        <pt x="574" y="124" on="0"/>
        <pt x="481" y="124" on="1"/>
        <pt x="405" y="124" on="0"/>
        <pt x="327" y="248" on="0"/>
        <pt x="327" y="338" on="1"/>
        <pt x="327" y="435" on="0"/>
        <pt x="369" y="507" on="1"/>
        <pt x="390" y="543" on="0"/>
        <pt x="465" y="586" on="0"/>
        <pt x="579" y="586" on="0"/>
        <pt x="638" y="550" on="1"/>
        <pt x="674" y="586" on="1"/>
        <pt x="701" y="586" on="0"/>
        <pt x="699" y="559" on="1"/>
        <pt x="685" y="313" on="1"/>
        <pt x="684" y="302" on="0"/>
        <pt x="684" y="293" on="1"/>
        <pt x="684" y="229" on="0"/>
        <pt x="733" y="164" on="0"/>
        <pt x="777" y="164" on="1"/>
        <pt x="841" y="164" on="0"/>
        <pt x="912" y="279" on="0"/>
        <pt x="912" y="479" on="0"/>
        <pt x="837" y="638" on="0"/>
        <pt x="673" y="738" on="0"/>
        <pt x="425" y="738" on="0"/>
        <pt x="334" y="681" on="1"/>
        <pt x="158" y="572" on="0"/>
        <pt x="158" y="331" on="1"/>
        <pt x="158" y="114" on="0"/>
        <pt x="314" y="19" on="1"/>
        <pt x="396" y="-31" on="0"/>
        <pt x="514" y="-31" on="1"/>
        <pt x="674" y="-31" on="0"/>
        <pt x="781" y="56" on="1"/>
        <pt x="819" y="6" on="1"/>
        <pt x="699" y="-92" on="0"/>
        <pt x="511" y="-92" on="1"/>
        <pt x="404" y="-92" on="0"/>
        <pt x="238" y="-25" on="0"/>
        <pt x="188" y="34" on="1"/>
        <pt x="85" y="152" on="0"/>
        <pt x="85" y="328" on="1"/>
        <pt x="85" y="522" on="0"/>
        <pt x="200" y="657" on="1"/>
        <pt x="257" y="723" on="0"/>
        <pt x="441" y="799" on="0"/>
        <pt x="665" y="799" on="0"/>
        <pt x="831" y="732" on="0"/>
        <pt x="882" y="674" on="1"/>
        <pt x="984" y="555" on="0"/>
      </contour>
      <contour>
        <pt x="529" y="532" on="1"/>
        <pt x="399" y="532" on="0"/>
        <pt x="399" y="336" on="1"/>
        <pt x="399" y="267" on="0"/>
        <pt x="447" y="178" on="0"/>
        <pt x="565" y="178" on="0"/>
        <pt x="613" y="241" on="1"/>
        <pt x="616" y="316" on="1"/>
        <pt x="626" y="506" on="1"/>
        <pt x="581" y="532" on="0"/>
      </contour>
    </TTGlyph>
    <TTGlyph name="atilde" xMin="52" yMin="-14" xMax="574" yMax="786">
      <contour>
        <pt x="403" y="99" on="1"/>
        <pt x="403" y="113" on="1"/>
        <pt x="338" y="-14" on="0"/>
        <pt x="199" y="-14" on="1"/>
        <pt x="132" y="-14" on="0"/>
        <pt x="52" y="68" on="0"/>
        <pt x="52" y="139" on="1"/>
        <pt x="52" y="236" on="0"/>
        <pt x="212" y="334" on="0"/>
        <pt x="403" y="334" on="1"/>
        <pt x="403" y="376" on="1"/>
        <pt x="403" y="462" on="0"/>
        <pt x="341" y="526" on="0"/>
        <pt x="202" y="526" on="0"/>
        <pt x="116" y="478" on="1"/>
        <pt x="90" y="538" on="1"/>
        <pt x="193" y="586" on="0"/>
        <pt x="286" y="586" on="1"/>
        <pt x="431" y="586" on="0"/>
        <pt x="467" y="484" on="1"/>
        <pt x="482" y="442" on="0"/>
        <pt x="482" y="382" on="1"/>
        <pt x="482" y="108" on="1"/>
        <pt x="482" y="53" on="0"/>
        <pt x="524" y="53" on="1"/>
        <pt x="538" y="53" on="0"/>
        <pt x="565" y="59" on="1"/>
        <pt x="574" y="-1" on="1"/>
        <pt x="535" y="-14" on="0"/>
        <pt x="498" y="-14" on="1"/>
        <pt x="403" y="-14" on="0"/>
      </contour>
      <contour>
        <pt x="403" y="283" on="1"/>
        <pt x="127" y="283" on="0"/>
        <pt x="127" y="145" on="1"/>
        <pt x="127" y="99" on="0"/>
        <pt x="178" y="48" on="0"/>
        <pt x="224" y="48" on="1"/>
        <pt x="296" y="48" on="0"/>
        <pt x="400" y="164" on="0"/>
        <pt x="403" y="271" on="1"/>
      </contour>
      <contour>
        <pt x="361" y="676" on="1"/>
        <pt x="336" y="676" on="0"/>
        <pt x="241" y="712" on="0"/>
        <pt x="227" y="712" on="1"/>
        <pt x="192" y="712" on="0"/>
        <pt x="180" y="669" on="1"/>
        <pt x="133" y="683" on="1"/>
        <pt x="159" y="778" on="0"/>
        <pt x="219" y="778" on="1"/>
        <pt x="243" y="778" on="0"/>
        <pt x="340" y="742" on="0"/>
        <pt x="354" y="742" on="1"/>
        <pt x="387" y="742" on="0"/>
        <pt x="400" y="786" on="1"/>
        <pt x="447" y="771" on="1"/>
        <pt x="423" y="676" on="0"/>
      </contour>
    </TTGlyph>
    <TTGlyph name="b" xMin="28" yMin="-14" xMax="565" yMax="770">
      <contour>
        <pt x="169" y="739" on="1"/>
        <pt x="169" y="494" on="1"/>
        <pt x="246" y="586" on="0"/>
        <pt x="353" y="586" on="1"/>
        <pt x="409" y="586" on="0"/>
        <pt x="495" y="532" on="0"/>
        <pt x="518" y="488" on="1"/>
        <pt x="565" y="399" on="0"/>
        <pt x="565" y="286" on="1"/>
        <pt x="565" y="180" on="0"/>
        <pt x="510" y="89" on="1"/>
        <pt x="483" y="43" on="0"/>
        <pt x="381" y="-14" on="0"/>
        <pt x="268" y="-14" on="0"/>
        <pt x="191" y="10" on="0"/>
        <pt x="158" y="38" on="1"/>
        <pt x="90" y="95" on="0"/>
        <pt x="90" y="235" on="1"/>
        <pt x="90" y="710" on="1"/>
        <pt x="28" y="718" on="1"/>
        <pt x="28" y="770" on="1"/>
        <pt x="139" y="770" on="1"/>
        <pt x="169" y="770" on="0"/>
      </contour>
      <contour>
        <pt x="169" y="237" on="1"/>
        <pt x="169" y="137" on="0"/>
        <pt x="251" y="47" on="0"/>
        <pt x="315" y="47" on="1"/>
        <pt x="398" y="47" on="0"/>
        <pt x="486" y="176" on="0"/>
        <pt x="486" y="286" on="1"/>
        <pt x="486" y="381" on="0"/>
        <pt x="454" y="449" on="1"/>
        <pt x="418" y="526" on="0"/>
        <pt x="239" y="526" on="0"/>
        <pt x="169" y="434" on="1"/>
      </contour>
    </TTGlyph>
    <TTGlyph name="backslash" xMin="0" yMin="-106" xMax="302" yMax="775">
      <contour>
        <pt x="302" y="-106" on="1"/>
        <pt x="240" y="-106" on="1"/>
        <pt x="0" y="775" on="1"/>
        <pt x="62" y="775" on="1"/>
      </contour>
    </TTGlyph>
    <TTGlyph name="bar" xMin="119" yMin="-106" xMax="202" yMax="775">
      <contour>
        <pt x="202" y="-106" on="1"/>
        <pt x="119" y="-106" on="1"/>
        <pt x="119" y="775" on="1"/>
        <pt x="202" y="775" on="1"/>
      </contour>
    </TTGlyph>
    <TTGlyph name="braceleft" xMin="47" yMin="-68" xMax="320" yMax="798">
      <contour>
        <pt x="195" y="587" on="1"/>
        <pt x="203" y="436" on="1"/>
        <pt x="203" y="406" on="0"/>
        <pt x="173" y="371" on="0"/>
        <pt x="149" y="369" on="1"/>
        <pt x="149" y="361" on="1"/>
        <pt x="173" y="359" on="0"/>
        <pt x="203" y="324" on="0"/>
        <pt x="203" y="294" on="1"/>
        <pt x="195" y="143" on="1"/>
        <pt x="195" y="-13" on="0"/>
        <pt x="320" y="-13" on="1"/>
        <pt x="320" y="-68" on="1"/>
        <pt x="113" y="-68" on="0"/>
        <pt x="113" y="135" on="1"/>
        <pt x="121" y="287" on="1"/>
        <pt x="121" y="314" on="0"/>
        <pt x="76" y="339" on="0"/>
        <pt x="47" y="339" on="1"/>
        <pt x="47" y="391" on="1"/>
        <pt x="76" y="391" on="0"/>
        <pt x="121" y="416" on="0"/>
        <pt x="121" y="443" on="1"/>
        <pt x="121" y="443" on="0"/>
        <pt x="113" y="595" on="1"/>
        <pt x="113" y="798" on="0"/>
        <pt x="320" y="798" on="1"/>
        <pt x="320" y="743" on="1"/>
        <pt x="195" y="743" on="0"/>
      </contour>
    </TTGlyph>
    <TTGlyph name="braceright" xMin="29" yMin="-68" xMax="302" yMax="798">
      <contour>
        <pt x="154" y="143" on="1"/>
        <pt x="146" y="294" on="1"/>
        <pt x="146" y="324" on="0"/>
        <pt x="176" y="359" on="0"/>
        <pt x="200" y="361" on="1"/>
        <pt x="200" y="369" on="1"/>
        <pt x="176" y="371" on="0"/>
        <pt x="146" y="406" on="0"/>
        <pt x="146" y="436" on="1"/>
        <pt x="154" y="587" on="1"/>
        <pt x="154" y="743" on="0"/>
        <pt x="29" y="743" on="1"/>
        <pt x="29" y="798" on="1"/>
        <pt x="236" y="798" on="0"/>
        <pt x="236" y="595" on="1"/>
        <pt x="228" y="443" on="1"/>
        <pt x="228" y="416" on="0"/>
        <pt x="273" y="391" on="0"/>
        <pt x="302" y="391" on="1"/>
        <pt x="302" y="339" on="1"/>
        <pt x="273" y="339" on="0"/>
        <pt x="228" y="314" on="0"/>
        <pt x="228" y="287" on="1"/>
        <pt x="228" y="287" on="0"/>
        <pt x="236" y="135" on="1"/>
        <pt x="236" y="-68" on="0"/>
        <pt x="29" y="-68" on="1"/>
        <pt x="29" y="-13" on="1"/>
        <pt x="154" y="-13" on="0"/>
      </contour>
    </TTGlyph>
    <TTGlyph name="bracketleft" xMin="119" yMin="-66" xMax="320" yMax="795">
      <contour>
        <pt x="320" y="740" on="1"/>
        <pt x="199" y="740" on="1"/>
        <pt x="199" y="-11" on="1"/>
        <pt x="320" y="-11" on="1"/>
        <pt x="320" y="-66" on="1"/>
        <pt x="119" y="-66" on="1"/>
        <pt x="119" y="795" on="1"/>
        <pt x="320" y="795" on="1"/>
      </contour>
    </TTGlyph>
    <TTGlyph name="bracketright" xMin="28" yMin="-66" xMax="229" yMax="795">
      <contour>
        <pt x="149" y="740" on="1"/>
        <pt x="28" y="740" on="1"/>
        <pt x="28" y="795" on="1"/>
        <pt x="229" y="795" on="1"/>
        <pt x="229" y="-66" on="1"/>
        <pt x="28" y="-66" on="1"/>
        <pt x="28" y="-11" on="1"/>
        <pt x="149" y="-11" on="1"/>
      </contour>
    </TTGlyph>
    <TTGlyph name="breve" xMin="86" yMin="643" xMax="339" yMax="780">
      <contour>
        <pt x="282" y="780" on="1"/>
        <pt x="339" y="780" on="1"/>
        <pt x="339" y="713" on="0"/>
        <pt x="274" y="643" on="0"/>
        <pt x="155" y="643" on="0"/>
        <pt x="86" y="718" on="0"/>
        <pt x="86" y="780" on="1"/>
        <pt x="142" y="780" on="1"/>
        <pt x="142" y="747" on="0"/>
        <pt x="181" y="706" on="0"/>
        <pt x="212" y="706" on="1"/>
        <pt x="282" y="706" on="0"/>
      </contour>
    </TTGlyph>
    <TTGlyph name="brokenbar" xMin="119" yMin="-106" xMax="202" yMax="775">
      <contour>
        <pt x="202" y="447" on="1"/>
        <pt x="119" y="447" on="1"/>
        <pt x="119" y="775" on="1"/>
        <pt x="202" y="775" on="1"/>
      </contour>
      <contour>
        <pt x="202" y="-106" on="1"/>
        <pt x="119" y="-106" on="1"/>
        <pt x="119" y="221" on="1"/>
        <pt x="202" y="221" on="1"/>
      </contour>
    </TTGlyph>
    <TTGlyph name="bullet" xMin="47" yMin="251" xMax="209" yMax="413">
      <contour>
        <pt x="96" y="251" on="0"/>
        <pt x="47" y="300" on="0"/>
        <pt x="47" y="365" on="0"/>
        <pt x="96" y="413" on="0"/>
        <pt x="161" y="413" on="0"/>
        <pt x="209" y="365" on="0"/>
        <pt x="209" y="300" on="0"/>
        <pt x="161" y="251" on="0"/>
      </contour>
    </TTGlyph>
    <TTGlyph name="c" xMin="62" yMin="-14" xMax="503" yMax="586">
      <contour>
        <pt x="298" y="-14" on="1"/>
        <pt x="235" y="-14" on="0"/>
        <pt x="140" y="40" on="0"/>
        <pt x="114" y="86" on="1"/>
        <pt x="62" y="174" on="0"/>
        <pt x="62" y="290" on="1"/>
        <pt x="62" y="438" on="0"/>
        <pt x="139" y="521" on="1"/>
        <pt x="166" y="550" on="0"/>
        <pt x="254" y="586" on="0"/>
        <pt x="310" y="586" on="1"/>
        <pt x="401" y="586" on="0"/>
        <pt x="491" y="540" on="1"/>
        <pt x="465" y="482" on="1"/>
        <pt x="389" y="525" on="0"/>
        <pt x="310" y="525" on="1"/>
        <pt x="260" y="525" on="0"/>
        <pt x="190" y="482" on="0"/>
        <pt x="155" y="409" on="0"/>
        <pt x="140" y="333" on="0"/>
        <pt x="140" y="247" on="0"/>
        <pt x="154" y="169" on="0"/>
        <pt x="186" y="93" on="0"/>
        <pt x="252" y="47" on="0"/>
        <pt x="298" y="47" on="1"/>
        <pt x="400" y="47" on="0"/>
        <pt x="439" y="151" on="1"/>
        <pt x="503" y="130" on="1"/>
        <pt x="448" y="-14" on="0"/>
      </contour>
    </TTGlyph>
    <TTGlyph name="caron" xMin="57" yMin="644" xMax="344" yMax="820">
      <contour>
        <pt x="312" y="820" on="1"/>
        <pt x="344" y="787" on="1"/>
        <pt x="221" y="644" on="1"/>
        <pt x="179" y="644" on="1"/>
        <pt x="57" y="787" on="1"/>
        <pt x="89" y="820" on="1"/>
        <pt x="200" y="722" on="1"/>
      </contour>
    </TTGlyph>
    <TTGlyph name="ccedilla" xMin="62" yMin="-241" xMax="503" yMax="586">
      <contour>
        <pt x="346" y="-66" on="0"/>
        <pt x="404" y="-105" on="0"/>
        <pt x="404" y="-191" on="0"/>
        <pt x="347" y="-241" on="0"/>
        <pt x="257" y="-241" on="0"/>
        <pt x="206" y="-189" on="0"/>
        <pt x="206" y="-146" on="1"/>
        <pt x="258" y="-146" on="1"/>
        <pt x="257" y="-166" on="0"/>
        <pt x="281" y="-194" on="0"/>
        <pt x="326" y="-194" on="0"/>
        <pt x="354" y="-166" on="0"/>
        <pt x="354" y="-143" on="1"/>
        <pt x="354" y="-102" on="0"/>
        <pt x="301" y="-92" on="1"/>
        <pt x="252" y="-82" on="1"/>
        <pt x="268" y="-12" on="1"/>
        <pt x="196" y="-4" on="0"/>
        <pt x="99" y="93" on="0"/>
        <pt x="62" y="217" on="0"/>
        <pt x="62" y="333" on="0"/>
        <pt x="76" y="412" on="0"/>
        <pt x="112" y="492" on="0"/>
        <pt x="166" y="550" on="0"/>
        <pt x="254" y="586" on="0"/>
        <pt x="310" y="586" on="1"/>
        <pt x="401" y="586" on="0"/>
        <pt x="491" y="540" on="1"/>
        <pt x="465" y="482" on="1"/>
        <pt x="389" y="525" on="0"/>
        <pt x="310" y="525" on="1"/>
        <pt x="260" y="525" on="0"/>
        <pt x="190" y="482" on="0"/>
        <pt x="155" y="409" on="0"/>
        <pt x="140" y="333" on="0"/>
        <pt x="140" y="247" on="0"/>
        <pt x="154" y="169" on="0"/>
        <pt x="186" y="93" on="0"/>
        <pt x="252" y="47" on="0"/>
        <pt x="298" y="47" on="1"/>
        <pt x="400" y="47" on="0"/>
        <pt x="439" y="151" on="1"/>
        <pt x="503" y="130" on="1"/>
        <pt x="449" y="-13" on="0"/>
        <pt x="299" y="-14" on="1"/>
        <pt x="290" y="-57" on="1"/>
      </contour>
    </TTGlyph>
    <TTGlyph name="cedilla" xMin="33" yMin="-241" xMax="231" yMax="0">
      <contour>
        <pt x="173" y="-66" on="0"/>
        <pt x="231" y="-105" on="0"/>
        <pt x="231" y="-191" on="0"/>
        <pt x="174" y="-241" on="0"/>
        <pt x="84" y="-241" on="0"/>
        <pt x="33" y="-189" on="0"/>
        <pt x="33" y="-146" on="1"/>
        <pt x="85" y="-146" on="1"/>
        <pt x="84" y="-166" on="0"/>
        <pt x="108" y="-194" on="0"/>
        <pt x="153" y="-194" on="0"/>
        <pt x="181" y="-166" on="0"/>
        <pt x="181" y="-143" on="1"/>
        <pt x="181" y="-102" on="0"/>
        <pt x="128" y="-92" on="1"/>
        <pt x="79" y="-82" on="1"/>
        <pt x="98" y="0" on="1"/>
        <pt x="129" y="0" on="1"/>
        <pt x="117" y="-57" on="1"/>
      </contour>
    </TTGlyph>
    <TTGlyph name="cent" xMin="62" yMin="-105" xMax="503" yMax="836">
      <contour>
        <pt x="83" y="224" on="0"/>
        <pt x="62" y="319" on="0"/>
        <pt x="62" y="412" on="0"/>
        <pt x="76" y="491" on="0"/>
        <pt x="111" y="570" on="0"/>
        <pt x="164" y="628" on="0"/>
        <pt x="250" y="665" on="0"/>
        <pt x="305" y="666" on="1"/>
        <pt x="320" y="836" on="1"/>
        <pt x="366" y="836" on="1"/>
        <pt x="351" y="664" on="1"/>
        <pt x="415" y="657" on="0"/>
        <pt x="491" y="620" on="1"/>
        <pt x="465" y="562" on="1"/>
        <pt x="404" y="596" on="0"/>
        <pt x="346" y="603" on="1"/>
        <pt x="305" y="127" on="1"/>
        <pt x="401" y="130" on="0"/>
        <pt x="439" y="231" on="1"/>
        <pt x="503" y="210" on="1"/>
        <pt x="448" y="66" on="0"/>
        <pt x="299" y="66" on="1"/>
        <pt x="285" y="-105" on="1"/>
        <pt x="239" y="-105" on="1"/>
        <pt x="254" y="69" on="1"/>
        <pt x="203" y="78" on="0"/>
        <pt x="126" y="138" on="0"/>
      </contour>
      <contour>
        <pt x="154" y="486" on="0"/>
        <pt x="140" y="412" on="0"/>
        <pt x="140" y="332" on="0"/>
        <pt x="151" y="262" on="0"/>
        <pt x="176" y="192" on="0"/>
        <pt x="225" y="141" on="0"/>
        <pt x="259" y="132" on="1"/>
        <pt x="300" y="605" on="1"/>
        <pt x="253" y="603" on="0"/>
        <pt x="187" y="558" on="0"/>
      </contour>
    </TTGlyph>
    <TTGlyph name="circumflex" xMin="57" yMin="634" xMax="344" yMax="810">
      <contour>
        <pt x="344" y="667" on="1"/>
        <pt x="312" y="634" on="1"/>
        <pt x="200" y="732" on="1"/>
        <pt x="89" y="634" on="1"/>
        <pt x="57" y="667" on="1"/>
        <pt x="179" y="810" on="1"/>
        <pt x="221" y="810" on="1"/>
      </contour>
    </TTGlyph>
    <TTGlyph name="colon" xMin="76" yMin="-8" xMax="186" yMax="542">
      <contour>
        <pt x="108" y="-8" on="0"/>
        <pt x="76" y="24" on="0"/>
        <pt x="76" y="69" on="0"/>
        <pt x="109" y="102" on="0"/>
        <pt x="153" y="102" on="0"/>
        <pt x="186" y="69" on="0"/>
        <pt x="186" y="25" on="0"/>
        <pt x="153" y="-8" on="0"/>
      </contour>
      <contour>
        <pt x="108" y="432" on="0"/>
        <pt x="76" y="464" on="0"/>
        <pt x="76" y="509" on="0"/>
        <pt x="109" y="542" on="0"/>
        <pt x="153" y="542" on="0"/>
        <pt x="186" y="509" on="0"/>
        <pt x="186" y="465" on="0"/>
        <pt x="153" y="432" on="0"/>
      </contour>
    </TTGlyph>
    <TTGlyph name="comma" xMin="49" yMin="-137" xMax="182" yMax="102">
      <contour>
        <pt x="155" y="97" on="1"/>
        <pt x="182" y="80" on="0"/>
        <pt x="182" y="50" on="1"/>
        <pt x="182" y="43" on="1"/>
        <pt x="181" y="5" on="0"/>
        <pt x="162" y="-34" on="1"/>
        <pt x="154" y="-49" on="1"/>
        <pt x="139" y="-74" on="0"/>
        <pt x="113" y="-102" on="1"/>
        <pt x="106" y="-110" on="1"/>
        <pt x="95" y="-120" on="1"/>
        <pt x="74" y="-137" on="1"/>
        <pt x="49" y="-109" on="1"/>
        <pt x="61" y="-97" on="1"/>
        <pt x="81" y="-70" on="0"/>
        <pt x="93" y="-40" on="0"/>
        <pt x="93" y="-22" on="1"/>
        <pt x="92" y="-8" on="1"/>
        <pt x="88" y="0" on="0"/>
        <pt x="88" y="8" on="1"/>
        <pt x="86" y="14" on="0"/>
        <pt x="86" y="15" on="1"/>
        <pt x="83" y="25" on="1"/>
        <pt x="80" y="31" on="0"/>
        <pt x="79" y="41" on="0"/>
        <pt x="79" y="67" on="0"/>
        <pt x="93" y="88" on="1"/>
        <pt x="103" y="95" on="1"/>
        <pt x="112" y="99" on="1"/>
        <pt x="114" y="100" on="1"/>
        <pt x="117" y="100" on="0"/>
        <pt x="119" y="101" on="1"/>
        <pt x="131" y="102" on="1"/>
        <pt x="136" y="102" on="1"/>
        <pt x="141" y="102" on="0"/>
        <pt x="153" y="97" on="0"/>
      </contour>
    </TTGlyph>
    <TTGlyph name="copyright" xMin="65" yMin="265" xMax="655" yMax="856">
      <contour>
        <pt x="219" y="856" on="0"/>
        <pt x="501" y="856" on="0"/>
        <pt x="655" y="693" on="0"/>
        <pt x="655" y="438" on="0"/>
        <pt x="490" y="265" on="0"/>
        <pt x="230" y="265" on="0"/>
        <pt x="65" y="438" on="0"/>
        <pt x="65" y="693" on="0"/>
      </contour>
      <contour>
        <pt x="247" y="298" on="0"/>
        <pt x="473" y="298" on="0"/>
        <pt x="617" y="451" on="0"/>
        <pt x="617" y="678" on="0"/>
        <pt x="482" y="823" on="0"/>
        <pt x="238" y="823" on="0"/>
        <pt x="103" y="678" on="0"/>
        <pt x="103" y="451" on="0"/>
      </contour>
      <contour>
        <pt x="363" y="730" on="1"/>
        <pt x="306" y="730" on="0"/>
        <pt x="259" y="634" on="0"/>
        <pt x="259" y="569" on="1"/>
        <pt x="259" y="509" on="0"/>
        <pt x="278" y="456" on="1"/>
        <pt x="288" y="428" on="0"/>
        <pt x="331" y="395" on="0"/>
        <pt x="361" y="395" on="1"/>
        <pt x="437" y="395" on="0"/>
        <pt x="453" y="501" on="1"/>
        <pt x="497" y="491" on="1"/>
        <pt x="468" y="358" on="0"/>
        <pt x="361" y="358" on="1"/>
        <pt x="305" y="358" on="0"/>
        <pt x="233" y="426" on="0"/>
        <pt x="209" y="514" on="0"/>
        <pt x="209" y="604" on="0"/>
        <pt x="224" y="670" on="0"/>
        <pt x="257" y="731" on="0"/>
        <pt x="320" y="767" on="0"/>
        <pt x="428" y="767" on="0"/>
        <pt x="484" y="736" on="1"/>
        <pt x="468" y="700" on="1"/>
        <pt x="406" y="730" on="0"/>
      </contour>
    </TTGlyph>
    <TTGlyph name="currency" xMin="28" yMin="81" xMax="596" yMax="649">
      <contour>
        <pt x="482" y="488" on="1"/>
        <pt x="522" y="432" on="0"/>
        <pt x="522" y="296" on="0"/>
        <pt x="481" y="241" on="1"/>
        <pt x="596" y="127" on="1"/>
        <pt x="550" y="81" on="1"/>
        <pt x="435" y="195" on="1"/>
        <pt x="381" y="155" on="0"/>
        <pt x="243" y="155" on="0"/>
        <pt x="189" y="195" on="1"/>
        <pt x="74" y="81" on="1"/>
        <pt x="28" y="127" on="1"/>
        <pt x="142" y="241" on="1"/>
        <pt x="102" y="297" on="0"/>
        <pt x="102" y="434" on="0"/>
        <pt x="142" y="488" on="1"/>
        <pt x="28" y="603" on="1"/>
        <pt x="74" y="649" on="1"/>
        <pt x="188" y="534" on="1"/>
        <pt x="243" y="575" on="0"/>
        <pt x="381" y="575" on="0"/>
        <pt x="436" y="534" on="1"/>
        <pt x="550" y="649" on="1"/>
        <pt x="596" y="603" on="1"/>
      </contour>
      <contour>
        <pt x="253" y="507" on="0"/>
        <pt x="170" y="424" on="0"/>
        <pt x="170" y="305" on="0"/>
        <pt x="253" y="222" on="0"/>
        <pt x="371" y="222" on="0"/>
        <pt x="454" y="305" on="0"/>
        <pt x="454" y="424" on="0"/>
        <pt x="371" y="507" on="0"/>
      </contour>
    </TTGlyph>
    <TTGlyph name="d" xMin="71" yMin="-14" xMax="622" yMax="770">
      <contour>
        <pt x="389" y="770" on="1"/>
        <pt x="498" y="770" on="1"/>
        <pt x="530" y="770" on="0"/>
        <pt x="528" y="739" on="1"/>
        <pt x="528" y="108" on="1"/>
        <pt x="528" y="53" on="0"/>
        <pt x="571" y="53" on="1"/>
        <pt x="589" y="53" on="0"/>
        <pt x="613" y="59" on="1"/>
        <pt x="622" y="-1" on="1"/>
        <pt x="583" y="-14" on="0"/>
        <pt x="545" y="-14" on="1"/>
        <pt x="459" y="-14" on="0"/>
        <pt x="450" y="76" on="1"/>
        <pt x="384" y="-14" on="0"/>
        <pt x="285" y="-14" on="1"/>
        <pt x="228" y="-14" on="0"/>
        <pt x="141" y="40" on="0"/>
        <pt x="118" y="84" on="1"/>
        <pt x="71" y="173" on="0"/>
        <pt x="71" y="286" on="1"/>
        <pt x="71" y="402" on="0"/>
        <pt x="114" y="487" on="1"/>
        <pt x="138" y="533" on="0"/>
        <pt x="232" y="586" on="0"/>
        <pt x="377" y="586" on="0"/>
        <pt x="449" y="549" on="1"/>
        <pt x="449" y="710" on="1"/>
        <pt x="389" y="718" on="1"/>
      </contour>
      <contour>
        <pt x="312" y="525" on="1"/>
        <pt x="150" y="525" on="0"/>
        <pt x="150" y="286" on="1"/>
        <pt x="150" y="190" on="0"/>
        <pt x="180" y="123" on="1"/>
        <pt x="196" y="87" on="0"/>
        <pt x="259" y="46" on="0"/>
        <pt x="302" y="46" on="1"/>
        <pt x="389" y="46" on="0"/>
        <pt x="449" y="137" on="1"/>
        <pt x="449" y="491" on="1"/>
        <pt x="387" y="525" on="0"/>
      </contour>
    </TTGlyph>
    <TTGlyph name="dagger" xMin="19" yMin="0" xMax="423" yMax="730">
      <contour>
        <pt x="19" y="572" on="1"/>
        <pt x="183" y="572" on="1"/>
        <pt x="183" y="730" on="1"/>
        <pt x="259" y="730" on="1"/>
        <pt x="259" y="572" on="1"/>
        <pt x="423" y="557" on="1"/>
        <pt x="423" y="505" on="1"/>
        <pt x="259" y="505" on="1"/>
        <pt x="259" y="0" on="1"/>
        <pt x="183" y="0" on="1"/>
        <pt x="183" y="505" on="1"/>
        <pt x="19" y="520" on="1"/>
      </contour>
    </TTGlyph>
    <TTGlyph name="daggerdbl" xMin="19" yMin="0" xMax="423" yMax="730">
      <contour>
        <pt x="259" y="505" on="1"/>
        <pt x="259" y="225" on="1"/>
        <pt x="423" y="210" on="1"/>
        <pt x="423" y="158" on="1"/>
        <pt x="259" y="158" on="1"/>
        <pt x="259" y="0" on="1"/>
        <pt x="183" y="0" on="1"/>
        <pt x="183" y="158" on="1"/>
        <pt x="19" y="173" on="1"/>
        <pt x="19" y="225" on="1"/>
        <pt x="183" y="225" on="1"/>
        <pt x="183" y="505" on="1"/>
        <pt x="19" y="520" on="1"/>
        <pt x="19" y="572" on="1"/>
        <pt x="183" y="572" on="1"/>
        <pt x="183" y="730" on="1"/>
        <pt x="259" y="730" on="1"/>
        <pt x="259" y="572" on="1"/>
        <pt x="423" y="557" on="1"/>
        <pt x="423" y="505" on="1"/>
      </contour>
    </TTGlyph>
    <TTGlyph name="degree" xMin="38" yMin="351" xMax="399" yMax="741">
      <contour>
        <pt x="38" y="641" on="0"/>
        <pt x="130" y="741" on="0"/>
        <pt x="299" y="741" on="0"/>
        <pt x="399" y="634" on="0"/>
        <pt x="399" y="451" on="0"/>
        <pt x="306" y="351" on="0"/>
        <pt x="137" y="351" on="0"/>
        <pt x="38" y="458" on="0"/>
      </contour>
      <contour>
        <pt x="333" y="611" on="0"/>
        <pt x="270" y="691" on="0"/>
        <pt x="162" y="691" on="0"/>
        <pt x="103" y="616" on="0"/>
        <pt x="103" y="480" on="0"/>
        <pt x="167" y="401" on="0"/>
        <pt x="218" y="401" on="1"/>
        <pt x="333" y="401" on="0"/>
        <pt x="333" y="546" on="1"/>
      </contour>
    </TTGlyph>
    <TTGlyph name="dieresis" xMin="88" yMin="666" xMax="393" yMax="766">
      <contour>
        <pt x="88" y="696" on="0"/>
        <pt x="88" y="736" on="0"/>
        <pt x="118" y="766" on="0"/>
        <pt x="158" y="766" on="0"/>
        <pt x="188" y="736" on="0"/>
        <pt x="188" y="696" on="0"/>
        <pt x="158" y="666" on="0"/>
        <pt x="118" y="666" on="0"/>
      </contour>
      <contour>
        <pt x="293" y="696" on="0"/>
        <pt x="293" y="736" on="0"/>
        <pt x="323" y="766" on="0"/>
        <pt x="363" y="766" on="0"/>
        <pt x="393" y="736" on="0"/>
        <pt x="393" y="696" on="0"/>
        <pt x="363" y="666" on="0"/>
        <pt x="323" y="666" on="0"/>
      </contour>
    </TTGlyph>
    <TTGlyph name="divide" xMin="95" yMin="130" xMax="489" yMax="600">
      <contour>
        <pt x="489" y="333" on="1"/>
        <pt x="95" y="333" on="1"/>
        <pt x="95" y="397" on="1"/>
        <pt x="489" y="397" on="1"/>
      </contour>
      <contour>
        <pt x="270" y="130" on="0"/>
        <pt x="237" y="162" on="0"/>
        <pt x="237" y="207" on="0"/>
        <pt x="270" y="240" on="0"/>
        <pt x="314" y="240" on="0"/>
        <pt x="347" y="207" on="0"/>
        <pt x="347" y="163" on="0"/>
        <pt x="314" y="130" on="0"/>
      </contour>
      <contour>
        <pt x="270" y="490" on="0"/>
        <pt x="237" y="522" on="0"/>
        <pt x="237" y="567" on="0"/>
        <pt x="270" y="600" on="0"/>
        <pt x="314" y="600" on="0"/>
        <pt x="347" y="567" on="0"/>
        <pt x="347" y="523" on="0"/>
        <pt x="314" y="490" on="0"/>
      </contour>
    </TTGlyph>
    <TTGlyph name="dollar" xMin="38" yMin="-105" xMax="507" yMax="836">
      <contour>
        <pt x="60" y="559" on="1"/>
        <pt x="60" y="647" on="0"/>
        <pt x="183" y="744" on="0"/>
        <pt x="281" y="744" on="1"/>
        <pt x="292" y="744" on="1"/>
        <pt x="300" y="836" on="1"/>
        <pt x="346" y="836" on="1"/>
        <pt x="338" y="740" on="1"/>
        <pt x="404" y="731" on="0"/>
        <pt x="486" y="695" on="1"/>
        <pt x="461" y="635" on="1"/>
        <pt x="389" y="670" on="0"/>
        <pt x="332" y="679" on="1"/>
        <pt x="308" y="396" on="1"/>
        <pt x="395" y="359" on="0"/>
        <pt x="441" y="323" on="0"/>
        <pt x="476" y="289" on="0"/>
        <pt x="485" y="272" on="1"/>
        <pt x="507" y="229" on="0"/>
        <pt x="507" y="180" on="1"/>
        <pt x="507" y="89" on="0"/>
        <pt x="381" y="-14" on="0"/>
        <pt x="276" y="-14" on="1"/>
        <pt x="273" y="-14" on="1"/>
        <pt x="265" y="-105" on="1"/>
        <pt x="219" y="-105" on="1"/>
        <pt x="227" y="-10" on="1"/>
        <pt x="154" y="3" on="0"/>
        <pt x="56" y="106" on="0"/>
        <pt x="38" y="189" on="1"/>
        <pt x="108" y="206" on="1"/>
        <pt x="140" y="76" on="0"/>
        <pt x="232" y="52" on="1"/>
        <pt x="257" y="338" on="1"/>
        <pt x="139" y="389" on="0"/>
        <pt x="100" y="436" on="1"/>
        <pt x="60" y="487" on="0"/>
      </contour>
      <contour>
        <pt x="349" y="47" on="0"/>
        <pt x="427" y="117" on="0"/>
        <pt x="427" y="229" on="0"/>
        <pt x="362" y="291" on="0"/>
        <pt x="301" y="318" on="1"/>
        <pt x="278" y="47" on="1"/>
      </contour>
      <contour>
        <pt x="217" y="683" on="0"/>
        <pt x="140" y="618" on="0"/>
        <pt x="140" y="508" on="0"/>
        <pt x="204" y="444" on="0"/>
        <pt x="264" y="416" on="1"/>
        <pt x="287" y="683" on="1"/>
        <pt x="281" y="683" on="1"/>
      </contour>
    </TTGlyph>
    <TTGlyph name="dotaccent" xMin="95" yMin="665" xMax="197" yMax="767">
      <contour>
        <pt x="125" y="665" on="0"/>
        <pt x="95" y="695" on="0"/>
        <pt x="95" y="736" on="0"/>
        <pt x="125" y="767" on="0"/>
        <pt x="166" y="767" on="0"/>
        <pt x="197" y="736" on="0"/>
        <pt x="197" y="695" on="0"/>
        <pt x="166" y="665" on="0"/>
      </contour>
    </TTGlyph>
    <TTGlyph name="dotlessi" xMin="62" yMin="-14" xMax="295" yMax="572">
      <contour>
        <pt x="200" y="541" on="1"/>
        <pt x="200" y="108" on="1"/>
        <pt x="200" y="53" on="0"/>
        <pt x="244" y="53" on="1"/>
        <pt x="269" y="53" on="0"/>
        <pt x="285" y="59" on="1"/>
        <pt x="295" y="-1" on="1"/>
        <pt x="254" y="-14" on="0"/>
        <pt x="211" y="-14" on="1"/>
        <pt x="122" y="-14" on="0"/>
        <pt x="122" y="99" on="1"/>
        <pt x="122" y="512" on="1"/>
        <pt x="62" y="520" on="1"/>
        <pt x="62" y="572" on="1"/>
        <pt x="170" y="572" on="1"/>
        <pt x="200" y="572" on="0"/>
      </contour>
    </TTGlyph>
    <TTGlyph name="e" xMin="62" yMin="-14" xMax="534" yMax="586">
      <contour>
        <pt x="534" y="269" on="1"/>
        <pt x="140" y="269" on="1"/>
        <pt x="140" y="158" on="0"/>
        <pt x="196" y="96" on="1"/>
        <pt x="240" y="47" on="0"/>
        <pt x="393" y="47" on="0"/>
        <pt x="481" y="92" on="1"/>
        <pt x="506" y="34" on="1"/>
        <pt x="405" y="-14" on="0"/>
        <pt x="248" y="-14" on="0"/>
        <pt x="147" y="37" on="0"/>
        <pt x="118" y="80" on="1"/>
        <pt x="62" y="167" on="0"/>
        <pt x="62" y="277" on="1"/>
        <pt x="62" y="405" on="0"/>
        <pt x="116" y="492" on="1"/>
        <pt x="144" y="536" on="0"/>
        <pt x="241" y="586" on="0"/>
        <pt x="306" y="586" on="1"/>
        <pt x="413" y="586" on="0"/>
        <pt x="534" y="440" on="0"/>
        <pt x="534" y="318" on="1"/>
      </contour>
      <contour>
        <pt x="455" y="416" on="0"/>
        <pt x="375" y="525" on="0"/>
        <pt x="225" y="525" on="0"/>
        <pt x="149" y="411" on="0"/>
        <pt x="142" y="325" on="1"/>
        <pt x="455" y="325" on="1"/>
      </contour>
    </TTGlyph>
    <TTGlyph name="eacute" xMin="62" yMin="-14" xMax="534" yMax="809">
      <contour>
        <pt x="534" y="269" on="1"/>
        <pt x="140" y="269" on="1"/>
        <pt x="140" y="158" on="0"/>
        <pt x="196" y="96" on="1"/>
        <pt x="240" y="47" on="0"/>
        <pt x="393" y="47" on="0"/>
        <pt x="481" y="92" on="1"/>
        <pt x="506" y="34" on="1"/>
        <pt x="405" y="-14" on="0"/>
        <pt x="248" y="-14" on="0"/>
        <pt x="147" y="37" on="0"/>
        <pt x="118" y="80" on="1"/>
        <pt x="62" y="167" on="0"/>
        <pt x="62" y="277" on="1"/>
        <pt x="62" y="405" on="0"/>
        <pt x="116" y="492" on="1"/>
        <pt x="144" y="536" on="0"/>
        <pt x="241" y="586" on="0"/>
        <pt x="306" y="586" on="1"/>
        <pt x="413" y="586" on="0"/>
        <pt x="534" y="440" on="0"/>
        <pt x="534" y="318" on="1"/>
      </contour>
      <contour>
        <pt x="455" y="416" on="0"/>
        <pt x="375" y="525" on="0"/>
        <pt x="225" y="525" on="0"/>
        <pt x="149" y="411" on="0"/>
        <pt x="142" y="325" on="1"/>
        <pt x="455" y="325" on="1"/>
      </contour>
      <contour>
        <pt x="412" y="742" on="1"/>
        <pt x="210" y="637" on="1"/>
        <pt x="182" y="683" on="1"/>
        <pt x="374" y="809" on="1"/>
      </contour>
    </TTGlyph>
    <TTGlyph name="ecircumflex" xMin="62" yMin="-14" xMax="534" yMax="810">
      <contour>
        <pt x="534" y="269" on="1"/>
        <pt x="140" y="269" on="1"/>
        <pt x="140" y="158" on="0"/>
        <pt x="196" y="96" on="1"/>
        <pt x="240" y="47" on="0"/>
        <pt x="393" y="47" on="0"/>
        <pt x="481" y="92" on="1"/>
        <pt x="506" y="34" on="1"/>
        <pt x="405" y="-14" on="0"/>
        <pt x="248" y="-14" on="0"/>
        <pt x="147" y="37" on="0"/>
        <pt x="118" y="80" on="1"/>
        <pt x="62" y="167" on="0"/>
        <pt x="62" y="277" on="1"/>
        <pt x="62" y="405" on="0"/>
        <pt x="116" y="492" on="1"/>
        <pt x="144" y="536" on="0"/>
        <pt x="241" y="586" on="0"/>
        <pt x="306" y="586" on="1"/>
        <pt x="413" y="586" on="0"/>
        <pt x="534" y="440" on="0"/>
        <pt x="534" y="318" on="1"/>
      </contour>
      <contour>
        <pt x="455" y="416" on="0"/>
        <pt x="375" y="525" on="0"/>
        <pt x="225" y="525" on="0"/>
        <pt x="149" y="411" on="0"/>
        <pt x="142" y="325" on="1"/>
        <pt x="455" y="325" on="1"/>
      </contour>
      <contour>
        <pt x="450" y="667" on="1"/>
        <pt x="418" y="634" on="1"/>
        <pt x="306" y="732" on="1"/>
        <pt x="195" y="634" on="1"/>
        <pt x="163" y="667" on="1"/>
        <pt x="285" y="810" on="1"/>
        <pt x="327" y="810" on="1"/>
      </contour>
    </TTGlyph>
    <TTGlyph name="edieresis" xMin="62" yMin="-14" xMax="534" yMax="766">
      <contour>
        <pt x="534" y="269" on="1"/>
        <pt x="140" y="269" on="1"/>
        <pt x="140" y="158" on="0"/>
        <pt x="196" y="96" on="1"/>
        <pt x="240" y="47" on="0"/>
        <pt x="393" y="47" on="0"/>
        <pt x="481" y="92" on="1"/>
        <pt x="506" y="34" on="1"/>
        <pt x="405" y="-14" on="0"/>
        <pt x="248" y="-14" on="0"/>
        <pt x="147" y="37" on="0"/>
        <pt x="118" y="80" on="1"/>
        <pt x="62" y="167" on="0"/>
        <pt x="62" y="277" on="1"/>
        <pt x="62" y="405" on="0"/>
        <pt x="116" y="492" on="1"/>
        <pt x="144" y="536" on="0"/>
        <pt x="241" y="586" on="0"/>
        <pt x="306" y="586" on="1"/>
        <pt x="413" y="586" on="0"/>
        <pt x="534" y="440" on="0"/>
        <pt x="534" y="318" on="1"/>
      </contour>
      <contour>
        <pt x="455" y="416" on="0"/>
        <pt x="375" y="525" on="0"/>
        <pt x="225" y="525" on="0"/>
        <pt x="149" y="411" on="0"/>
        <pt x="142" y="325" on="1"/>
        <pt x="455" y="325" on="1"/>
      </contour>
      <contour>
        <pt x="142" y="696" on="0"/>
        <pt x="142" y="736" on="0"/>
        <pt x="172" y="766" on="0"/>
        <pt x="212" y="766" on="0"/>
        <pt x="242" y="736" on="0"/>
        <pt x="242" y="696" on="0"/>
        <pt x="212" y="666" on="0"/>
        <pt x="172" y="666" on="0"/>
      </contour>
      <contour>
        <pt x="347" y="696" on="0"/>
        <pt x="347" y="736" on="0"/>
        <pt x="377" y="766" on="0"/>
        <pt x="417" y="766" on="0"/>
        <pt x="447" y="736" on="0"/>
        <pt x="447" y="696" on="0"/>
        <pt x="417" y="666" on="0"/>
        <pt x="377" y="666" on="0"/>
      </contour>
    </TTGlyph>
    <TTGlyph name="egrave" xMin="62" yMin="-14" xMax="534" yMax="809">
      <contour>
        <pt x="534" y="269" on="1"/>
        <pt x="140" y="269" on="1"/>
        <pt x="140" y="158" on="0"/>
        <pt x="196" y="96" on="1"/>
        <pt x="240" y="47" on="0"/>
        <pt x="393" y="47" on="0"/>
        <pt x="481" y="92" on="1"/>
        <pt x="506" y="34" on="1"/>
        <pt x="405" y="-14" on="0"/>
        <pt x="248" y="-14" on="0"/>
        <pt x="147" y="37" on="0"/>
        <pt x="118" y="80" on="1"/>
        <pt x="62" y="167" on="0"/>
        <pt x="62" y="277" on="1"/>
        <pt x="62" y="405" on="0"/>
        <pt x="116" y="492" on="1"/>
        <pt x="144" y="536" on="0"/>
        <pt x="241" y="586" on="0"/>
        <pt x="306" y="586" on="1"/>
        <pt x="413" y="586" on="0"/>
        <pt x="534" y="440" on="0"/>
        <pt x="534" y="318" on="1"/>
      </contour>
      <contour>
        <pt x="455" y="416" on="0"/>
        <pt x="375" y="525" on="0"/>
        <pt x="225" y="525" on="0"/>
        <pt x="149" y="411" on="0"/>
        <pt x="142" y="325" on="1"/>
        <pt x="455" y="325" on="1"/>
      </contour>
      <contour>
        <pt x="384" y="637" on="1"/>
        <pt x="181" y="742" on="1"/>
        <pt x="220" y="809" on="1"/>
        <pt x="411" y="683" on="1"/>
      </contour>
    </TTGlyph>
    <TTGlyph name="eight" xMin="76" yMin="-15" xMax="561" yMax="744">
      <contour>
        <pt x="549" y="554" on="1"/>
        <pt x="549" y="493" on="0"/>
        <pt x="473" y="391" on="0"/>
        <pt x="397" y="364" on="1"/>
        <pt x="475" y="333" on="0"/>
        <pt x="561" y="252" on="0"/>
        <pt x="561" y="180" on="1"/>
        <pt x="561" y="84" on="0"/>
        <pt x="427" y="-15" on="0"/>
        <pt x="213" y="-15" on="0"/>
        <pt x="76" y="84" on="0"/>
        <pt x="76" y="180" on="1"/>
        <pt x="76" y="320" on="0"/>
        <pt x="223" y="373" on="1"/>
        <pt x="160" y="404" on="0"/>
        <pt x="90" y="488" on="0"/>
        <pt x="90" y="554" on="1"/>
        <pt x="90" y="641" on="0"/>
        <pt x="217" y="744" on="0"/>
        <pt x="423" y="744" on="0"/>
        <pt x="549" y="641" on="0"/>
      </contour>
      <contour>
        <pt x="482" y="186" on="1"/>
        <pt x="482" y="235" on="0"/>
        <pt x="442" y="272" on="1"/>
        <pt x="427" y="286" on="0"/>
        <pt x="394" y="302" on="1"/>
        <pt x="361" y="318" on="0"/>
        <pt x="283" y="347" on="1"/>
        <pt x="220" y="330" on="0"/>
        <pt x="155" y="244" on="0"/>
        <pt x="155" y="116" on="0"/>
        <pt x="241" y="42" on="0"/>
        <pt x="397" y="42" on="0"/>
        <pt x="482" y="115" on="0"/>
      </contour>
      <contour>
        <pt x="246" y="687" on="0"/>
        <pt x="169" y="610" on="0"/>
        <pt x="169" y="487" on="0"/>
        <pt x="249" y="419" on="0"/>
        <pt x="326" y="390" on="1"/>
        <pt x="390" y="408" on="0"/>
        <pt x="470" y="494" on="0"/>
        <pt x="470" y="606" on="0"/>
        <pt x="392" y="687" on="0"/>
      </contour>
    </TTGlyph>
    <TTGlyph name="eightinferior" xMin="63" yMin="-8" xMax="348" yMax="394">
      <contour>
        <pt x="342" y="290" on="1"/>
        <pt x="342" y="223" on="0"/>
        <pt x="270" y="192" on="1"/>
        <pt x="348" y="159" on="0"/>
        <pt x="348" y="98" on="1"/>
        <pt x="348" y="46" on="0"/>
        <pt x="269" y="-8" on="0"/>
        <pt x="143" y="-8" on="0"/>
        <pt x="63" y="46" on="0"/>
        <pt x="63" y="98" on="1"/>
        <pt x="63" y="167" on="0"/>
        <pt x="136" y="199" on="1"/>
        <pt x="71" y="233" on="0"/>
        <pt x="71" y="338" on="0"/>
        <pt x="145" y="394" on="0"/>
        <pt x="267" y="394" on="0"/>
        <pt x="342" y="338" on="0"/>
      </contour>
      <contour>
        <pt x="284" y="103" on="1"/>
        <pt x="284" y="144" on="0"/>
        <pt x="214" y="167" on="1"/>
        <pt x="205" y="170" on="0"/>
        <pt x="183" y="178" on="1"/>
        <pt x="127" y="159" on="0"/>
        <pt x="127" y="103" on="1"/>
        <pt x="127" y="71" on="0"/>
        <pt x="168" y="37" on="0"/>
        <pt x="205" y="37" on="1"/>
        <pt x="284" y="37" on="0"/>
      </contour>
      <contour>
        <pt x="171" y="349" on="0"/>
        <pt x="135" y="315" on="0"/>
        <pt x="135" y="258" on="0"/>
        <pt x="176" y="227" on="0"/>
        <pt x="214" y="213" on="1"/>
        <pt x="242" y="222" on="0"/>
        <pt x="277" y="261" on="0"/>
        <pt x="277" y="313" on="0"/>
        <pt x="241" y="349" on="0"/>
      </contour>
    </TTGlyph>
    <TTGlyph name="ellipsis" xMin="76" yMin="-8" xMax="710" yMax="102">
      <contour>
        <pt x="108" y="-8" on="0"/>
        <pt x="76" y="24" on="0"/>
        <pt x="76" y="69" on="0"/>
        <pt x="109" y="102" on="0"/>
        <pt x="153" y="102" on="0"/>
        <pt x="186" y="69" on="0"/>
        <pt x="186" y="25" on="0"/>
        <pt x="153" y="-8" on="0"/>
      </contour>
      <contour>
        <pt x="370" y="-8" on="0"/>
        <pt x="338" y="24" on="0"/>
        <pt x="338" y="69" on="0"/>
        <pt x="371" y="102" on="0"/>
        <pt x="415" y="102" on="0"/>
        <pt x="448" y="69" on="0"/>
        <pt x="448" y="25" on="0"/>
        <pt x="415" y="-8" on="0"/>
      </contour>
      <contour>
        <pt x="632" y="-8" on="0"/>
        <pt x="600" y="24" on="0"/>
        <pt x="600" y="69" on="0"/>
        <pt x="633" y="102" on="0"/>
        <pt x="677" y="102" on="0"/>
        <pt x="710" y="69" on="0"/>
        <pt x="710" y="25" on="0"/>
        <pt x="677" y="-8" on="0"/>
      </contour>
    </TTGlyph>
    <TTGlyph name="emdash" xMin="66" yMin="290" xMax="839" yMax="345">
      <contour>
        <pt x="839" y="290" on="1"/>
        <pt x="66" y="290" on="1"/>
        <pt x="66" y="345" on="1"/>
        <pt x="839" y="345" on="1"/>
      </contour>
    </TTGlyph>
    <TTGlyph name="endash" xMin="66" yMin="290" xMax="506" yMax="345">
      <contour>
        <pt x="506" y="290" on="1"/>
        <pt x="66" y="290" on="1"/>
        <pt x="66" y="345" on="1"/>
        <pt x="506" y="345" on="1"/>
      </contour>
    </TTGlyph>
    <TTGlyph name="equal" xMin="95" yMin="231" xMax="489" yMax="499">
      <contour>
        <pt x="489" y="434" on="1"/>
        <pt x="95" y="434" on="1"/>
        <pt x="95" y="499" on="1"/>
        <pt x="489" y="499" on="1"/>
      </contour>
      <contour>
        <pt x="489" y="231" on="1"/>
        <pt x="95" y="231" on="1"/>
        <pt x="95" y="296" on="1"/>
        <pt x="489" y="296" on="1"/>
      </contour>
    </TTGlyph>
    <TTGlyph name="eslash" xMin="38" yMin="301" xMax="290" yMax="458">
      <contour>
        <pt x="290" y="402" on="1"/>
        <pt x="38" y="301" on="1"/>
        <pt x="38" y="357" on="1"/>
        <pt x="290" y="458" on="1"/>
      </contour>
    </TTGlyph>
    <TTGlyph name="eth" xMin="62" yMin="-14" xMax="560" yMax="834">
      <contour>
        <pt x="560" y="286" on="1"/>
        <pt x="560" y="140" on="0"/>
        <pt x="432" y="-14" on="0"/>
        <pt x="199" y="-14" on="0"/>
        <pt x="62" y="151" on="0"/>
        <pt x="62" y="425" on="0"/>
        <pt x="189" y="571" on="0"/>
        <pt x="310" y="571" on="1"/>
        <pt x="391" y="571" on="0"/>
        <pt x="449" y="513" on="1"/>
        <pt x="419" y="608" on="0"/>
        <pt x="365" y="687" on="1"/>
        <pt x="258" y="644" on="1"/>
        <pt x="258" y="700" on="1"/>
        <pt x="333" y="730" on="1"/>
        <pt x="309" y="760" on="0"/>
        <pt x="280" y="789" on="1"/>
        <pt x="323" y="834" on="1"/>
        <pt x="361" y="796" on="0"/>
        <pt x="394" y="754" on="1"/>
        <pt x="510" y="801" on="1"/>
        <pt x="510" y="745" on="1"/>
        <pt x="425" y="711" on="1"/>
        <pt x="560" y="514" on="0"/>
      </contour>
      <contour>
        <pt x="481" y="389" on="0"/>
        <pt x="386" y="510" on="0"/>
        <pt x="227" y="510" on="0"/>
        <pt x="140" y="395" on="0"/>
        <pt x="140" y="179" on="0"/>
        <pt x="235" y="47" on="0"/>
        <pt x="393" y="47" on="0"/>
        <pt x="481" y="169" on="0"/>
      </contour>
    </TTGlyph>
    <TTGlyph name="ethbar" xMin="17" yMin="337" xMax="362" yMax="392">
      <contour>
        <pt x="362" y="337" on="1"/>
        <pt x="17" y="337" on="1"/>
        <pt x="17" y="392" on="1"/>
        <pt x="362" y="392" on="1"/>
      </contour>
    </TTGlyph>
    <TTGlyph name="exclam" xMin="87" yMin="-8" xMax="193" yMax="730">
      <contour>
        <pt x="162" y="176" on="1"/>
        <pt x="119" y="176" on="1"/>
        <pt x="95" y="730" on="1"/>
        <pt x="186" y="730" on="1"/>
      </contour>
      <contour>
        <pt x="119" y="-8" on="0"/>
        <pt x="87" y="23" on="0"/>
        <pt x="87" y="66" on="0"/>
        <pt x="119" y="98" on="0"/>
        <pt x="162" y="98" on="0"/>
        <pt x="193" y="66" on="0"/>
        <pt x="193" y="23" on="0"/>
        <pt x="162" y="-8" on="0"/>
      </contour>
    </TTGlyph>
    <TTGlyph name="exclamdown" xMin="87" yMin="-152" xMax="193" yMax="586">
      <contour>
        <pt x="119" y="402" on="1"/>
        <pt x="162" y="402" on="1"/>
        <pt x="186" y="-152" on="1"/>
        <pt x="95" y="-152" on="1"/>
      </contour>
      <contour>
        <pt x="119" y="480" on="0"/>
        <pt x="87" y="512" on="0"/>
        <pt x="87" y="555" on="0"/>
        <pt x="119" y="586" on="0"/>
        <pt x="162" y="586" on="0"/>
        <pt x="193" y="555" on="0"/>
        <pt x="193" y="512" on="0"/>
        <pt x="162" y="480" on="0"/>
      </contour>
    </TTGlyph>
    <TTGlyph name="f" xMin="66" yMin="0" xMax="442" yMax="785">
      <contour>
        <pt x="314" y="0" on="1"/>
        <pt x="66" y="0" on="1"/>
        <pt x="66" y="52" on="1"/>
        <pt x="136" y="59" on="1"/>
        <pt x="136" y="517" on="1"/>
        <pt x="66" y="517" on="1"/>
        <pt x="66" y="572" on="1"/>
        <pt x="136" y="572" on="1"/>
        <pt x="141" y="676" on="0"/>
        <pt x="234" y="785" on="0"/>
        <pt x="332" y="785" on="1"/>
        <pt x="396" y="785" on="0"/>
        <pt x="442" y="759" on="1"/>
        <pt x="421" y="700" on="1"/>
        <pt x="385" y="724" on="0"/>
        <pt x="330" y="724" on="1"/>
        <pt x="223" y="724" on="0"/>
        <pt x="215" y="572" on="1"/>
        <pt x="333" y="572" on="1"/>
        <pt x="333" y="517" on="1"/>
        <pt x="215" y="517" on="1"/>
        <pt x="215" y="59" on="1"/>
        <pt x="314" y="52" on="1"/>
      </contour>
    </TTGlyph>
    <TTGlyph name="fi" xMin="66" yMin="-14" xMax="653" yMax="785">
      <contour>
        <pt x="314" y="0" on="1"/>
        <pt x="66" y="0" on="1"/>
        <pt x="66" y="52" on="1"/>
        <pt x="136" y="59" on="1"/>
        <pt x="136" y="517" on="1"/>
        <pt x="66" y="517" on="1"/>
        <pt x="66" y="572" on="1"/>
        <pt x="136" y="572" on="1"/>
        <pt x="141" y="676" on="0"/>
        <pt x="234" y="785" on="0"/>
        <pt x="332" y="785" on="1"/>
        <pt x="396" y="785" on="0"/>
        <pt x="442" y="759" on="1"/>
        <pt x="421" y="700" on="1"/>
        <pt x="385" y="724" on="0"/>
        <pt x="330" y="724" on="1"/>
        <pt x="223" y="724" on="0"/>
        <pt x="215" y="572" on="1"/>
        <pt x="333" y="572" on="1"/>
        <pt x="333" y="517" on="1"/>
        <pt x="215" y="517" on="1"/>
        <pt x="215" y="59" on="1"/>
        <pt x="314" y="52" on="1"/>
      </contour>
      <contour>
        <pt x="558" y="541" on="1"/>
        <pt x="558" y="108" on="1"/>
        <pt x="558" y="53" on="0"/>
        <pt x="602" y="53" on="1"/>
        <pt x="619" y="53" on="0"/>
        <pt x="643" y="59" on="1"/>
        <pt x="653" y="-1" on="1"/>
        <pt x="612" y="-14" on="0"/>
        <pt x="569" y="-14" on="1"/>
        <pt x="480" y="-14" on="0"/>
        <pt x="480" y="99" on="1"/>
        <pt x="480" y="512" on="1"/>
        <pt x="420" y="520" on="1"/>
        <pt x="420" y="572" on="1"/>
        <pt x="528" y="572" on="1"/>
        <pt x="558" y="572" on="0"/>
      </contour>
      <contour>
        <pt x="500" y="665" on="0"/>
        <pt x="469" y="695" on="0"/>
        <pt x="469" y="736" on="0"/>
        <pt x="500" y="767" on="0"/>
        <pt x="541" y="767" on="0"/>
        <pt x="571" y="736" on="0"/>
        <pt x="571" y="695" on="0"/>
        <pt x="541" y="665" on="0"/>
      </contour>
    </TTGlyph>
    <TTGlyph name="five" xMin="77" yMin="-15" xMax="551" yMax="730">
      <contour>
        <pt x="304" y="431" on="1"/>
        <pt x="426" y="431" on="0"/>
        <pt x="551" y="307" on="0"/>
        <pt x="551" y="103" on="0"/>
        <pt x="420" y="-15" on="0"/>
        <pt x="298" y="-15" on="1"/>
        <pt x="197" y="-15" on="0"/>
        <pt x="77" y="108" on="0"/>
        <pt x="77" y="211" on="1"/>
        <pt x="148" y="211" on="1"/>
        <pt x="148" y="136" on="0"/>
        <pt x="228" y="46" on="0"/>
        <pt x="384" y="46" on="0"/>
        <pt x="472" y="132" on="0"/>
        <pt x="472" y="297" on="0"/>
        <pt x="364" y="377" on="0"/>
        <pt x="202" y="377" on="0"/>
        <pt x="119" y="350" on="1"/>
        <pt x="100" y="364" on="1"/>
        <pt x="134" y="730" on="1"/>
        <pt x="513" y="730" on="1"/>
        <pt x="506" y="669" on="1"/>
        <pt x="198" y="669" on="1"/>
        <pt x="174" y="409" on="1"/>
        <pt x="248" y="431" on="0"/>
      </contour>
    </TTGlyph>
    <TTGlyph name="fiveinferior" xMin="63" yMin="-8" xMax="336" yMax="387">
      <contour>
        <pt x="197" y="235" on="1"/>
        <pt x="263" y="235" on="0"/>
        <pt x="336" y="167" on="0"/>
        <pt x="336" y="56" on="0"/>
        <pt x="262" y="-8" on="0"/>
        <pt x="132" y="-8" on="0"/>
        <pt x="64" y="60" on="0"/>
        <pt x="64" y="112" on="1"/>
        <pt x="64" y="116" on="0"/>
        <pt x="64" y="121" on="1"/>
        <pt x="122" y="121" on="1"/>
        <pt x="122" y="118" on="0"/>
        <pt x="122" y="114" on="1"/>
        <pt x="122" y="83" on="0"/>
        <pt x="159" y="41" on="0"/>
        <pt x="231" y="41" on="0"/>
        <pt x="271" y="79" on="0"/>
        <pt x="271" y="114" on="1"/>
        <pt x="271" y="194" on="0"/>
        <pt x="171" y="194" on="1"/>
        <pt x="136" y="194" on="0"/>
        <pt x="90" y="181" on="1"/>
        <pt x="76" y="192" on="1"/>
        <pt x="95" y="387" on="1"/>
        <pt x="314" y="387" on="1"/>
        <pt x="310" y="338" on="1"/>
        <pt x="147" y="338" on="1"/>
        <pt x="136" y="227" on="1"/>
        <pt x="171" y="235" on="0"/>
      </contour>
    </TTGlyph>
    <TTGlyph name="fl" xMin="66" yMin="-14" xMax="652" yMax="785">
      <contour>
        <pt x="558" y="739" on="1"/>
        <pt x="558" y="108" on="1"/>
        <pt x="558" y="53" on="0"/>
        <pt x="601" y="53" on="1"/>
        <pt x="616" y="53" on="0"/>
        <pt x="643" y="59" on="1"/>
        <pt x="652" y="-1" on="1"/>
        <pt x="613" y="-14" on="0"/>
        <pt x="575" y="-14" on="1"/>
        <pt x="479" y="-14" on="0"/>
        <pt x="479" y="99" on="1"/>
        <pt x="479" y="710" on="1"/>
        <pt x="427" y="717" on="1"/>
        <pt x="421" y="700" on="1"/>
        <pt x="385" y="724" on="0"/>
        <pt x="330" y="724" on="1"/>
        <pt x="223" y="724" on="0"/>
        <pt x="215" y="572" on="1"/>
        <pt x="333" y="572" on="1"/>
        <pt x="333" y="517" on="1"/>
        <pt x="215" y="517" on="1"/>
        <pt x="215" y="59" on="1"/>
        <pt x="314" y="52" on="1"/>
        <pt x="314" y="0" on="1"/>
        <pt x="66" y="0" on="1"/>
        <pt x="66" y="52" on="1"/>
        <pt x="136" y="59" on="1"/>
        <pt x="136" y="517" on="1"/>
        <pt x="66" y="517" on="1"/>
        <pt x="66" y="572" on="1"/>
        <pt x="136" y="572" on="1"/>
        <pt x="141" y="676" on="0"/>
        <pt x="234" y="785" on="0"/>
        <pt x="332" y="785" on="1"/>
        <pt x="377" y="785" on="0"/>
        <pt x="419" y="769" on="1"/>
        <pt x="419" y="770" on="1"/>
        <pt x="528" y="770" on="1"/>
        <pt x="558" y="770" on="0"/>
      </contour>
    </TTGlyph>
    <TTGlyph name="florin" xMin="38" yMin="-233" xMax="468" yMax="744">
      <contour>
        <pt x="409" y="319" on="1"/>
        <pt x="230" y="319" on="1"/>
        <pt x="230" y="-227" on="1"/>
        <pt x="150" y="-233" on="1"/>
        <pt x="150" y="319" on="1"/>
        <pt x="38" y="319" on="1"/>
        <pt x="38" y="365" on="1"/>
        <pt x="150" y="365" on="1"/>
        <pt x="150" y="504" on="1"/>
        <pt x="150" y="622" on="0"/>
        <pt x="245" y="744" on="0"/>
        <pt x="353" y="744" on="1"/>
        <pt x="421" y="744" on="0"/>
        <pt x="468" y="718" on="1"/>
        <pt x="447" y="659" on="1"/>
        <pt x="409" y="683" on="0"/>
        <pt x="357" y="683" on="1"/>
        <pt x="288" y="683" on="0"/>
        <pt x="230" y="592" on="0"/>
        <pt x="230" y="504" on="1"/>
        <pt x="230" y="365" on="1"/>
        <pt x="409" y="365" on="1"/>
      </contour>
    </TTGlyph>
    <TTGlyph name="four" xMin="19" yMin="0" xMax="553" yMax="730">
      <contour>
        <pt x="465" y="227" on="1"/>
        <pt x="553" y="227" on="1"/>
        <pt x="553" y="172" on="1"/>
        <pt x="465" y="172" on="1"/>
        <pt x="465" y="0" on="1"/>
        <pt x="385" y="0" on="1"/>
        <pt x="385" y="172" on="1"/>
        <pt x="19" y="172" on="1"/>
        <pt x="19" y="219" on="1"/>
        <pt x="343" y="730" on="1"/>
        <pt x="465" y="730" on="1"/>
      </contour>
      <contour>
        <pt x="385" y="227" on="1"/>
        <pt x="385" y="659" on="1"/>
        <pt x="107" y="227" on="1"/>
      </contour>
    </TTGlyph>
    <TTGlyph name="fourinferior" xMin="34" yMin="0" xMax="340" yMax="387">
      <contour>
        <pt x="295" y="126" on="1"/>
        <pt x="340" y="126" on="1"/>
        <pt x="340" y="84" on="1"/>
        <pt x="295" y="84" on="1"/>
        <pt x="295" y="0" on="1"/>
        <pt x="230" y="0" on="1"/>
        <pt x="230" y="84" on="1"/>
        <pt x="34" y="84" on="1"/>
        <pt x="34" y="122" on="1"/>
        <pt x="198" y="387" on="1"/>
        <pt x="295" y="387" on="1"/>
      </contour>
      <contour>
        <pt x="230" y="126" on="1"/>
        <pt x="230" y="326" on="1"/>
        <pt x="103" y="126" on="1"/>
      </contour>
    </TTGlyph>
    <TTGlyph name="fraction" xMin="0" yMin="-66" xMax="302" yMax="795">
      <contour>
        <pt x="62" y="-66" on="1"/>
        <pt x="0" y="-66" on="1"/>
        <pt x="240" y="795" on="1"/>
        <pt x="302" y="795" on="1"/>
      </contour>
    </TTGlyph>
    <TTGlyph name="g" xMin="45" yMin="-241" xMax="546" yMax="586">
      <contour>
        <pt x="298" y="586" on="1"/>
        <pt x="342" y="586" on="0"/>
        <pt x="381" y="572" on="1"/>
        <pt x="539" y="572" on="1"/>
        <pt x="539" y="517" on="1"/>
        <pt x="461" y="517" on="1"/>
        <pt x="507" y="461" on="0"/>
        <pt x="507" y="281" on="0"/>
        <pt x="400" y="176" on="0"/>
        <pt x="298" y="176" on="1"/>
        <pt x="239" y="176" on="0"/>
        <pt x="193" y="199" on="1"/>
        <pt x="140" y="145" on="1"/>
        <pt x="117" y="122" on="0"/>
        <pt x="117" y="98" on="1"/>
        <pt x="117" y="65" on="0"/>
        <pt x="159" y="65" on="1"/>
        <pt x="377" y="65" on="1"/>
        <pt x="450" y="65" on="0"/>
        <pt x="546" y="-10" on="0"/>
        <pt x="546" y="-75" on="1"/>
        <pt x="546" y="-154" on="0"/>
        <pt x="417" y="-241" on="0"/>
        <pt x="182" y="-241" on="0"/>
        <pt x="45" y="-170" on="0"/>
        <pt x="45" y="-93" on="1"/>
        <pt x="45" y="-65" on="0"/>
        <pt x="73" y="-3" on="0"/>
        <pt x="96" y="15" on="1"/>
        <pt x="45" y="34" on="0"/>
        <pt x="45" y="132" on="0"/>
        <pt x="99" y="185" on="1"/>
        <pt x="147" y="231" on="1"/>
        <pt x="89" y="287" on="0"/>
        <pt x="89" y="480" on="0"/>
        <pt x="196" y="586" on="0"/>
      </contour>
      <contour>
        <pt x="433" y="448" on="0"/>
        <pt x="360" y="529" on="0"/>
        <pt x="233" y="529" on="0"/>
        <pt x="163" y="453" on="0"/>
        <pt x="163" y="312" on="0"/>
        <pt x="238" y="230" on="0"/>
        <pt x="364" y="230" on="0"/>
        <pt x="433" y="308" on="0"/>
      </contour>
      <contour>
        <pt x="372" y="5" on="1"/>
        <pt x="155" y="5" on="1"/>
        <pt x="119" y="-38" on="0"/>
        <pt x="119" y="-133" on="0"/>
        <pt x="217" y="-184" on="0"/>
        <pt x="295" y="-184" on="1"/>
        <pt x="473" y="-184" on="0"/>
        <pt x="473" y="-74" on="1"/>
        <pt x="473" y="-35" on="0"/>
        <pt x="419" y="5" on="0"/>
      </contour>
    </TTGlyph>
    <TTGlyph name="germandbls" xMin="57" yMin="-14" xMax="630" yMax="745">
      <contour>
        <pt x="120" y="484" on="1"/>
        <pt x="120" y="614" on="0"/>
        <pt x="241" y="745" on="0"/>
        <pt x="452" y="745" on="0"/>
        <pt x="571" y="639" on="0"/>
        <pt x="571" y="548" on="1"/>
        <pt x="571" y="487" on="0"/>
        <pt x="510" y="396" on="0"/>
        <pt x="449" y="380" on="1"/>
        <pt x="532" y="369" on="0"/>
        <pt x="630" y="274" on="0"/>
        <pt x="630" y="91" on="0"/>
        <pt x="528" y="-14" on="0"/>
        <pt x="430" y="-14" on="1"/>
        <pt x="351" y="-14" on="0"/>
        <pt x="253" y="92" on="0"/>
        <pt x="253" y="179" on="1"/>
        <pt x="318" y="179" on="1"/>
        <pt x="318" y="120" on="0"/>
        <pt x="379" y="47" on="0"/>
        <pt x="488" y="47" on="0"/>
        <pt x="551" y="121" on="0"/>
        <pt x="551" y="260" on="0"/>
        <pt x="467" y="344" on="0"/>
        <pt x="382" y="344" on="1"/>
        <pt x="287" y="344" on="1"/>
        <pt x="287" y="399" on="1"/>
        <pt x="352" y="399" on="1"/>
        <pt x="419" y="399" on="0"/>
        <pt x="494" y="473" on="0"/>
        <pt x="494" y="611" on="0"/>
        <pt x="416" y="684" on="0"/>
        <pt x="348" y="684" on="1"/>
        <pt x="200" y="684" on="0"/>
        <pt x="200" y="485" on="1"/>
        <pt x="200" y="31" on="1"/>
        <pt x="200" y="0" on="0"/>
        <pt x="166" y="0" on="1"/>
        <pt x="57" y="0" on="1"/>
        <pt x="57" y="52" on="1"/>
        <pt x="120" y="59" on="1"/>
      </contour>
    </TTGlyph>
    <TTGlyph name="grave" xMin="38" yMin="637" xMax="268" yMax="809">
      <contour>
        <pt x="241" y="637" on="1"/>
        <pt x="38" y="742" on="1"/>
        <pt x="77" y="809" on="1"/>
        <pt x="268" y="683" on="1"/>
      </contour>
    </TTGlyph>
    <TTGlyph name="greater" xMin="95" yMin="154" xMax="489" yMax="574">
      <contour>
        <pt x="428" y="364" on="1"/>
        <pt x="95" y="502" on="1"/>
        <pt x="95" y="574" on="1"/>
        <pt x="489" y="405" on="1"/>
        <pt x="489" y="323" on="1"/>
        <pt x="95" y="154" on="1"/>
        <pt x="95" y="226" on="1"/>
      </contour>
    </TTGlyph>
    <TTGlyph name="greaterequal" xMin="95" yMin="0" xMax="489" yMax="574">
      <contour>
        <pt x="428" y="364" on="1"/>
        <pt x="95" y="502" on="1"/>
        <pt x="95" y="574" on="1"/>
        <pt x="489" y="405" on="1"/>
        <pt x="489" y="323" on="1"/>
        <pt x="95" y="154" on="1"/>
        <pt x="95" y="226" on="1"/>
      </contour>
      <contour>
        <pt x="489" y="0" on="1"/>
        <pt x="95" y="0" on="1"/>
        <pt x="95" y="64" on="1"/>
        <pt x="489" y="64" on="1"/>
      </contour>
    </TTGlyph>
    <TTGlyph name="guillemotleft" xMin="47" yMin="147" xMax="389" yMax="497">
      <contour>
        <pt x="179" y="497" on="1"/>
        <pt x="211" y="474" on="1"/>
        <pt x="118" y="321" on="1"/>
        <pt x="211" y="168" on="1"/>
        <pt x="179" y="147" on="1"/>
        <pt x="47" y="298" on="1"/>
        <pt x="47" y="344" on="1"/>
      </contour>
      <contour>
        <pt x="357" y="497" on="1"/>
        <pt x="389" y="474" on="1"/>
        <pt x="295" y="321" on="1"/>
        <pt x="389" y="168" on="1"/>
        <pt x="357" y="147" on="1"/>
        <pt x="225" y="298" on="1"/>
        <pt x="225" y="344" on="1"/>
      </contour>
    </TTGlyph>
    <TTGlyph name="guillemotright" xMin="47" yMin="147" xMax="389" yMax="497">
      <contour>
        <pt x="225" y="474" on="1"/>
        <pt x="257" y="497" on="1"/>
        <pt x="389" y="344" on="1"/>
        <pt x="389" y="298" on="1"/>
        <pt x="257" y="147" on="1"/>
        <pt x="225" y="168" on="1"/>
        <pt x="319" y="321" on="1"/>
      </contour>
      <contour>
        <pt x="47" y="474" on="1"/>
        <pt x="80" y="497" on="1"/>
        <pt x="211" y="344" on="1"/>
        <pt x="211" y="298" on="1"/>
        <pt x="80" y="147" on="1"/>
        <pt x="47" y="168" on="1"/>
        <pt x="141" y="321" on="1"/>
      </contour>
    </TTGlyph>
    <TTGlyph name="guilsinglleft" xMin="47" yMin="147" xMax="211" yMax="497">
      <contour>
        <pt x="179" y="497" on="1"/>
        <pt x="211" y="474" on="1"/>
        <pt x="118" y="321" on="1"/>
        <pt x="211" y="168" on="1"/>
        <pt x="179" y="147" on="1"/>
        <pt x="47" y="298" on="1"/>
        <pt x="47" y="344" on="1"/>
      </contour>
    </TTGlyph>
    <TTGlyph name="guilsinglright" xMin="47" yMin="147" xMax="211" yMax="497">
      <contour>
        <pt x="47" y="474" on="1"/>
        <pt x="80" y="497" on="1"/>
        <pt x="211" y="344" on="1"/>
        <pt x="211" y="298" on="1"/>
        <pt x="80" y="147" on="1"/>
        <pt x="47" y="168" on="1"/>
        <pt x="141" y="321" on="1"/>
      </contour>
    </TTGlyph>
    <TTGlyph name="h" xMin="57" yMin="-14" xMax="664" yMax="770">
      <contour>
        <pt x="491" y="99" on="1"/>
        <pt x="491" y="407" on="1"/>
        <pt x="491" y="470" on="0"/>
        <pt x="446" y="525" on="0"/>
        <pt x="391" y="525" on="1"/>
        <pt x="296" y="525" on="0"/>
        <pt x="206" y="451" on="1"/>
        <pt x="206" y="59" on="1"/>
        <pt x="275" y="52" on="1"/>
        <pt x="275" y="0" on="1"/>
        <pt x="57" y="0" on="1"/>
        <pt x="57" y="52" on="1"/>
        <pt x="127" y="59" on="1"/>
        <pt x="127" y="710" on="1"/>
        <pt x="57" y="718" on="1"/>
        <pt x="57" y="770" on="1"/>
        <pt x="163" y="770" on="1"/>
        <pt x="194" y="770" on="0"/>
        <pt x="194" y="740" on="1"/>
        <pt x="194" y="503" on="1"/>
        <pt x="297" y="586" on="0"/>
        <pt x="406" y="586" on="1"/>
        <pt x="492" y="586" on="0"/>
        <pt x="570" y="498" on="0"/>
        <pt x="570" y="407" on="1"/>
        <pt x="570" y="108" on="1"/>
        <pt x="570" y="53" on="0"/>
        <pt x="613" y="53" on="1"/>
        <pt x="628" y="53" on="0"/>
        <pt x="655" y="59" on="1"/>
        <pt x="664" y="-1" on="1"/>
        <pt x="623" y="-14" on="0"/>
        <pt x="580" y="-14" on="1"/>
        <pt x="491" y="-14" on="0"/>
      </contour>
    </TTGlyph>
    <TTGlyph name="hungarumlaut" xMin="11" yMin="615" xMax="393" yMax="832">
      <contour>
        <pt x="208" y="783" on="1"/>
        <pt x="54" y="615" on="1"/>
        <pt x="11" y="648" on="1"/>
        <pt x="148" y="832" on="1"/>
      </contour>
      <contour>
        <pt x="393" y="783" on="1"/>
        <pt x="239" y="615" on="1"/>
        <pt x="196" y="648" on="1"/>
        <pt x="333" y="832" on="1"/>
      </contour>
    </TTGlyph>
    <TTGlyph name="hyphen" xMin="66" yMin="287" xMax="418" yMax="348">
      <contour>
        <pt x="418" y="287" on="1"/>
        <pt x="66" y="287" on="1"/>
        <pt x="66" y="348" on="1"/>
        <pt x="418" y="348" on="1"/>
      </contour>
    </TTGlyph>
    <TTGlyph name="i" xMin="62" yMin="-14" xMax="295" yMax="767">
      <contour>
        <pt x="200" y="541" on="1"/>
        <pt x="200" y="108" on="1"/>
        <pt x="200" y="53" on="0"/>
        <pt x="244" y="53" on="1"/>
        <pt x="261" y="53" on="0"/>
        <pt x="285" y="59" on="1"/>
        <pt x="295" y="-1" on="1"/>
        <pt x="254" y="-14" on="0"/>
        <pt x="211" y="-14" on="1"/>
        <pt x="122" y="-14" on="0"/>
        <pt x="122" y="99" on="1"/>
        <pt x="122" y="512" on="1"/>
        <pt x="62" y="520" on="1"/>
        <pt x="62" y="572" on="1"/>
        <pt x="170" y="572" on="1"/>
        <pt x="200" y="572" on="0"/>
      </contour>
      <contour>
        <pt x="142" y="665" on="0"/>
        <pt x="111" y="695" on="0"/>
        <pt x="111" y="736" on="0"/>
        <pt x="142" y="767" on="0"/>
        <pt x="183" y="767" on="0"/>
        <pt x="213" y="736" on="0"/>
        <pt x="213" y="695" on="0"/>
        <pt x="183" y="665" on="0"/>
      </contour>
    </TTGlyph>
    <TTGlyph name="iacute" xMin="54" yMin="-14" xMax="295" yMax="809">
      <contour>
        <pt x="200" y="541" on="1"/>
        <pt x="200" y="108" on="1"/>
        <pt x="200" y="53" on="0"/>
        <pt x="244" y="53" on="1"/>
        <pt x="269" y="53" on="0"/>
        <pt x="285" y="59" on="1"/>
        <pt x="295" y="-1" on="1"/>
        <pt x="254" y="-14" on="0"/>
        <pt x="211" y="-14" on="1"/>
        <pt x="122" y="-14" on="0"/>
        <pt x="122" y="99" on="1"/>
        <pt x="122" y="512" on="1"/>
        <pt x="62" y="520" on="1"/>
        <pt x="62" y="572" on="1"/>
        <pt x="170" y="572" on="1"/>
        <pt x="200" y="572" on="0"/>
      </contour>
      <contour>
        <pt x="284" y="742" on="1"/>
        <pt x="82" y="637" on="1"/>
        <pt x="54" y="683" on="1"/>
        <pt x="246" y="809" on="1"/>
      </contour>
    </TTGlyph>
    <TTGlyph name="icircumflex" xMin="3" yMin="-14" xMax="295" yMax="810">
      <contour>
        <pt x="200" y="541" on="1"/>
        <pt x="200" y="108" on="1"/>
        <pt x="200" y="53" on="0"/>
        <pt x="244" y="53" on="1"/>
        <pt x="269" y="53" on="0"/>
        <pt x="285" y="59" on="1"/>
        <pt x="295" y="-1" on="1"/>
        <pt x="254" y="-14" on="0"/>
        <pt x="211" y="-14" on="1"/>
        <pt x="122" y="-14" on="0"/>
        <pt x="122" y="99" on="1"/>
        <pt x="122" y="512" on="1"/>
        <pt x="62" y="520" on="1"/>
        <pt x="62" y="572" on="1"/>
        <pt x="170" y="572" on="1"/>
        <pt x="200" y="572" on="0"/>
      </contour>
      <contour>
        <pt x="290" y="667" on="1"/>
        <pt x="258" y="634" on="1"/>
        <pt x="146" y="732" on="1"/>
        <pt x="35" y="634" on="1"/>
        <pt x="3" y="667" on="1"/>
        <pt x="125" y="810" on="1"/>
        <pt x="167" y="810" on="1"/>
      </contour>
    </TTGlyph>
    <TTGlyph name="idieresis" xMin="-4" yMin="-14" xMax="301" yMax="766">
      <contour>
        <pt x="200" y="541" on="1"/>
        <pt x="200" y="108" on="1"/>
        <pt x="200" y="53" on="0"/>
        <pt x="244" y="53" on="1"/>
        <pt x="269" y="53" on="0"/>
        <pt x="285" y="59" on="1"/>
        <pt x="295" y="-1" on="1"/>
        <pt x="254" y="-14" on="0"/>
        <pt x="211" y="-14" on="1"/>
        <pt x="122" y="-14" on="0"/>
        <pt x="122" y="99" on="1"/>
        <pt x="122" y="512" on="1"/>
        <pt x="62" y="520" on="1"/>
        <pt x="62" y="572" on="1"/>
        <pt x="170" y="572" on="1"/>
        <pt x="200" y="572" on="0"/>
      </contour>
      <contour>
        <pt x="-4" y="696" on="0"/>
        <pt x="-4" y="736" on="0"/>
        <pt x="26" y="766" on="0"/>
        <pt x="66" y="766" on="0"/>
        <pt x="96" y="736" on="0"/>
        <pt x="96" y="696" on="0"/>
        <pt x="66" y="666" on="0"/>
        <pt x="26" y="666" on="0"/>
      </contour>
      <contour>
        <pt x="201" y="696" on="0"/>
        <pt x="201" y="736" on="0"/>
        <pt x="231" y="766" on="0"/>
        <pt x="271" y="766" on="0"/>
        <pt x="301" y="736" on="0"/>
        <pt x="301" y="696" on="0"/>
        <pt x="271" y="666" on="0"/>
        <pt x="231" y="666" on="0"/>
      </contour>
    </TTGlyph>
    <TTGlyph name="igrave" xMin="53" yMin="-14" xMax="295" yMax="809">
      <contour>
        <pt x="200" y="541" on="1"/>
        <pt x="200" y="108" on="1"/>
        <pt x="200" y="53" on="0"/>
        <pt x="244" y="53" on="1"/>
        <pt x="269" y="53" on="0"/>
        <pt x="285" y="59" on="1"/>
        <pt x="295" y="-1" on="1"/>
        <pt x="254" y="-14" on="0"/>
        <pt x="211" y="-14" on="1"/>
        <pt x="122" y="-14" on="0"/>
        <pt x="122" y="99" on="1"/>
        <pt x="122" y="512" on="1"/>
        <pt x="62" y="520" on="1"/>
        <pt x="62" y="572" on="1"/>
        <pt x="170" y="572" on="1"/>
        <pt x="200" y="572" on="0"/>
      </contour>
      <contour>
        <pt x="256" y="637" on="1"/>
        <pt x="53" y="742" on="1"/>
        <pt x="92" y="809" on="1"/>
        <pt x="283" y="683" on="1"/>
      </contour>
    </TTGlyph>
    <TTGlyph name="infinity" xMin="76" yMin="150" xMax="867" yMax="580">
      <contour>
        <pt x="145" y="439" on="0"/>
        <pt x="145" y="291" on="0"/>
        <pt x="227" y="211" on="0"/>
        <pt x="340" y="211" on="0"/>
        <pt x="427" y="297" on="0"/>
        <pt x="445" y="364" on="1"/>
        <pt x="427" y="433" on="0"/>
        <pt x="340" y="519" on="0"/>
        <pt x="227" y="519" on="0"/>
      </contour>
      <contour>
        <pt x="663" y="580" on="1"/>
        <pt x="754" y="580" on="0"/>
        <pt x="867" y="464" on="0"/>
        <pt x="867" y="266" on="0"/>
        <pt x="754" y="150" on="0"/>
        <pt x="663" y="150" on="1"/>
        <pt x="599" y="150" on="0"/>
        <pt x="497" y="223" on="0"/>
        <pt x="472" y="301" on="1"/>
        <pt x="446" y="223" on="0"/>
        <pt x="344" y="150" on="0"/>
        <pt x="281" y="150" on="1"/>
        <pt x="189" y="150" on="0"/>
        <pt x="76" y="266" on="0"/>
        <pt x="76" y="464" on="0"/>
        <pt x="189" y="580" on="0"/>
        <pt x="281" y="580" on="1"/>
        <pt x="344" y="580" on="0"/>
        <pt x="446" y="507" on="0"/>
        <pt x="472" y="429" on="1"/>
        <pt x="497" y="507" on="0"/>
        <pt x="599" y="580" on="0"/>
      </contour>
      <contour>
        <pt x="799" y="291" on="0"/>
        <pt x="799" y="439" on="0"/>
        <pt x="716" y="519" on="0"/>
        <pt x="603" y="519" on="0"/>
        <pt x="516" y="433" on="0"/>
        <pt x="499" y="364" on="1"/>
        <pt x="516" y="297" on="0"/>
        <pt x="603" y="211" on="0"/>
        <pt x="716" y="211" on="0"/>
      </contour>
    </TTGlyph>
    <TTGlyph name="integral" xMin="-51" yMin="-199" xMax="422" yMax="685">
      <contour>
        <pt x="225" y="481" on="1"/>
        <pt x="225" y="3" on="1"/>
        <pt x="225" y="-113" on="0"/>
        <pt x="139" y="-199" on="0"/>
        <pt x="55" y="-199" on="1"/>
        <pt x="-2" y="-199" on="0"/>
        <pt x="-51" y="-178" on="1"/>
        <pt x="-31" y="-120" on="1"/>
        <pt x="5" y="-138" on="0"/>
        <pt x="95" y="-138" on="0"/>
        <pt x="146" y="-79" on="0"/>
        <pt x="146" y="5" on="1"/>
        <pt x="146" y="483" on="1"/>
        <pt x="146" y="599" on="0"/>
        <pt x="232" y="685" on="0"/>
        <pt x="316" y="685" on="1"/>
        <pt x="373" y="685" on="0"/>
        <pt x="422" y="664" on="1"/>
        <pt x="402" y="606" on="1"/>
        <pt x="366" y="624" on="0"/>
        <pt x="276" y="624" on="0"/>
        <pt x="225" y="565" on="0"/>
      </contour>
    </TTGlyph>
    <TTGlyph name="j" xMin="-75" yMin="-241" xMax="213" yMax="767">
      <contour>
        <pt x="142" y="665" on="0"/>
        <pt x="111" y="695" on="0"/>
        <pt x="111" y="736" on="0"/>
        <pt x="142" y="767" on="0"/>
        <pt x="183" y="767" on="0"/>
        <pt x="213" y="736" on="0"/>
        <pt x="213" y="695" on="0"/>
        <pt x="183" y="665" on="0"/>
      </contour>
      <contour>
        <pt x="200" y="541" on="1"/>
        <pt x="200" y="-39" on="1"/>
        <pt x="200" y="-155" on="0"/>
        <pt x="114" y="-241" on="0"/>
        <pt x="31" y="-241" on="1"/>
        <pt x="-26" y="-241" on="0"/>
        <pt x="-75" y="-220" on="1"/>
        <pt x="-56" y="-162" on="1"/>
        <pt x="-18" y="-180" on="0"/>
        <pt x="71" y="-180" on="0"/>
        <pt x="122" y="-121" on="0"/>
        <pt x="122" y="-37" on="1"/>
        <pt x="122" y="512" on="1"/>
        <pt x="62" y="520" on="1"/>
        <pt x="62" y="572" on="1"/>
        <pt x="170" y="572" on="1"/>
        <pt x="200" y="572" on="0"/>
      </contour>
    </TTGlyph>
    <TTGlyph name="k" xMin="57" yMin="-14" xMax="584" yMax="770">
      <contour>
        <pt x="491" y="75" on="1"/>
        <pt x="508" y="49" on="0"/>
        <pt x="555" y="49" on="0"/>
        <pt x="575" y="55" on="1"/>
        <pt x="584" y="-1" on="1"/>
        <pt x="552" y="-14" on="0"/>
        <pt x="516" y="-14" on="1"/>
        <pt x="463" y="-14" on="0"/>
        <pt x="432" y="35" on="1"/>
        <pt x="274" y="281" on="1"/>
        <pt x="206" y="281" on="1"/>
        <pt x="206" y="59" on="1"/>
        <pt x="286" y="52" on="1"/>
        <pt x="286" y="0" on="1"/>
        <pt x="57" y="0" on="1"/>
        <pt x="57" y="52" on="1"/>
        <pt x="127" y="59" on="1"/>
        <pt x="127" y="710" on="1"/>
        <pt x="57" y="718" on="1"/>
        <pt x="57" y="770" on="1"/>
        <pt x="175" y="770" on="1"/>
        <pt x="206" y="770" on="0"/>
        <pt x="206" y="739" on="1"/>
        <pt x="206" y="335" on="1"/>
        <pt x="285" y="335" on="1"/>
        <pt x="436" y="552" on="1"/>
        <pt x="449" y="572" on="0"/>
        <pt x="473" y="572" on="1"/>
        <pt x="554" y="572" on="1"/>
        <pt x="554" y="520" on="1"/>
        <pt x="491" y="512" on="1"/>
        <pt x="343" y="303" on="1"/>
      </contour>
    </TTGlyph>
    <TTGlyph name="l" xMin="52" yMin="-14" xMax="285" yMax="770">
      <contour>
        <pt x="191" y="739" on="1"/>
        <pt x="191" y="108" on="1"/>
        <pt x="191" y="53" on="0"/>
        <pt x="234" y="53" on="1"/>
        <pt x="249" y="53" on="0"/>
        <pt x="276" y="59" on="1"/>
        <pt x="285" y="-1" on="1"/>
        <pt x="246" y="-14" on="0"/>
        <pt x="208" y="-14" on="1"/>
        <pt x="112" y="-14" on="0"/>
        <pt x="112" y="99" on="1"/>
        <pt x="112" y="710" on="1"/>
        <pt x="52" y="718" on="1"/>
        <pt x="52" y="770" on="1"/>
        <pt x="161" y="770" on="1"/>
        <pt x="191" y="770" on="0"/>
      </contour>
    </TTGlyph>
    <TTGlyph name="less" xMin="95" yMin="154" xMax="489" yMax="574">
      <contour>
        <pt x="489" y="502" on="1"/>
        <pt x="156" y="364" on="1"/>
        <pt x="489" y="226" on="1"/>
        <pt x="489" y="154" on="1"/>
        <pt x="95" y="323" on="1"/>
        <pt x="95" y="405" on="1"/>
        <pt x="489" y="574" on="1"/>
      </contour>
    </TTGlyph>
    <TTGlyph name="lessequal" xMin="95" yMin="0" xMax="489" yMax="574">
      <contour>
        <pt x="489" y="502" on="1"/>
        <pt x="156" y="364" on="1"/>
        <pt x="489" y="226" on="1"/>
        <pt x="489" y="154" on="1"/>
        <pt x="95" y="323" on="1"/>
        <pt x="95" y="405" on="1"/>
        <pt x="489" y="574" on="1"/>
      </contour>
      <contour>
        <pt x="489" y="0" on="1"/>
        <pt x="95" y="0" on="1"/>
        <pt x="95" y="64" on="1"/>
        <pt x="489" y="64" on="1"/>
      </contour>
    </TTGlyph>
    <TTGlyph name="logicalnot" xMin="95" yMin="195" xMax="489" yMax="397">
      <contour>
        <pt x="489" y="195" on="1"/>
        <pt x="429" y="195" on="1"/>
        <pt x="429" y="333" on="1"/>
        <pt x="95" y="333" on="1"/>
        <pt x="95" y="397" on="1"/>
        <pt x="489" y="397" on="1"/>
      </contour>
    </TTGlyph>
    <TTGlyph name="lozenge" xMin="47" yMin="0" xMax="508" yMax="730">
      <contour>
        <pt x="508" y="365" on="1"/>
        <pt x="321" y="0" on="1"/>
        <pt x="235" y="0" on="1"/>
        <pt x="47" y="365" on="1"/>
        <pt x="235" y="730" on="1"/>
        <pt x="321" y="730" on="1"/>
      </contour>
      <contour>
        <pt x="433" y="365" on="1"/>
        <pt x="280" y="666" on="1"/>
        <pt x="276" y="666" on="1"/>
        <pt x="122" y="365" on="1"/>
        <pt x="276" y="64" on="1"/>
        <pt x="280" y="64" on="1"/>
      </contour>
    </TTGlyph>
    <TTGlyph name="lslash" xMin="27" yMin="-14" xMax="285" yMax="770">
      <contour>
        <pt x="191" y="108" on="1"/>
        <pt x="191" y="53" on="0"/>
        <pt x="234" y="53" on="1"/>
        <pt x="249" y="53" on="0"/>
        <pt x="276" y="59" on="1"/>
        <pt x="285" y="-1" on="1"/>
        <pt x="246" y="-14" on="0"/>
        <pt x="208" y="-14" on="1"/>
        <pt x="112" y="-14" on="0"/>
        <pt x="112" y="99" on="1"/>
        <pt x="112" y="335" on="1"/>
        <pt x="27" y="301" on="1"/>
        <pt x="27" y="357" on="1"/>
        <pt x="112" y="391" on="1"/>
        <pt x="112" y="710" on="1"/>
        <pt x="52" y="718" on="1"/>
        <pt x="52" y="770" on="1"/>
        <pt x="161" y="770" on="1"/>
        <pt x="191" y="770" on="0"/>
        <pt x="191" y="739" on="1"/>
        <pt x="191" y="422" on="1"/>
        <pt x="279" y="458" on="1"/>
        <pt x="279" y="402" on="1"/>
        <pt x="191" y="366" on="1"/>
      </contour>
    </TTGlyph>
    <TTGlyph name="m" xMin="66" yMin="-14" xMax="991" yMax="586">
      <contour>
        <pt x="481" y="29" on="1"/>
        <pt x="481" y="407" on="1"/>
        <pt x="481" y="470" on="0"/>
        <pt x="436" y="525" on="0"/>
        <pt x="381" y="525" on="1"/>
        <pt x="297" y="525" on="0"/>
        <pt x="215" y="451" on="1"/>
        <pt x="215" y="59" on="1"/>
        <pt x="285" y="52" on="1"/>
        <pt x="285" y="0" on="1"/>
        <pt x="66" y="0" on="1"/>
        <pt x="66" y="52" on="1"/>
        <pt x="136" y="59" on="1"/>
        <pt x="136" y="512" on="1"/>
        <pt x="66" y="520" on="1"/>
        <pt x="66" y="572" on="1"/>
        <pt x="172" y="572" on="1"/>
        <pt x="203" y="572" on="0"/>
        <pt x="203" y="542" on="1"/>
        <pt x="203" y="503" on="1"/>
        <pt x="298" y="586" on="0"/>
        <pt x="507" y="586" on="0"/>
        <pt x="542" y="509" on="1"/>
        <pt x="636" y="586" on="0"/>
        <pt x="819" y="586" on="0"/>
        <pt x="897" y="498" on="0"/>
        <pt x="897" y="407" on="1"/>
        <pt x="897" y="108" on="1"/>
        <pt x="897" y="53" on="0"/>
        <pt x="940" y="53" on="1"/>
        <pt x="966" y="53" on="0"/>
        <pt x="982" y="59" on="1"/>
        <pt x="991" y="-1" on="1"/>
        <pt x="952" y="-14" on="0"/>
        <pt x="914" y="-14" on="1"/>
        <pt x="818" y="-14" on="0"/>
        <pt x="818" y="99" on="1"/>
        <pt x="818" y="407" on="1"/>
        <pt x="818" y="470" on="0"/>
        <pt x="773" y="525" on="0"/>
        <pt x="718" y="525" on="1"/>
        <pt x="637" y="525" on="0"/>
        <pt x="556" y="459" on="1"/>
        <pt x="560" y="427" on="0"/>
        <pt x="560" y="407" on="1"/>
        <pt x="560" y="59" on="1"/>
        <pt x="629" y="52" on="1"/>
        <pt x="629" y="0" on="1"/>
        <pt x="512" y="0" on="1"/>
        <pt x="481" y="0" on="0"/>
      </contour>
    </TTGlyph>
    <TTGlyph name="macron" xMin="50" yMin="693" xMax="304" yMax="760">
      <contour>
        <pt x="304" y="693" on="1"/>
        <pt x="50" y="693" on="1"/>
        <pt x="50" y="760" on="1"/>
        <pt x="304" y="760" on="1"/>
      </contour>
    </TTGlyph>
    <TTGlyph name="minus" xMin="95" yMin="333" xMax="489" yMax="397">
      <contour>
        <pt x="489" y="333" on="1"/>
        <pt x="95" y="333" on="1"/>
        <pt x="95" y="397" on="1"/>
        <pt x="489" y="397" on="1"/>
      </contour>
    </TTGlyph>
    <TTGlyph name="mu" xMin="119" yMin="-233" xMax="660" yMax="572">
      <contour>
        <pt x="566" y="541" on="1"/>
        <pt x="566" y="108" on="1"/>
        <pt x="566" y="53" on="0"/>
        <pt x="609" y="53" on="1"/>
        <pt x="624" y="53" on="0"/>
        <pt x="651" y="59" on="1"/>
        <pt x="660" y="-1" on="1"/>
        <pt x="619" y="-14" on="0"/>
        <pt x="583" y="-14" on="1"/>
        <pt x="502" y="-14" on="0"/>
        <pt x="489" y="63" on="1"/>
        <pt x="385" y="-14" on="0"/>
        <pt x="293" y="-14" on="1"/>
        <pt x="222" y="-14" on="0"/>
        <pt x="192" y="24" on="1"/>
        <pt x="192" y="-227" on="1"/>
        <pt x="119" y="-233" on="1"/>
        <pt x="119" y="572" on="1"/>
        <pt x="164" y="572" on="1"/>
        <pt x="197" y="572" on="0"/>
        <pt x="197" y="541" on="1"/>
        <pt x="197" y="165" on="1"/>
        <pt x="197" y="102" on="0"/>
        <pt x="243" y="46" on="0"/>
        <pt x="298" y="46" on="1"/>
        <pt x="392" y="46" on="0"/>
        <pt x="487" y="123" on="1"/>
        <pt x="487" y="572" on="1"/>
        <pt x="536" y="572" on="1"/>
        <pt x="566" y="572" on="0"/>
      </contour>
    </TTGlyph>
    <TTGlyph name="multiply" xMin="113" yMin="185" xMax="472" yMax="544">
      <contour>
        <pt x="472" y="499" on="1"/>
        <pt x="338" y="365" on="1"/>
        <pt x="472" y="230" on="1"/>
        <pt x="426" y="185" on="1"/>
        <pt x="292" y="320" on="1"/>
        <pt x="158" y="185" on="1"/>
        <pt x="113" y="230" on="1"/>
        <pt x="246" y="365" on="1"/>
        <pt x="113" y="499" on="1"/>
        <pt x="158" y="544" on="1"/>
        <pt x="292" y="410" on="1"/>
        <pt x="426" y="544" on="1"/>
      </contour>
    </TTGlyph>
    <TTGlyph name="n" xMin="66" yMin="-14" xMax="673" yMax="586">
      <contour>
        <pt x="500" y="99" on="1"/>
        <pt x="500" y="407" on="1"/>
        <pt x="500" y="470" on="0"/>
        <pt x="455" y="525" on="0"/>
        <pt x="400" y="525" on="1"/>
        <pt x="305" y="525" on="0"/>
        <pt x="215" y="451" on="1"/>
        <pt x="215" y="59" on="1"/>
        <pt x="285" y="52" on="1"/>
        <pt x="285" y="0" on="1"/>
        <pt x="66" y="0" on="1"/>
        <pt x="66" y="52" on="1"/>
        <pt x="136" y="59" on="1"/>
        <pt x="136" y="512" on="1"/>
        <pt x="66" y="520" on="1"/>
        <pt x="66" y="572" on="1"/>
        <pt x="172" y="572" on="1"/>
        <pt x="203" y="572" on="0"/>
        <pt x="203" y="542" on="1"/>
        <pt x="203" y="503" on="1"/>
        <pt x="308" y="586" on="0"/>
        <pt x="415" y="586" on="1"/>
        <pt x="501" y="586" on="0"/>
        <pt x="579" y="498" on="0"/>
        <pt x="579" y="407" on="1"/>
        <pt x="579" y="108" on="1"/>
        <pt x="579" y="53" on="0"/>
        <pt x="622" y="53" on="1"/>
        <pt x="640" y="53" on="0"/>
        <pt x="664" y="59" on="1"/>
        <pt x="673" y="-1" on="1"/>
        <pt x="634" y="-14" on="0"/>
        <pt x="596" y="-14" on="1"/>
        <pt x="500" y="-14" on="0"/>
      </contour>
    </TTGlyph>
    <TTGlyph name="nine" xMin="61" yMin="-14" xMax="555" yMax="745">
      <contour>
        <pt x="286" y="-14" on="1"/>
        <pt x="180" y="-14" on="0"/>
        <pt x="64" y="101" on="0"/>
        <pt x="64" y="199" on="1"/>
        <pt x="135" y="199" on="1"/>
        <pt x="135" y="130" on="0"/>
        <pt x="215" y="46" on="0"/>
        <pt x="288" y="46" on="1"/>
        <pt x="378" y="46" on="0"/>
        <pt x="476" y="213" on="0"/>
        <pt x="479" y="373" on="1"/>
        <pt x="386" y="301" on="0"/>
        <pt x="185" y="301" on="0"/>
        <pt x="61" y="410" on="0"/>
        <pt x="61" y="622" on="0"/>
        <pt x="189" y="745" on="0"/>
        <pt x="423" y="745" on="0"/>
        <pt x="555" y="566" on="0"/>
        <pt x="555" y="401" on="1"/>
        <pt x="555" y="203" on="0"/>
        <pt x="416" y="-14" on="0"/>
      </contour>
      <contour>
        <pt x="477" y="555" on="0"/>
        <pt x="383" y="683" on="0"/>
        <pt x="225" y="683" on="0"/>
        <pt x="140" y="593" on="0"/>
        <pt x="140" y="437" on="0"/>
        <pt x="224" y="362" on="0"/>
        <pt x="290" y="362" on="1"/>
        <pt x="388" y="362" on="0"/>
        <pt x="478" y="434" on="1"/>
      </contour>
    </TTGlyph>
    <TTGlyph name="nineinferior" xMin="56" yMin="-7" xMax="336" yMax="395">
      <contour>
        <pt x="336" y="106" on="0"/>
        <pt x="258" y="-7" on="0"/>
        <pt x="124" y="-7" on="0"/>
        <pt x="56" y="59" on="0"/>
        <pt x="56" y="114" on="1"/>
        <pt x="115" y="114" on="1"/>
        <pt x="115" y="81" on="0"/>
        <pt x="152" y="41" on="0"/>
        <pt x="187" y="41" on="1"/>
        <pt x="272" y="41" on="0"/>
        <pt x="275" y="184" on="1"/>
        <pt x="229" y="155" on="0"/>
        <pt x="127" y="155" on="0"/>
        <pt x="56" y="216" on="0"/>
        <pt x="56" y="330" on="0"/>
        <pt x="129" y="395" on="0"/>
        <pt x="261" y="395" on="0"/>
        <pt x="336" y="299" on="0"/>
      </contour>
      <contour>
        <pt x="195" y="346" on="1"/>
        <pt x="119" y="346" on="0"/>
        <pt x="119" y="272" on="1"/>
        <pt x="119" y="239" on="0"/>
        <pt x="157" y="204" on="0"/>
        <pt x="231" y="204" on="0"/>
        <pt x="274" y="233" on="1"/>
        <pt x="274" y="289" on="0"/>
        <pt x="230" y="346" on="0"/>
      </contour>
    </TTGlyph>
    <TTGlyph name="notequal" xMin="95" yMin="-66" xMax="489" yMax="795">
      <contour>
        <pt x="95" y="231" on="1"/>
        <pt x="95" y="296" on="1"/>
        <pt x="242" y="296" on="1"/>
        <pt x="280" y="434" on="1"/>
        <pt x="95" y="434" on="1"/>
        <pt x="95" y="499" on="1"/>
        <pt x="298" y="499" on="1"/>
        <pt x="381" y="795" on="1"/>
        <pt x="443" y="795" on="1"/>
        <pt x="360" y="499" on="1"/>
        <pt x="489" y="499" on="1"/>
        <pt x="489" y="434" on="1"/>
        <pt x="342" y="434" on="1"/>
        <pt x="304" y="296" on="1"/>
        <pt x="489" y="296" on="1"/>
        <pt x="489" y="231" on="1"/>
        <pt x="286" y="231" on="1"/>
        <pt x="203" y="-66" on="1"/>
        <pt x="141" y="-66" on="1"/>
        <pt x="224" y="231" on="1"/>
      </contour>
    </TTGlyph>
    <TTGlyph name="ntilde" xMin="66" yMin="-14" xMax="673" yMax="786">
      <contour>
        <pt x="500" y="99" on="1"/>
        <pt x="500" y="407" on="1"/>
        <pt x="500" y="470" on="0"/>
        <pt x="455" y="525" on="0"/>
        <pt x="400" y="525" on="1"/>
        <pt x="305" y="525" on="0"/>
        <pt x="215" y="451" on="1"/>
        <pt x="215" y="59" on="1"/>
        <pt x="285" y="52" on="1"/>
        <pt x="285" y="0" on="1"/>
        <pt x="66" y="0" on="1"/>
        <pt x="66" y="52" on="1"/>
        <pt x="136" y="59" on="1"/>
        <pt x="136" y="512" on="1"/>
        <pt x="66" y="520" on="1"/>
        <pt x="66" y="572" on="1"/>
        <pt x="172" y="572" on="1"/>
        <pt x="203" y="572" on="0"/>
        <pt x="203" y="542" on="1"/>
        <pt x="203" y="503" on="1"/>
        <pt x="308" y="586" on="0"/>
        <pt x="415" y="586" on="1"/>
        <pt x="501" y="586" on="0"/>
        <pt x="579" y="498" on="0"/>
        <pt x="579" y="407" on="1"/>
        <pt x="579" y="108" on="1"/>
        <pt x="579" y="53" on="0"/>
        <pt x="622" y="53" on="1"/>
        <pt x="640" y="53" on="0"/>
        <pt x="664" y="59" on="1"/>
        <pt x="673" y="-1" on="1"/>
        <pt x="634" y="-14" on="0"/>
        <pt x="596" y="-14" on="1"/>
        <pt x="500" y="-14" on="0"/>
      </contour>
      <contour>
        <pt x="426" y="676" on="1"/>
        <pt x="401" y="676" on="0"/>
        <pt x="306" y="712" on="0"/>
        <pt x="292" y="712" on="1"/>
        <pt x="257" y="712" on="0"/>
        <pt x="245" y="669" on="1"/>
        <pt x="198" y="683" on="1"/>
        <pt x="224" y="778" on="0"/>
        <pt x="284" y="778" on="1"/>
        <pt x="308" y="778" on="0"/>
        <pt x="405" y="742" on="0"/>
        <pt x="419" y="742" on="1"/>
        <pt x="452" y="742" on="0"/>
        <pt x="465" y="786" on="1"/>
        <pt x="512" y="771" on="1"/>
        <pt x="488" y="676" on="0"/>
      </contour>
    </TTGlyph>
    <TTGlyph name="numbersign" xMin="59" yMin="-59" xMax="737" yMax="822">
      <contour>
        <pt x="624" y="567" on="1"/>
        <pt x="737" y="567" on="1"/>
        <pt x="727" y="506" on="1"/>
        <pt x="613" y="506" on="1"/>
        <pt x="569" y="257" on="1"/>
        <pt x="683" y="257" on="1"/>
        <pt x="672" y="196" on="1"/>
        <pt x="557" y="196" on="1"/>
        <pt x="512" y="-59" on="1"/>
        <pt x="432" y="-59" on="1"/>
        <pt x="479" y="196" on="1"/>
        <pt x="252" y="196" on="1"/>
        <pt x="206" y="-59" on="1"/>
        <pt x="127" y="-59" on="1"/>
        <pt x="173" y="196" on="1"/>
        <pt x="59" y="196" on="1"/>
        <pt x="70" y="257" on="1"/>
        <pt x="184" y="257" on="1"/>
        <pt x="229" y="506" on="1"/>
        <pt x="114" y="506" on="1"/>
        <pt x="124" y="567" on="1"/>
        <pt x="240" y="567" on="1"/>
        <pt x="287" y="822" on="1"/>
        <pt x="366" y="822" on="1"/>
        <pt x="319" y="567" on="1"/>
        <pt x="546" y="567" on="1"/>
        <pt x="592" y="822" on="1"/>
        <pt x="672" y="822" on="1"/>
      </contour>
      <contour>
        <pt x="308" y="506" on="1"/>
        <pt x="263" y="257" on="1"/>
        <pt x="490" y="257" on="1"/>
        <pt x="534" y="506" on="1"/>
      </contour>
    </TTGlyph>
    <TTGlyph name="o" xMin="62" yMin="-14" xMax="560" yMax="586">
      <contour>
        <pt x="62" y="432" on="0"/>
        <pt x="189" y="586" on="0"/>
        <pt x="422" y="586" on="0"/>
        <pt x="560" y="421" on="0"/>
        <pt x="560" y="140" on="0"/>
        <pt x="432" y="-14" on="0"/>
        <pt x="199" y="-14" on="0"/>
        <pt x="62" y="151" on="0"/>
      </contour>
      <contour>
        <pt x="481" y="394" on="0"/>
        <pt x="387" y="525" on="0"/>
        <pt x="227" y="525" on="0"/>
        <pt x="140" y="403" on="0"/>
        <pt x="140" y="179" on="0"/>
        <pt x="235" y="47" on="0"/>
        <pt x="393" y="47" on="0"/>
        <pt x="481" y="169" on="0"/>
      </contour>
    </TTGlyph>
    <TTGlyph name="oacute" xMin="62" yMin="-14" xMax="560" yMax="809">
      <contour>
        <pt x="62" y="432" on="0"/>
        <pt x="189" y="586" on="0"/>
        <pt x="422" y="586" on="0"/>
        <pt x="560" y="421" on="0"/>
        <pt x="560" y="140" on="0"/>
        <pt x="432" y="-14" on="0"/>
        <pt x="199" y="-14" on="0"/>
        <pt x="62" y="151" on="0"/>
      </contour>
      <contour>
        <pt x="481" y="394" on="0"/>
        <pt x="387" y="525" on="0"/>
        <pt x="227" y="525" on="0"/>
        <pt x="140" y="403" on="0"/>
        <pt x="140" y="179" on="0"/>
        <pt x="235" y="47" on="0"/>
        <pt x="393" y="47" on="0"/>
        <pt x="481" y="169" on="0"/>
      </contour>
      <contour>
        <pt x="424" y="742" on="1"/>
        <pt x="222" y="637" on="1"/>
        <pt x="194" y="683" on="1"/>
        <pt x="386" y="809" on="1"/>
      </contour>
    </TTGlyph>
    <TTGlyph name="ocircumflex" xMin="62" yMin="-14" xMax="560" yMax="810">
      <contour>
        <pt x="62" y="432" on="0"/>
        <pt x="189" y="586" on="0"/>
        <pt x="422" y="586" on="0"/>
        <pt x="560" y="421" on="0"/>
        <pt x="560" y="140" on="0"/>
        <pt x="432" y="-14" on="0"/>
        <pt x="199" y="-14" on="0"/>
        <pt x="62" y="151" on="0"/>
      </contour>
      <contour>
        <pt x="481" y="394" on="0"/>
        <pt x="387" y="525" on="0"/>
        <pt x="227" y="525" on="0"/>
        <pt x="140" y="403" on="0"/>
        <pt x="140" y="179" on="0"/>
        <pt x="235" y="47" on="0"/>
        <pt x="393" y="47" on="0"/>
        <pt x="481" y="169" on="0"/>
      </contour>
      <contour>
        <pt x="450" y="667" on="1"/>
        <pt x="418" y="634" on="1"/>
        <pt x="306" y="732" on="1"/>
        <pt x="195" y="634" on="1"/>
        <pt x="163" y="667" on="1"/>
        <pt x="285" y="810" on="1"/>
        <pt x="327" y="810" on="1"/>
      </contour>
    </TTGlyph>
    <TTGlyph name="odieresis" xMin="62" yMin="-14" xMax="560" yMax="766">
      <contour>
        <pt x="62" y="432" on="0"/>
        <pt x="189" y="586" on="0"/>
        <pt x="422" y="586" on="0"/>
        <pt x="560" y="421" on="0"/>
        <pt x="560" y="140" on="0"/>
        <pt x="432" y="-14" on="0"/>
        <pt x="199" y="-14" on="0"/>
        <pt x="62" y="151" on="0"/>
      </contour>
      <contour>
        <pt x="481" y="394" on="0"/>
        <pt x="387" y="525" on="0"/>
        <pt x="227" y="525" on="0"/>
        <pt x="140" y="403" on="0"/>
        <pt x="140" y="179" on="0"/>
        <pt x="235" y="47" on="0"/>
        <pt x="393" y="47" on="0"/>
        <pt x="481" y="169" on="0"/>
      </contour>
      <contour>
        <pt x="157" y="696" on="0"/>
        <pt x="157" y="736" on="0"/>
        <pt x="187" y="766" on="0"/>
        <pt x="227" y="766" on="0"/>
        <pt x="257" y="736" on="0"/>
        <pt x="257" y="696" on="0"/>
        <pt x="227" y="666" on="0"/>
        <pt x="187" y="666" on="0"/>
      </contour>
      <contour>
        <pt x="362" y="696" on="0"/>
        <pt x="362" y="736" on="0"/>
        <pt x="392" y="766" on="0"/>
        <pt x="432" y="766" on="0"/>
        <pt x="462" y="736" on="0"/>
        <pt x="462" y="696" on="0"/>
        <pt x="432" y="666" on="0"/>
        <pt x="392" y="666" on="0"/>
      </contour>
    </TTGlyph>
    <TTGlyph name="oe" xMin="62" yMin="-14" xMax="953" yMax="586">
      <contour>
        <pt x="560" y="269" on="1"/>
        <pt x="559" y="255" on="1"/>
        <pt x="569" y="101" on="0"/>
        <pt x="669" y="60" on="1"/>
        <pt x="699" y="47" on="0"/>
        <pt x="737" y="47" on="1"/>
        <pt x="812" y="47" on="0"/>
        <pt x="900" y="92" on="1"/>
        <pt x="925" y="34" on="1"/>
        <pt x="824" y="-14" on="0"/>
        <pt x="734" y="-14" on="1"/>
        <pt x="588" y="-14" on="0"/>
        <pt x="523" y="103" on="1"/>
        <pt x="462" y="-14" on="0"/>
        <pt x="310" y="-14" on="1"/>
        <pt x="199" y="-14" on="0"/>
        <pt x="62" y="151" on="0"/>
        <pt x="62" y="432" on="0"/>
        <pt x="189" y="586" on="0"/>
        <pt x="310" y="586" on="1"/>
        <pt x="378" y="586" on="0"/>
        <pt x="486" y="521" on="0"/>
        <pt x="519" y="463" on="1"/>
        <pt x="580" y="586" on="0"/>
        <pt x="725" y="586" on="1"/>
        <pt x="832" y="586" on="0"/>
        <pt x="953" y="440" on="0"/>
        <pt x="953" y="318" on="1"/>
        <pt x="953" y="269" on="1"/>
      </contour>
      <contour>
        <pt x="481" y="395" on="0"/>
        <pt x="386" y="525" on="0"/>
        <pt x="227" y="525" on="0"/>
        <pt x="140" y="403" on="0"/>
        <pt x="140" y="179" on="0"/>
        <pt x="235" y="47" on="0"/>
        <pt x="394" y="47" on="0"/>
        <pt x="481" y="170" on="0"/>
      </contour>
      <contour>
        <pt x="874" y="416" on="0"/>
        <pt x="794" y="525" on="0"/>
        <pt x="644" y="525" on="0"/>
        <pt x="568" y="411" on="0"/>
        <pt x="561" y="325" on="1"/>
        <pt x="874" y="325" on="1"/>
      </contour>
    </TTGlyph>
</ttFont>
